<svg xmlns="http://www.w3.org/2000/svg" width="201.038" height="201.022" viewBox="0 0 201.038 201.022">
  <g id="Grupo_63090" data-name="Grupo 63090" transform="translate(-422 -5680.19)">
    <rect id="Rectángulo_19015" data-name="Rectángulo 19015" width="201" height="138" transform="translate(422 5726)" fill="#fff"/>
    <g id="Grupo_63075" data-name="Grupo 63075" transform="translate(422 5680.191)">
      <path id="Trazado_140117" data-name="Trazado 140117" d="M-336.388,5556.27a67.687,67.687,0,0,1-.828,12.039c-.337,2.665-1.132,3.406-3.665,3.143-5.186-.539-10.2-1.682-14.558-4.807-7.422-5.323-7.459-14.519-.027-19.8,4.671-3.317,10.089-4.328,15.63-4.877,1.733-.172,2.468.792,2.79,2.45C-336.346,5548.032-336.439,5551.671-336.388,5556.27Z" transform="translate(439.491 -5436.843)" fill="#50af96"/>
      <path id="Trazado_140118" data-name="Trazado 140118" d="M-312.2,5544.848c8.72-13.007,11.185-27.708,11.15-42.75-.035-14.889-2.4-29.48-11.407-42.116,1.357-.728,1.817.19,2.351.689,5.78,5.395,9.072,12.273,11.069,19.723,4.334,16.168,4.126,32.277-1.5,48.166a44.116,44.116,0,0,1-7.6,13.427A7.746,7.746,0,0,1-312.2,5544.848Z" transform="translate(408.051 -5383.604)" fill="#50af96"/>
      <path id="Trazado_140270" data-name="Trazado 140270" d="M-382.512,5249.846c0-5.957-.009-5.968-5.794-5.968q-94.852,0-189.705,0c-5.525,0-5.533.01-5.534,5.4q0,47.427,0,94.853t0,94.852c0,5.906.005,5.914,5.732,5.914q94.853,0,189.7,0c5.591,0,5.6-.009,5.6-5.7Q-382.508,5344.522-382.512,5249.846Zm-145.979,90.8q-6.489-4.533-12.947-9.11a4.813,4.813,0,0,1-1.427-1.5,1.378,1.378,0,0,1,1.458-2.056,4.482,4.482,0,0,1,2.245.945q6.634,4.634,13.246,9.3a2.566,2.566,0,0,1,1.448,2.244,1.328,1.328,0,0,1-1.456,1.228A4.4,4.4,0,0,1-528.491,5340.645Zm1.691,11.2c-.351,1.087-1.331,1.172-2.5,1.08-1.511-.473-3.182-1.009-4.861-1.517-4.144-1.254-8.295-2.485-12.436-3.749a25.037,25.037,0,0,1-2.966-1.076,1.551,1.551,0,0,1-1.031-1.973,1.7,1.7,0,0,1,1.98-1.089,8.687,8.687,0,0,1,1.708.372q8.567,2.6,17.125,5.223a16.285,16.285,0,0,1,1.648.6C-527.2,5350.113-526.438,5350.723-526.8,5351.844Zm-27.107,10.382c.167-.989,1.056-1.157,1.888-1.228.814-.069,1.634-.077,2.451-.078q8.766-.008,17.532,0c.7,0,1.406-.02,2.1.047,1.177.112,2.55.209,2.45,1.827-.084,1.347-1.329,1.509-2.393,1.521-3.622.042-7.246.016-10.869.016v.038c-2.922,0-5.844.016-8.766-.01a14.354,14.354,0,0,1-2.785-.221C-553.258,5363.937-554.105,5363.4-553.906,5362.227Zm5.46,19.3c-1.079.043-1.791-.112-2.1-.855-.394-.944.159-1.6.927-2.016a12.544,12.544,0,0,1,2.271-.941c5.5-1.7,11-3.394,16.517-5.028,2.379-.7,3.916-.341,3.927.837.018,1.893-1.661,2.074-2.947,2.477-5.379,1.688-10.777,3.315-16.174,4.943C-546.922,5381.211-547.848,5381.382-548.446,5381.524Zm22.453,5.379q-6.849,4.865-13.735,9.676a5.117,5.117,0,0,1-.914.515c-.8.345-1.632.48-2.181-.371a1.769,1.769,0,0,1,.372-2.238,5.845,5.845,0,0,1,1.044-.925q6.722-4.741,13.467-9.449a5.129,5.129,0,0,1,1.884-.862c1-.19,1.471.457,1.586,1.291A3.155,3.155,0,0,1-525.993,5386.9Zm51.847,7.518a37.323,37.323,0,0,1-10.77,14.162c-6.646,5.448-15.4,4.843-22.173-1.219A39.832,39.832,0,0,1-517.758,5391a81.122,81.122,0,0,1-4.556-36.356,73.079,73.079,0,0,1,5.958-23.792c2.56-5.551,5.74-10.672,10.86-14.477,7.1-5.279,16.4-4.351,22.8,1.871a40.4,40.4,0,0,1,9.081,13.705c4,9.64,5.811,19.343,5.815,30.939A79.537,79.537,0,0,1-474.146,5394.421Zm7.273-5.059a109.07,109.07,0,0,0,3.941-26.636c.059-8.937-1.494-17.688-4.021-27.065,9.107,3.245,17.729,5.188,25.466,9.549,10.018,5.648,13.49,17.308,8.108,27.278a19.821,19.821,0,0,1-8.372,7.816,75.642,75.642,0,0,1-16.659,6.6C-461.072,5387.63-463.583,5388.915-466.873,5389.363Zm42.483-8.151c-.767,1.582-1.551,3.157-2.395,4.7q-7.508,13.726-15.042,27.438a13.035,13.035,0,0,1-2.465,3.4,4.6,4.6,0,0,1-3.353,1.317c-4.075-.011-6.387-2.917-5.565-6.792.638-3.006,2.145-5.7,3.184-8.557,1.64-4.516,3.57-8.925,5.27-13.419a6.286,6.286,0,0,1,3.349-3.832,30.079,30.079,0,0,0,7.053-4.583c2.832-2.423,6.228-1.482,9.444-1.34C-423.99,5379.579-424.06,5380.531-424.391,5381.212Zm10.141-15.561c-.491,5.939-7.324,10.716-13.086,9.184-.791-.209-1.242-.637-1.032-1.5a12.629,12.629,0,0,1,.445-1.331,26.626,26.626,0,0,0,.035-18.566c-.962-2.715-.722-2.862,2.151-3.1,6.363-.521,12.331,4.2,11.5,12.674C-414.237,5363.544-414.163,5364.6-414.249,5365.651Z" transform="translate(583.547 -5243.876)" fill="#50af96"/>
      <g id="Grupo_63058" data-name="Grupo 63058" transform="translate(13.668 15.836)">
        <g id="Grupo_63057" data-name="Grupo 63057">
          <path id="Trazado_140392" data-name="Trazado 140392" d="M-541.708,5323.309a17.491,17.491,0,0,0,3.712-.324,10.236,10.236,0,0,0,4.725-2.433,15.439,15.439,0,0,0,3.884-8.116h-.173a7.493,7.493,0,0,1-5.742,2.485c-5.235,0-9.485-4.645-9.485-12.038,0-6.886,4.231-14.1,11.973-14.1,7.493,0,11.439,6.823,11.439,16.552,0,9.1-2.939,15.479-6.621,19.417a17.059,17.059,0,0,1-9.945,5.091,22.677,22.677,0,0,1-3.767.189Zm4.921-21.064c.049,3.9,1.273,7.1,3.755,7.1a3.582,3.582,0,0,0,3.1-2.08c.3-.8.371-1.662.371-4.32,0-5.276-1.507-8.29-3.674-8.29C-535.308,5294.656-536.884,5297.342-536.787,5302.245Z" transform="translate(544.787 -5288.786)" fill="#fff"/>
        </g>
      </g>
      <g id="Grupo_63060" data-name="Grupo 63060" transform="translate(40.769 12.568)">
        <g id="Grupo_63059" data-name="Grupo 63059" transform="translate(0 0)">
          <path id="Trazado_140393" data-name="Trazado 140393" d="M-465.959,5288.468a14.3,14.3,0,0,1,2.874-.273,5.414,5.414,0,0,1,3.844,1.089,4.09,4.09,0,0,1,1.209,3.1,4.749,4.749,0,0,1-1.2,3.4,4.9,4.9,0,0,1-3.438,1.356c-.187,0-.368,0-.553-.008v5.265h-2.738Zm2.738,6.428a2.587,2.587,0,0,0,.457.03c1.385,0,2-.988,2-2.308,0-1.23-.5-2.207-1.777-2.207a2.121,2.121,0,0,0-.68.1Z" transform="translate(466.654 -5285.135)" fill="#fff"/>
          <path id="Trazado_140394" data-name="Trazado 140394" d="M-438.771,5288.468a15.721,15.721,0,0,1,3-.273,5.474,5.474,0,0,1,3.771,1.052,3.64,3.64,0,0,1,1.121,2.941,3.751,3.751,0,0,1-2.18,3.531v.042c.958.389,1.446,1.277,1.716,2.8a22.783,22.783,0,0,0,.9,3.833h-2.871a18.418,18.418,0,0,1-.71-3.384c-.241-1.758-.69-2.254-1.6-2.254h-.412v5.639h-2.738Zm2.738,6.172h.5a1.951,1.951,0,0,0,1.875-2.2c0-1.21-.478-2.062-1.707-2.095a2.057,2.057,0,0,0-.667.083Z" transform="translate(449.053 -5285.135)" fill="#fff"/>
          <path id="Trazado_140395" data-name="Trazado 140395" d="M-403.74,5294.887c0,5.332-1.895,7.486-4.575,7.486-3.2,0-4.464-3.391-4.464-7.271,0-3.863,1.535-7.205,4.666-7.205C-404.7,5287.9-403.74,5291.648-403.74,5294.887Zm-6.176.248c0,3.208.6,4.848,1.711,4.848,1.165,0,1.6-2.1,1.6-4.964,0-2.495-.38-4.732-1.623-4.732C-409.321,5290.287-409.916,5292.1-409.916,5295.135Z" transform="translate(432.226 -5284.942)" fill="#fff"/>
          <path id="Trazado_140396" data-name="Trazado 140396" d="M-374.5,5297.569c-.072-1.354-.16-3.165-.13-4.689h-.055c-.253,1.516-.63,3.256-.895,4.354l-1.229,5.047h-1.951l-1.173-4.967c-.273-1.143-.647-2.9-.863-4.434h-.051c-.041,1.542-.141,3.325-.213,4.724l-.24,4.909h-2.358l1.016-14.14h2.9l1.128,5.117c.392,1.793.749,3.354,1,4.953h.046c.215-1.57.53-3.163.9-4.953l1.115-5.117h2.9l.859,14.14h-2.462Z" transform="translate(413.375 -5285.25)" fill="#fff"/>
          <path id="Trazado_140397" data-name="Trazado 140397" d="M-337.227,5294.887c0,5.332-1.895,7.486-4.575,7.486-3.2,0-4.464-3.391-4.464-7.271,0-3.863,1.535-7.205,4.666-7.205C-338.191,5287.9-337.227,5291.648-337.227,5294.887Zm-6.176.248c0,3.208.6,4.848,1.71,4.848,1.165,0,1.6-2.1,1.6-4.964,0-2.495-.38-4.732-1.623-4.732C-342.808,5290.287-343.4,5292.1-343.4,5295.135Z" transform="translate(389.167 -5284.942)" fill="#fff"/>
          <path id="Trazado_140398" data-name="Trazado 140398" d="M-310.189,5302.077a5.568,5.568,0,0,1-2.121.332c-3.613,0-5.34-2.969-5.34-6.982,0-5.33,2.958-7.409,5.7-7.409a4.038,4.038,0,0,1,1.922.369l-.459,2.319a2.731,2.731,0,0,0-1.279-.282c-1.568,0-2.969,1.354-2.969,4.852,0,3.374,1.287,4.694,2.954,4.694a4.862,4.862,0,0,0,1.325-.208Z" transform="translate(370.642 -5285.02)" fill="#fff"/>
          <path id="Trazado_140399" data-name="Trazado 140399" d="M-289.426,5288.374v14.14h-2.755v-14.14Z" transform="translate(354.154 -5285.25)" fill="#fff"/>
          <path id="Trazado_140400" data-name="Trazado 140400" d="M-270.358,5289.462c0,5.332-1.895,7.486-4.575,7.486-3.2,0-4.464-3.391-4.464-7.271,0-3.864,1.535-7.205,4.666-7.205C-271.322,5282.472-270.358,5286.222-270.358,5289.462Zm-6.176.247c0,3.208.6,4.849,1.71,4.849,1.165,0,1.6-2.1,1.6-4.964,0-2.5-.38-4.732-1.623-4.732C-275.938,5284.862-276.534,5286.676-276.534,5289.709Zm5-10.192-2.561,2.368h-1.952l1.726-2.368Z" transform="translate(345.878 -5279.517)" fill="#fff"/>
          <path id="Trazado_140401" data-name="Trazado 140401" d="M-248.812,5302.514v-14.14h2.524l2.175,5.547c.428,1.088,1.117,2.9,1.513,4.122h.042c-.1-1.477-.279-3.946-.279-6.545v-3.124h2.415v14.14h-2.523l-2.144-5.378a39.852,39.852,0,0,1-1.445-4.247h-.042c.08,1.421.18,3.6.18,6.446v3.179Z" transform="translate(326.078 -5285.25)" fill="#fff"/>
          <path id="Trazado_140402" data-name="Trazado 140402" d="M-208.654,5288.468a13.06,13.06,0,0,1,2.792-.273,5.469,5.469,0,0,1,3.93,1.258c1.21,1.092,1.835,2.962,1.835,5.7,0,2.865-.736,4.89-1.962,5.99a5.991,5.991,0,0,1-4.324,1.368,18.076,18.076,0,0,1-2.272-.159Zm2.738,11.747a1.958,1.958,0,0,0,.494.042c1.328,0,2.478-1.3,2.478-5.194,0-2.906-.755-4.669-2.422-4.669a1.7,1.7,0,0,0-.55.067Z" transform="translate(300.081 -5285.135)" fill="#fff"/>
          <path id="Trazado_140403" data-name="Trazado 140403" d="M-173.466,5296.3h-3.221v3.833h3.634v2.385h-6.39v-14.14h6.15v2.385h-3.395v3.25h3.221Z" transform="translate(281.169 -5285.25)" fill="#fff"/>
          <path id="Trazado_140404" data-name="Trazado 140404" d="M-156,5288.374h2.755v11.809h3.617v2.331H-156Z" transform="translate(265.995 -5285.25)" fill="#fff"/>
          <path id="Trazado_140405" data-name="Trazado 140405" d="M-460.468,5361.571a5.572,5.572,0,0,1-2.121.333c-3.613,0-5.34-2.971-5.34-6.983,0-5.331,2.958-7.409,5.7-7.409a4.04,4.04,0,0,1,1.922.368l-.459,2.319a2.738,2.738,0,0,0-1.279-.281c-1.568,0-2.969,1.354-2.969,4.852,0,3.375,1.287,4.694,2.954,4.694a4.824,4.824,0,0,0,1.325-.208Z" transform="translate(467.929 -5323.535)" fill="#fff"/>
          <path id="Trazado_140406" data-name="Trazado 140406" d="M-436.1,5354.383c0,5.331-1.895,7.485-4.575,7.485-3.2,0-4.465-3.39-4.465-7.271,0-3.863,1.535-7.205,4.667-7.205C-437.068,5347.393-436.1,5351.143-436.1,5354.383Zm-6.176.248c0,3.207.6,4.848,1.711,4.848,1.165,0,1.6-2.1,1.6-4.963,0-2.5-.38-4.733-1.623-4.733C-441.685,5349.782-442.28,5351.6-442.28,5354.63Z" transform="translate(453.178 -5323.458)" fill="#fff"/>
          <path id="Trazado_140407" data-name="Trazado 140407" d="M-406.865,5357.064c-.072-1.354-.16-3.165-.13-4.689h-.055c-.253,1.517-.63,3.256-.895,4.356l-1.229,5.046h-1.951l-1.173-4.967c-.273-1.145-.647-2.9-.863-4.436h-.051c-.041,1.542-.141,3.326-.213,4.725l-.239,4.909h-2.358l1.015-14.14h2.9l1.128,5.117c.392,1.793.749,3.354,1,4.953h.047c.216-1.57.53-3.163.9-4.953l1.115-5.117h2.9l.859,14.14h-2.462Z" transform="translate(434.326 -5323.766)" fill="#fff"/>
          <path id="Trazado_140408" data-name="Trazado 140408" d="M-370.684,5355.791H-373.9v3.833h3.634v2.385h-6.39v-14.14h6.15v2.385H-373.9v3.251h3.221Z" transform="translate(408.844 -5323.766)" fill="#fff"/>
          <path id="Trazado_140409" data-name="Trazado 140409" d="M-353.22,5347.962a15.725,15.725,0,0,1,3-.272,5.477,5.477,0,0,1,3.771,1.052,3.641,3.641,0,0,1,1.122,2.942,3.752,3.752,0,0,1-2.18,3.531v.042c.959.389,1.447,1.277,1.716,2.8a22.8,22.8,0,0,0,.9,3.833h-2.871a18.431,18.431,0,0,1-.71-3.385c-.241-1.758-.689-2.255-1.6-2.255h-.412v5.64h-2.738Zm2.738,6.172h.5a1.951,1.951,0,0,0,1.875-2.2c0-1.21-.478-2.062-1.707-2.1a2.073,2.073,0,0,0-.667.083Z" transform="translate(393.669 -5323.65)" fill="#fff"/>
          <path id="Trazado_140410" data-name="Trazado 140410" d="M-319.767,5361.571a5.57,5.57,0,0,1-2.121.333c-3.614,0-5.34-2.971-5.34-6.983,0-5.331,2.958-7.409,5.7-7.409a4.039,4.039,0,0,1,1.922.368l-.459,2.319a2.736,2.736,0,0,0-1.279-.281c-1.568,0-2.97,1.354-2.97,4.852,0,3.375,1.287,4.694,2.954,4.694a4.823,4.823,0,0,0,1.325-.208Z" transform="translate(376.842 -5323.535)" fill="#fff"/>
          <path id="Trazado_140411" data-name="Trazado 140411" d="M-299,5347.869v14.14h-2.755v-14.14Z" transform="translate(360.354 -5323.766)" fill="#fff"/>
          <path id="Trazado_140412" data-name="Trazado 140412" d="M-279.935,5354.383c0,5.331-1.895,7.485-4.575,7.485-3.2,0-4.464-3.39-4.464-7.271,0-3.863,1.535-7.205,4.666-7.205C-280.9,5347.393-279.935,5351.143-279.935,5354.383Zm-6.176.248c0,3.207.595,4.848,1.71,4.848,1.165,0,1.6-2.1,1.6-4.963,0-2.5-.38-4.733-1.623-4.733C-285.516,5349.782-286.111,5351.6-286.111,5354.63Z" transform="translate(352.078 -5323.458)" fill="#fff"/>
          <path id="Trazado_140413" data-name="Trazado 140413" d="M-250.3,5347.869h2.755v9.629c0,4.075-1.969,4.679-3.971,4.679a4.2,4.2,0,0,1-1.385-.2l.233-2.314a3.1,3.1,0,0,0,.891.112c.8,0,1.477-.33,1.477-2.148Z" transform="translate(328.726 -5323.766)" fill="#fff"/>
          <path id="Trazado_140414" data-name="Trazado 140414" d="M-228.8,5347.869v9.187c0,2.076.61,2.714,1.344,2.714.786,0,1.357-.57,1.357-2.714v-9.187h2.755v8.7c0,3.644-1.379,5.606-4.1,5.606-2.956,0-4.107-2.044-4.107-5.577v-8.73Z" transform="translate(314.906 -5323.766)" fill="#fff"/>
          <path id="Trazado_140415" data-name="Trazado 140415" d="M-203.208,5358.959a5.24,5.24,0,0,0,2.326.555c1.3,0,1.944-.675,1.944-1.605,0-1.01-.641-1.527-1.839-2.293-1.932-1.187-2.664-2.668-2.664-3.952,0-2.271,1.506-4.151,4.468-4.151a4.789,4.789,0,0,1,2.222.508l-.439,2.364a3.376,3.376,0,0,0-1.8-.482c-1.18,0-1.744.713-1.744,1.461,0,.848.427,1.3,1.946,2.211a4.58,4.58,0,0,1,2.557,4.041c0,2.6-1.909,4.29-4.666,4.29a6.1,6.1,0,0,1-2.711-.569Z" transform="translate(296.812 -5323.535)" fill="#fff"/>
          <path id="Trazado_140416" data-name="Trazado 140416" d="M-178.4,5350.415h-2.494v-2.546h7.761v2.546h-2.511v11.593H-178.4Z" transform="translate(282.107 -5323.766)" fill="#fff"/>
          <path id="Trazado_140417" data-name="Trazado 140417" d="M-148.455,5354.383c0,5.331-1.895,7.485-4.575,7.485-3.2,0-4.465-3.39-4.465-7.271,0-3.863,1.535-7.205,4.667-7.205C-149.419,5347.393-148.455,5351.143-148.455,5354.383Zm-6.176.248c0,3.207.6,4.848,1.711,4.848,1.165,0,1.6-2.1,1.6-4.963,0-2.5-.38-4.733-1.623-4.733C-154.035,5349.782-154.631,5351.6-154.631,5354.63Z" transform="translate(266.961 -5323.458)" fill="#fff"/>
        </g>
      </g>
    </g>
  </g>
</svg>
