<svg id="Grupo_63083" data-name="Grupo 63083" xmlns="http://www.w3.org/2000/svg" width="202.138" height="202.141" viewBox="0 0 202.138 202.141">
  <rect id="Rectángulo_19000" data-name="Rectángulo 19000" width="169" height="139" transform="translate(20 47.707)" fill="#fff"/>
  <g id="Grupo_63072" data-name="Grupo 63072" transform="translate(0)">
    <path id="Trazado_140116" data-name="Trazado 140116" d="M367.726,4338.1c-12.323.017-22.385-9.82-22.17-21.887.244-13.691,10.6-22.123,22.058-22.034,12.416.1,21.835,9.124,21.952,21.76A21.514,21.514,0,0,1,367.726,4338.1Zm1.091-21.732H368.8c0,3.417-.011,6.833,0,10.25.02,5.009,1,5.572,5.56,3.161,2.135-1.129,4.057-2.389,4.027-5.262-.061-5.654-.027-11.31-.014-16.964a4.181,4.181,0,0,0-2.11-3.834,23.868,23.868,0,0,0-4.085-2.065c-2.388-.853-3.285-.231-3.342,2.345C368.75,4308.121,368.816,4312.246,368.816,4316.369Zm-10.657-2.39v-.067c-1.062,0-2.125,0-3.187,0-1.747.009-2.544.894-2.586,2.637-.055,2.276.558,3.489,2.416,3.62a47.84,47.84,0,0,0,7.421-.045,2.854,2.854,0,0,0,2.728-3.125,2.955,2.955,0,0,0-2.9-2.99A31.476,31.476,0,0,0,358.159,4313.979Zm2.984-11.2c-1.834.134-3.152,1.5-4.453,2.831-.876.9-2.374,1.811-1.975,3.085.478,1.527,2.223.724,3.407.8a16.373,16.373,0,0,0,4.174-.214,3.1,3.1,0,0,0,2.64-3.853A3.408,3.408,0,0,0,361.143,4302.782Zm-1.058,21.864c-1.251,0-1.724-.031-2.191.008-.677.055-1.552-.169-1.883.609-.412.97.469,1.5,1.058,2a15.355,15.355,0,0,0,5.092,3.108c1.694.563,2.782-.265,2.789-2.033a3.2,3.2,0,0,0-2.5-3.409A12.2,12.2,0,0,0,360.085,4324.646Z" transform="translate(-237.478 -4187.725)" fill="#e54726"/>
    <path id="Trazado_140126" data-name="Trazado 140126" d="M237.275,3993.714q-95.656,0-191.311,0c-5.44,0-5.447.013-5.447,5.552q0,95.479,0,190.957c0,5.621.009,5.627,5.73,5.628q47.651,0,95.3,0,47.828,0,95.656,0c5.437,0,5.448-.013,5.448-5.553q0-95.656,0-191.311C242.651,3993.735,242.633,3993.715,237.275,3993.714ZM85.812,4163.6c-1.519.115-2.469-.731-2.893-2.3-.411-1.519-.014-2.132,1.625-2.363a8.264,8.264,0,0,1,1.754-.042c1.234.094,2.786-.214,2.868,1.722C89.24,4162.36,87.863,4163.589,85.812,4163.6Zm4.311-12.857c0,.825-.013,1.653-.081,2.474a2.044,2.044,0,0,1-2.028,2.047c-.469.046-.941.064-1.412.083-4.414.168-4.834-.214-4.84-4.69q-.022-17.875,0-35.752,0-17.7,0-35.4a31.563,31.563,0,0,1,.14-3.177,1.715,1.715,0,0,1,1.61-1.611,17.174,17.174,0,0,1,1.762-.126c4.507-.15,4.848.152,4.849,4.646Q90.136,4114.994,90.123,4150.747Zm89.722,14.085a7.372,7.372,0,0,1-6.947,6.012c-.822.064-1.652.043-2.478.043q-28.507,0-57.014,0c-.708,0-1.418.013-2.124-.022-5.045-.253-7.616-2.769-7.665-7.783-.08-8.145-.03-16.289-.033-24.435q0-7.614,0-15.228,0-18.591,0-37.182c0-1.062-.019-2.126.018-3.187.17-4.883,2.809-7.587,7.748-7.77,3.183-.117,6.374,0,9.56-.059,3.109-.058,3.166-.083,3.984-3.222.333-1.278.877-2.2,2.231-2.388,1.793-.245,2.491-1.019,1.816-2.878-.522-1.435.454-1.923,1.681-1.967,1.651-.06,3.3-.056,4.956-.057,5.548,0,11.1-.031,16.644.021,2.362.022,2.441.109,2.19,2.561-.12,1.168.182,1.914,1.3,2.076a3.307,3.307,0,0,1,3.235,3.492c.084,1.81,1.385,2.321,2.955,2.336,3.069.031,6.145.172,9.205.018,6.87-.345,9.883,4.625,8.88,11.724a1.652,1.652,0,0,1-1.986,1.543c-1.431-.135-2.91-.327-3.36-2.032-.208-.788-.142-1.645-.282-2.456-.372-2.149-1.032-2.892-3.257-3-3.062-.149-6.135-.061-9.2-.058a2.924,2.924,0,0,0-3.087,1.886c-.7,1.85-2.222,2.267-4,2.266q-13.1-.01-26.205.011c-1.782,0-3.285-.333-3.846-2.344a2.513,2.513,0,0,0-2.729-1.8c-3.3-.02-6.61-.039-9.913.02a2.661,2.661,0,0,0-2.838,2.929q-.043,1.415-.043,2.832,0,36.3,0,72.6c0,5.788.109,5.9,5.983,5.9q26.382.008,52.764,0c.59,0,1.181.01,1.771-.007,3.836-.109,4.511-.765,4.682-4.561.027-.589-.011-1.183.04-1.77a3.584,3.584,0,0,1,4.48-3.129,1.594,1.594,0,0,1,1.08,1.653A31.2,31.2,0,0,1,179.845,4164.832Zm-44.506-51.5q-7.932.034-15.864-.025c-.8-.007-1.8-.174-1.726-1.3.073-1.071,1.064-1.164,1.87-1.177,2.7-.045,5.405-.017,8.108-.017v-.025c2.468,0,4.937-.035,7.4.019.9.02,2.085-.014,2.054,1.331C137.16,4113.2,136.157,4113.328,135.339,4113.331Zm-.845,10.7c-2.7.054-5.4.024-8.1.024v.019c-2.465,0-4.929.021-7.393-.013-.61-.008-1.245-.313-1.233-.994s.643-.972,1.257-.979q6.691-.084,13.384-.106a13.779,13.779,0,0,1,2.1.136c.452.068.953.244,1.029.8C135.65,4123.684,135.066,4124.015,134.494,4124.026Zm-16.28,9.2a3.856,3.856,0,0,1,2.379-.458q7.226-.017,14.453,0c.118,0,.236,0,.352.01,1.17.1,2.709.071,2.684,1.6-.026,1.547-1.6.986-2.525,1.019-2.464.087-4.934.029-7.4.029s-4.936.02-7.4-.015a11.145,11.145,0,0,1-2.432-.287.869.869,0,0,1-.671-1.073A1.617,1.617,0,0,1,118.214,4133.227Zm-.578,11.866c.08-.654.678-.913,1.292-.981a15.651,15.651,0,0,1,1.757-.1q10.223-.008,20.447,0c1.647,0,3.283.09,4.353,2.629H134.42c-4.231,0-8.461.007-12.692-.01a20.423,20.423,0,0,1-2.809-.161C118.187,4146.365,117.529,4145.958,117.636,4145.093Zm22.314-42.965c-3.168.088-6.339.029-9.509.029v.015c-3.17,0-6.34.008-9.51,0a14.079,14.079,0,0,1-2.1-.132c-.586-.091-1.165-.345-1.141-1.087.023-.7.576-1.014,1.147-1.152a9.1,9.1,0,0,1,2.085-.262c6.34-.016,12.68-.031,19.019.024,1.1.009,2.918-.251,3,1.062C143.047,4102.383,141.141,4102.095,139.95,4102.128Zm76.664,66.472a3.206,3.206,0,0,1-4.219-.029,21.446,21.446,0,0,1-2.331-2.162q-9.516-9.5-19.018-19.013c-3.145-3.144-3.135-3.118-7.023-1.119-9.318,4.792-18.7,4.931-27.657-.577-8.62-5.3-13.34-13.127-13.132-23.908-.764-12.389,9.308-25.5,25.025-27.214,12.994-1.417,26.078,7.891,29.21,21.147a28,28,0,0,1-2.831,20.2c-1.834,3.426-1.892,3.413.91,6.222q9.747,9.771,19.51,19.523a9.064,9.064,0,0,1,2.26,2.692A3.537,3.537,0,0,1,216.614,4168.6Z" transform="translate(-40.516 -3993.712)" fill="#e54726"/>
    <g id="Grupo_63038" data-name="Grupo 63038" transform="translate(9.874 20.244)">
      <g id="Grupo_63037" data-name="Grupo 63037">
        <path id="Trazado_140209" data-name="Trazado 140209" d="M68.384,4091.8V4086.3l4.018-5.141c5.243-6.673,9.52-12.221,9.52-17.989,0-3.264-1.808-5.529-5.166-5.529a11.606,11.606,0,0,0-6.069,2.021l-1.437-6.3a17.55,17.55,0,0,1,8.986-2.518c8.849,0,11.725,5.926,11.725,11.72,0,7.592-4.759,13.647-9.4,19.057l-2.421,2.858v.125H90.5v7.187Z" transform="translate(-68.384 -4050.851)" fill="#fff"/>
      </g>
    </g>
    <g id="Grupo_63040" data-name="Grupo 63040" transform="translate(37.176 19.972)">
      <g id="Grupo_63039" data-name="Grupo 63039">
        <path id="Trazado_140210" data-name="Trazado 140210" d="M147.949,4053h-2.506v-2.559h7.8V4053h-2.523v11.648h-2.768Z" transform="translate(-145.443 -4050.312)" fill="#fff"/>
        <path id="Trazado_140211" data-name="Trazado 140211" d="M171.582,4050.534a15.829,15.829,0,0,1,3.015-.273,5.5,5.5,0,0,1,3.788,1.057,3.657,3.657,0,0,1,1.127,2.956,3.771,3.771,0,0,1-2.19,3.548v.042c.963.39,1.454,1.283,1.724,2.816a22.914,22.914,0,0,0,.908,3.852h-2.884a18.522,18.522,0,0,1-.714-3.4c-.242-1.767-.693-2.265-1.61-2.265h-.414v5.666h-2.751Zm2.751,6.2h.5a1.96,1.96,0,0,0,1.884-2.21c0-1.216-.481-2.072-1.716-2.1a2.05,2.05,0,0,0-.67.084Z" transform="translate(-162.321 -4050.198)" fill="#fff"/>
        <path id="Trazado_140212" data-name="Trazado 140212" d="M199.983,4061.4l-.623,3.245H196.68l3.086-14.207h3.308l2.762,14.207h-2.69l-.606-3.245Zm2.312-2.143-.474-2.974c-.137-.864-.326-2.291-.466-3.23H201.3c-.152.943-.363,2.413-.512,3.234l-.519,2.97Z" transform="translate(-178.527 -4050.312)" fill="#fff"/>
        <path id="Trazado_140213" data-name="Trazado 140213" d="M226.911,4064.646v-14.207h2.535l2.185,5.574c.43,1.093,1.122,2.912,1.521,4.141h.042c-.1-1.484-.281-3.965-.281-6.574v-3.14h2.427v14.207H232.8l-2.154-5.4a39.834,39.834,0,0,1-1.452-4.267h-.042c.081,1.428.181,3.619.181,6.478v3.194Z" transform="translate(-198.047 -4050.312)" fill="#fff"/>
        <path id="Trazado_140214" data-name="Trazado 140214" d="M255.976,4061.584a5.275,5.275,0,0,0,2.337.556c1.3,0,1.953-.677,1.953-1.612,0-1.014-.644-1.535-1.847-2.3-1.941-1.192-2.677-2.68-2.677-3.971,0-2.281,1.513-4.171,4.49-4.171a4.814,4.814,0,0,1,2.233.51l-.442,2.376a3.378,3.378,0,0,0-1.806-.486c-1.185,0-1.752.717-1.752,1.468,0,.852.428,1.3,1.955,2.221a4.6,4.6,0,0,1,2.569,4.06c0,2.611-1.918,4.31-4.688,4.31a6.149,6.149,0,0,1-2.724-.571Z" transform="translate(-216.557 -4050.082)" fill="#fff"/>
        <path id="Trazado_140215" data-name="Trazado 140215" d="M281.049,4050.534a14.435,14.435,0,0,1,2.888-.273,5.439,5.439,0,0,1,3.862,1.094,4.109,4.109,0,0,1,1.215,3.112,4.772,4.772,0,0,1-1.2,3.419,4.92,4.92,0,0,1-3.454,1.362c-.188,0-.37,0-.556-.008v5.291h-2.751Zm2.751,6.459a2.665,2.665,0,0,0,.46.03c1.391,0,2.009-.992,2.009-2.319,0-1.236-.5-2.217-1.785-2.217a2.1,2.1,0,0,0-.684.1Z" transform="translate(-233.004 -4050.198)" fill="#fff"/>
        <path id="Trazado_140216" data-name="Trazado 140216" d="M306.06,4061.4l-.623,3.245h-2.681l3.086-14.207h3.308l2.762,14.207h-2.689l-.607-3.245Zm2.312-2.143-.474-2.974c-.137-.864-.326-2.291-.466-3.23h-.051c-.152.943-.363,2.413-.512,3.234l-.52,2.97Z" transform="translate(-247.02 -4050.312)" fill="#fff"/>
        <path id="Trazado_140217" data-name="Trazado 140217" d="M332.987,4050.534a15.827,15.827,0,0,1,3.015-.273,5.5,5.5,0,0,1,3.789,1.057,3.657,3.657,0,0,1,1.127,2.956,3.771,3.771,0,0,1-2.19,3.548v.042c.963.39,1.453,1.283,1.724,2.816a22.881,22.881,0,0,0,.908,3.852h-2.885a18.564,18.564,0,0,1-.713-3.4c-.242-1.767-.693-2.265-1.61-2.265h-.414v5.666h-2.752Zm2.752,6.2h.5a1.96,1.96,0,0,0,1.884-2.21c0-1.216-.481-2.072-1.715-2.1a2.049,2.049,0,0,0-.67.084Z" transform="translate(-266.54 -4050.198)" fill="#fff"/>
        <path id="Trazado_140218" data-name="Trazado 140218" d="M366.953,4058.4h-3.237v3.85h3.652v2.4h-6.42v-14.207h6.179v2.4h-3.411v3.266h3.237Z" transform="translate(-284.595 -4050.312)" fill="#fff"/>
        <path id="Trazado_140219" data-name="Trazado 140219" d="M384.389,4064.646v-14.207h2.535l2.185,5.574c.429,1.093,1.122,2.912,1.52,4.141h.042c-.1-1.484-.28-3.965-.28-6.574v-3.14h2.427v14.207h-2.535l-2.155-5.4a40.01,40.01,0,0,1-1.452-4.267h-.042c.081,1.428.181,3.619.181,6.478v3.194Z" transform="translate(-299.731 -4050.312)" fill="#fff"/>
        <path id="Trazado_140220" data-name="Trazado 140220" d="M420.614,4064.208a5.579,5.579,0,0,1-2.131.334c-3.63,0-5.365-2.984-5.365-7.016,0-5.356,2.972-7.444,5.725-7.444a4.074,4.074,0,0,1,1.931.37l-.461,2.331a2.756,2.756,0,0,0-1.285-.283c-1.575,0-2.984,1.361-2.984,4.875,0,3.391,1.293,4.717,2.968,4.717a4.866,4.866,0,0,0,1.332-.209Z" transform="translate(-318.281 -4050.082)" fill="#fff"/>
        <path id="Trazado_140221" data-name="Trazado 140221" d="M441.355,4050.438v14.207h-2.768v-14.207Z" transform="translate(-334.726 -4050.312)" fill="#fff"/>
        <path id="Trazado_140222" data-name="Trazado 140222" d="M453.661,4061.4l-.623,3.245h-2.681l3.086-14.207h3.308l2.762,14.207h-2.69l-.606-3.245Zm2.312-2.143-.474-2.974c-.137-.864-.326-2.291-.466-3.23h-.051c-.152.943-.363,2.413-.512,3.234l-.519,2.97Z" transform="translate(-342.327 -4050.312)" fill="#fff"/>
        <path id="Trazado_140223" data-name="Trazado 140223" d="M488.159,4064.646v-5.435l-3.124-8.772h2.948l.968,3.385c.268.916.532,1.976.745,3.014h.043c.175-1.022.406-2.056.666-3.078l.835-3.322H494.1l-3.177,8.664v5.543Z" transform="translate(-364.718 -4050.312)" fill="#fff"/>
        <path id="Trazado_140224" data-name="Trazado 140224" d="M148.2,4110.028a15.864,15.864,0,0,1,3.015-.274,5.5,5.5,0,0,1,3.789,1.057,3.659,3.659,0,0,1,1.127,2.956,3.769,3.769,0,0,1-2.19,3.548v.043c.963.391,1.453,1.282,1.724,2.816a22.871,22.871,0,0,0,.909,3.851h-2.885a18.525,18.525,0,0,1-.713-3.4c-.242-1.768-.693-2.266-1.61-2.266h-.414v5.665H148.2Zm2.751,6.2h.5a1.96,1.96,0,0,0,1.884-2.21c0-1.216-.481-2.071-1.715-2.1a2.036,2.036,0,0,0-.67.084Z" transform="translate(-147.224 -4088.612)" fill="#fff"/>
        <path id="Trazado_140225" data-name="Trazado 140225" d="M182.168,4117.894h-3.237v3.85h3.652v2.4h-6.42v-14.206h6.179v2.4h-3.411v3.267h3.237Z" transform="translate(-165.279 -4088.728)" fill="#fff"/>
        <path id="Trazado_140226" data-name="Trazado 140226" d="M197.97,4121.078a5.268,5.268,0,0,0,2.337.556c1.3,0,1.954-.677,1.954-1.611,0-1.016-.644-1.536-1.847-2.3-1.941-1.192-2.677-2.68-2.677-3.971,0-2.282,1.513-4.172,4.49-4.172a4.8,4.8,0,0,1,2.233.511l-.441,2.376a3.388,3.388,0,0,0-1.806-.485c-1.185,0-1.752.716-1.752,1.468,0,.852.429,1.3,1.955,2.221a4.6,4.6,0,0,1,2.569,4.061c0,2.61-1.918,4.31-4.688,4.31a6.142,6.142,0,0,1-2.724-.571Z" transform="translate(-179.102 -4088.496)" fill="#fff"/>
        <path id="Trazado_140227" data-name="Trazado 140227" d="M223.044,4110.028a14.429,14.429,0,0,1,2.888-.274,5.441,5.441,0,0,1,3.862,1.1,4.108,4.108,0,0,1,1.214,3.111,4.773,4.773,0,0,1-1.2,3.419,4.919,4.919,0,0,1-3.455,1.363c-.187,0-.37,0-.556-.009v5.29h-2.751Zm2.751,6.459a2.567,2.567,0,0,0,.459.03c1.392,0,2.009-.992,2.009-2.319,0-1.236-.5-2.217-1.785-2.217a2.077,2.077,0,0,0-.684.1Z" transform="translate(-195.55 -4088.612)" fill="#fff"/>
        <path id="Trazado_140228" data-name="Trazado 140228" d="M257.345,4116.479c0,5.357-1.9,7.522-4.6,7.522-3.213,0-4.485-3.406-4.485-7.305,0-3.882,1.542-7.239,4.688-7.239C256.377,4109.456,257.345,4113.224,257.345,4116.479Zm-6.205.25c0,3.223.6,4.871,1.719,4.871,1.171,0,1.61-2.113,1.61-4.987,0-2.508-.382-4.755-1.631-4.755C251.738,4111.857,251.14,4113.68,251.14,4116.728Z" transform="translate(-211.834 -4088.42)" fill="#fff"/>
        <path id="Trazado_140229" data-name="Trazado 140229" d="M278.848,4124.139v-14.206h2.535l2.185,5.573c.429,1.093,1.122,2.911,1.52,4.141h.042c-.1-1.484-.28-3.965-.28-6.575v-3.14h2.427v14.206h-2.535l-2.154-5.4a39.957,39.957,0,0,1-1.452-4.268h-.042c.081,1.428.181,3.619.181,6.479v3.192Z" transform="translate(-231.583 -4088.728)" fill="#fff"/>
        <path id="Trazado_140230" data-name="Trazado 140230" d="M307.913,4121.078a5.267,5.267,0,0,0,2.337.556c1.3,0,1.953-.677,1.953-1.611,0-1.016-.643-1.536-1.847-2.3-1.941-1.192-2.677-2.68-2.677-3.971,0-2.282,1.513-4.172,4.49-4.172a4.8,4.8,0,0,1,2.233.511l-.441,2.376a3.39,3.39,0,0,0-1.806-.485c-1.185,0-1.752.716-1.752,1.468,0,.852.429,1.3,1.955,2.221a4.6,4.6,0,0,1,2.569,4.061c0,2.61-1.918,4.31-4.688,4.31a6.142,6.142,0,0,1-2.724-.571Z" transform="translate(-250.092 -4088.496)" fill="#fff"/>
        <path id="Trazado_140231" data-name="Trazado 140231" d="M333.307,4120.9l-.623,3.244H330l3.086-14.206H336.4l2.762,14.206h-2.69l-.606-3.244Zm2.312-2.143-.474-2.974c-.137-.863-.326-2.291-.466-3.229h-.051c-.152.943-.363,2.412-.512,3.233l-.519,2.97Z" transform="translate(-264.614 -4088.728)" fill="#fff"/>
        <path id="Trazado_140232" data-name="Trazado 140232" d="M360.235,4110.028a15.311,15.311,0,0,1,3.144-.274,5.361,5.361,0,0,1,3.594,1,3.476,3.476,0,0,1-.98,5.688v.076a3.384,3.384,0,0,1,2.515,3.391,3.9,3.9,0,0,1-1.041,2.792c-.846.921-2.29,1.434-4.667,1.434a17.729,17.729,0,0,1-2.565-.161Zm2.752,5.628h.594a1.834,1.834,0,0,0,1.757-1.993c0-1.043-.491-1.85-1.619-1.85a2.294,2.294,0,0,0-.732.089Zm0,6.3a2.743,2.743,0,0,0,.616.05,1.943,1.943,0,0,0,2.045-2.132,2.015,2.015,0,0,0-2.064-2.172h-.6Z" transform="translate(-284.134 -4088.612)" fill="#fff"/>
        <path id="Trazado_140233" data-name="Trazado 140233" d="M391.738,4109.934v14.206H388.97v-14.206Z" transform="translate(-302.689 -4088.728)" fill="#fff"/>
        <path id="Trazado_140234" data-name="Trazado 140234" d="M403.724,4109.934h2.768V4121.8h3.634v2.341h-6.4Z" transform="translate(-312.215 -4088.728)" fill="#fff"/>
        <path id="Trazado_140235" data-name="Trazado 140235" d="M429.1,4109.934v14.206h-2.768v-14.206Z" transform="translate(-326.813 -4088.728)" fill="#fff"/>
        <path id="Trazado_140236" data-name="Trazado 140236" d="M441.084,4110.028a13.174,13.174,0,0,1,2.806-.274,5.5,5.5,0,0,1,3.948,1.264c1.216,1.1,1.844,2.978,1.844,5.727,0,2.88-.739,4.914-1.971,6.02a6.027,6.027,0,0,1-4.345,1.374,17.838,17.838,0,0,1-2.282-.161Zm2.752,11.8a1.973,1.973,0,0,0,.5.042c1.334,0,2.49-1.3,2.49-5.219,0-2.92-.758-4.691-2.433-4.691a1.71,1.71,0,0,0-.553.068Z" transform="translate(-336.339 -4088.612)" fill="#fff"/>
        <path id="Trazado_140237" data-name="Trazado 140237" d="M469.665,4120.9l-.623,3.244h-2.681l3.086-14.206h3.308l2.762,14.206h-2.689l-.607-3.244Zm2.312-2.143-.474-2.974c-.137-.863-.326-2.291-.466-3.229h-.051c-.152.943-.363,2.412-.512,3.233l-.52,2.97Z" transform="translate(-352.66 -4088.728)" fill="#fff"/>
        <path id="Trazado_140238" data-name="Trazado 140238" d="M496.592,4110.028a13.172,13.172,0,0,1,2.806-.274,5.5,5.5,0,0,1,3.948,1.264c1.216,1.1,1.844,2.978,1.844,5.727,0,2.88-.739,4.914-1.971,6.02a6.028,6.028,0,0,1-4.345,1.374,17.834,17.834,0,0,1-2.282-.161Zm2.751,11.8a1.976,1.976,0,0,0,.5.042c1.334,0,2.49-1.3,2.49-5.219,0-2.92-.759-4.691-2.433-4.691a1.713,1.713,0,0,0-.553.068Z" transform="translate(-372.18 -4088.612)" fill="#fff"/>
      </g>
    </g>
  </g>
</svg>
