<svg xmlns="http://www.w3.org/2000/svg" width="201.144" height="201.338" viewBox="0 0 201.144 201.338">
  <g id="Grupo_63088" data-name="Grupo 63088" transform="translate(-422 -4940.068)">
    <rect id="Rectángulo_19010" data-name="Rectángulo 19010" width="170" height="132" transform="translate(439 5000)" fill="#fff"/>
    <g id="Grupo_63081" data-name="Grupo 63081" transform="translate(422 4940.068)">
      <path id="Trazado_140122" data-name="Trazado 140122" d="M832.995,4922.548c.577,12.843-10.886,27.27-27.465,27.069a27.477,27.477,0,0,1-27.043-27.627c.093-16.333,14.507-27.172,27.632-27.045C820.6,4895.086,833.681,4907.584,832.995,4922.548Z" transform="translate(-738.901 -4797.596)" fill="#d18b00"/>
      <path id="Trazado_140123" data-name="Trazado 140123" d="M1057.014,4997.984c9.944.685,16.992,7.24,16.9,17.241-.086,9.592-6.825,16.8-17.19,16.859a16.733,16.733,0,0,1-16.671-17.31C1040.348,5005.18,1047.724,4998.316,1057.014,4997.984Z" transform="translate(-908.23 -4864.301)" fill="#d18b00"/>
      <path id="Trazado_140268" data-name="Trazado 140268" d="M867.324,4621.643c-.189-2.443-.616-2.8-3.025-2.767-3.993.06-7.987.148-11.98.15q-42.478.019-84.956.007-47.589,0-95.178,0c-5.953,0-5.957.006-5.957,6.051q0,94.65,0,189.3c0,5.82,0,5.826,5.829,5.826q94.65,0,189.3,0c6,0,6.009-.007,6.009-6.095q0-94.827,0-189.652C867.361,4623.522,867.4,4622.578,867.324,4621.643Zm-34.432,75.273c-.057,6.943-3.531,12.531-7.347,17.926-3.782,5.348-8.889,9.32-14.138,13.12-1.618,1.171-3.064,1.36-4.794.1-7.188-5.238-13.619-11.16-17.988-19.054a26.052,26.052,0,0,1-3.731-11.989c-.125-4.752,1.561-8.555,6.065-10.606a11.633,11.633,0,0,1,13.156,1.76,35.218,35.218,0,0,1,2.957,3.017c1.932,2.071,1.9,2.061,3.892-.213a27.046,27.046,0,0,1,2.942-3.026,12.11,12.11,0,0,1,16.329.866C832.547,4691.111,833.042,4693.863,832.892,4696.916ZM774.516,4771.9a2.974,2.974,0,0,1-4.123,1.479c-1.863-.714-3.775-1.306-5.684-1.891a6.388,6.388,0,0,0-8.024,6.542c.189,1.862.681,3.693,1,5.545a5.027,5.027,0,0,1-4.868,5.864,2.642,2.642,0,0,1-2.058-1.174c-1.328-1.489-2.613-3.021-4-4.453-3.768-3.887-9.117-2.617-10.938,2.565-.545,1.552-1.008,3.136-1.625,4.657-.9,2.225-1.7,2.477-4.837,2.39a3.1,3.1,0,0,1-3.372-2.844c-.411-2.073-.829-4.15-1.382-6.188-1.079-3.977-6.762-5.691-9.871-3.029-1.516,1.3-3.013,2.619-4.562,3.876-2.153,1.748-2.17,1.727-4.57.19q-.3-.19-.587-.391c-2.334-1.621-2.382-1.693-1.584-4.313.582-1.91,1.184-3.818,1.876-5.689.68-1.839.559-3.421-.98-4.8a10.69,10.69,0,0,1-1.622-1.852,3.2,3.2,0,0,0-3.657-1.394c-2.3.487-4.646.736-6.929,1.271-2.095.491-3.021-.62-3.788-2.246-.752-1.594-1.861-3.136,0-4.733q2.4-2.065,4.753-4.192a6.4,6.4,0,0,0-1.921-10.575c-1.755-.67-3.572-1.18-5.32-1.867-2.362-.927-2.731-1.691-2.534-4.716.163-2.518.527-3,3.005-3.588,1.827-.436,3.689-.726,5.516-1.165a6.346,6.346,0,0,0,3.5-9.908c-1.316-1.653-2.754-3.209-4.071-4.861-1.467-1.838-1.418-2.325.153-4.682,1.6-2.4,2.005-2.642,4.225-2,2.142.622,4.263,1.329,6.358,2.1a3.655,3.655,0,0,0,4.46-.946,19.472,19.472,0,0,1,2.041-1.944,3.542,3.542,0,0,0,1.218-3.781c-.481-2.178-.78-4.4-1.294-6.567-.425-1.795.191-2.858,1.784-3.7,2.655-1.4,3.522-1.569,5.086-.084,1.614,1.534,3.081,3.226,4.583,4.875,2.58,2.835,8.492,2,10.074-1.5.723-1.6,1.2-3.311,1.789-4.971,1.227-3.45,1.883-3.995,4.553-3.778,2.77.223,3.5.956,4.239,4.2.39,1.719.737,3.451,1.218,5.143,1.13,3.981,6.769,5.6,9.909,2.889,1.6-1.38,3.186-2.781,4.842-4.091,1.772-1.4,2.157-1.318,4.658.34,1.427.947,2.748,1.84,1.96,3.938s-1.452,4.223-2.088,6.361c-1.092,3.67,2.349,8.045,6.542,7.837,1.794-.342,3.976-.82,6.18-1.159,2.533-.387,3.143.012,4.374,2.492,1.242,2.5,1.207,3.1-.707,4.949-1.434,1.384-2.965,2.674-4.51,3.935s-1.839,2.684-1.529,4.668c.5,3.221,1.749,5.426,5.175,6.127a42.825,42.825,0,0,1,4.64,1.658c1.778.586,2.276,1.856,2.119,3.566-.165,1.785-.251,3.623-2.469,4.164-2.053.5-4.122.938-6.179,1.426a6.448,6.448,0,0,0-3.608,10.162c1.3,1.664,2.716,3.238,4.11,4.825C776.854,4768.806,775.477,4770.274,774.516,4771.9Zm74.778,7.767c-.885,2.869-1.352,3.191-4.249,2.915a4.427,4.427,0,0,1-1.042-.167c-5.3-1.854-8.3,1.3-11.065,5.028a3.364,3.364,0,0,0-.382,3.332c.676,2,1.251,4.047,2.043,6,.709,1.75.282,2.809-1.336,3.762-3.406,2.006-3.977,1.982-6.493-.986-.152-.18-.3-.364-.444-.547-4.906-6.122-3.123-4.3-10.709-4.1a3.3,3.3,0,0,0-2.984,2.123c-.872,1.8-1.727,3.605-2.689,5.353-1.292,2.347-2.12,2.553-5.309,1.551-2.47-.776-2.685-1.116-2.4-3.831.037-.35.1-.7.16-1.045.783-4.4.507-8.211-4.261-10.572-1.683-.833-2.979-1.622-4.839-.9-1.749.681-3.57,1.175-5.339,1.807s-2.863.019-3.756-1.562c-1.461-2.588-1.667-3.645-.23-5.078a59.684,59.684,0,0,1,4.551-3.882c1.4-1.141,1.564-2.517,1.649-4.312.24-5.033-2.061-7.895-6.644-9.347a11.21,11.21,0,0,1-2.188-1.13,2.263,2.263,0,0,1-1.093-1.319c-.841-2.826,1.71-6.063,4.57-5.784a2.985,2.985,0,0,1,.695.111c5.393,1.878,8.588-1.061,11.326-5.1a3.9,3.9,0,0,0,.383-3.683c-.6-1.783-1.1-3.6-1.8-5.342-.765-1.909-.232-3.157,1.576-4a11.838,11.838,0,0,0,1.51-.906,2.375,2.375,0,0,1,3.648.634c1.2,1.595,2.509,3.106,3.707,4.7a3.8,3.8,0,0,0,3.99,1.513c6.619-.9,6.626-.854,9.852-7.056,1.559-3,4.612-3.632,7.17-1.5,1.062.885.894,2.088.9,3.338-.036.383-.072.852-.125,1.318-.712,6.16.225,7.922,5.679,10.909a3.587,3.587,0,0,0,3.049.183c1.781-.6,3.539-1.267,5.327-1.841,2.528-.809,3.1-.465,4.781,2.678,1.253,2.346,1.2,2.619-.94,4.406a28.825,28.825,0,0,1-3.3,2.638c-2.206,1.345-2.809,3.1-2.393,5.643.929,5.685.823,5.7,6.029,8.273.421.208.842.416,1.261.629C850.343,4776.152,850.364,4776.2,849.295,4779.665Zm7.553-130.707v-3.781A5.246,5.246,0,0,1,856.848,4648.958Z" transform="translate(-666.226 -4618.874)" fill="#d18b00"/>
      <g id="Grupo_63052" data-name="Grupo 63052" transform="translate(11.229 15.194)">
        <g id="Grupo_63051" data-name="Grupo 63051">
          <path id="Trazado_140341" data-name="Trazado 140341" d="M720.011,4661.961v5.319l-12.668,34.939h-7.89l12.336-32.981v-.124H698.07v-7.153Z" transform="translate(-698.07 -4661.961)" fill="#fff"/>
        </g>
      </g>
      <g id="Grupo_63053" data-name="Grupo 63053" transform="translate(42.508 16.835)">
        <path id="Trazado_140342" data-name="Trazado 140342" d="M786.773,4667.187a14.041,14.041,0,0,1,3-.273,4.984,4.984,0,0,1,3.435,1,3.343,3.343,0,0,1,1.028,2.577,3.3,3.3,0,0,1-1.965,3.085v.075a3.353,3.353,0,0,1,2.4,3.374,3.967,3.967,0,0,1-.994,2.778c-.809.919-2.188,1.428-4.46,1.428a16.373,16.373,0,0,1-2.452-.159Zm2.63,5.6h.568a1.8,1.8,0,0,0,1.68-1.984c0-1.038-.47-1.84-1.547-1.84a2.076,2.076,0,0,0-.7.089Zm0,6.274a2.507,2.507,0,0,0,.589.051,1.9,1.9,0,0,0,1.954-2.123,1.968,1.968,0,0,0-1.972-2.161H789.4Z" transform="translate(-786.773 -4666.808)" fill="#fff"/>
        <path id="Trazado_140343" data-name="Trazado 140343" d="M816.84,4667.093v9.187c0,2.075.586,2.714,1.29,2.714.755,0,1.3-.57,1.3-2.714v-9.187h2.646v8.7c0,3.642-1.325,5.605-3.942,5.605-2.838,0-3.943-2.045-3.943-5.578v-8.729Z" transform="translate(-804.525 -4666.925)" fill="#fff"/>
        <path id="Trazado_140344" data-name="Trazado 140344" d="M848.72,4675.015h-3.094v3.832h3.49v2.385h-6.136v-14.139h5.906v2.385h-3.26v3.251h3.094Z" transform="translate(-823.161 -4666.925)" fill="#fff"/>
        <path id="Trazado_140345" data-name="Trazado 140345" d="M865.487,4681.231v-14.139h2.423l2.088,5.546c.411,1.089,1.072,2.9,1.453,4.123h.041c-.094-1.479-.268-3.947-.268-6.545v-3.124h2.319v14.139H871.12l-2.059-5.378a40.841,40.841,0,0,1-1.387-4.246h-.04c.078,1.42.172,3.6.172,6.445v3.179Z" transform="translate(-837.731 -4666.925)" fill="#fff"/>
        <path id="Trazado_140346" data-name="Trazado 140346" d="M895.256,4678l-.6,3.229H892.1l2.949-14.139h3.161l2.639,14.139h-2.57L897.7,4678Zm2.209-2.133-.453-2.96c-.13-.86-.312-2.28-.445-3.215h-.049c-.145.939-.347,2.4-.489,3.219l-.5,2.956Z" transform="translate(-854.958 -4666.925)" fill="#fff"/>
        <path id="Trazado_140347" data-name="Trazado 140347" d="M919.555,4678.182a4.879,4.879,0,0,0,2.234.554c1.245,0,1.867-.674,1.867-1.6,0-1.011-.615-1.528-1.765-2.294a4.8,4.8,0,0,1-2.559-3.952,3.961,3.961,0,0,1,4.291-4.152,4.463,4.463,0,0,1,2.134.507l-.422,2.365a3.139,3.139,0,0,0-1.726-.482,1.49,1.49,0,0,0-1.675,1.46c0,.848.41,1.3,1.869,2.211a4.608,4.608,0,0,1,2.455,4.041,4.154,4.154,0,0,1-4.48,4.289,5.678,5.678,0,0,1-2.6-.568Z" transform="translate(-872.486 -4666.692)" fill="#fff"/>
        <path id="Trazado_140348" data-name="Trazado 140348" d="M957.986,4680.793a5.133,5.133,0,0,1-2.037.333c-3.47,0-5.127-2.971-5.127-6.983,0-5.331,2.84-7.409,5.472-7.409a3.761,3.761,0,0,1,1.846.369l-.441,2.32a2.545,2.545,0,0,0-1.228-.282c-1.505,0-2.851,1.354-2.851,4.852,0,3.375,1.236,4.695,2.837,4.695a4.478,4.478,0,0,0,1.272-.208Z" transform="translate(-892.975 -4666.692)" fill="#fff"/>
        <path id="Trazado_140349" data-name="Trazado 140349" d="M981.38,4673.6c0,5.333-1.82,7.486-4.393,7.486-3.071,0-4.287-3.39-4.287-7.271,0-3.863,1.474-7.2,4.481-7.2C980.454,4666.615,981.38,4670.365,981.38,4673.6Zm-5.93.249c0,3.206.572,4.847,1.643,4.847,1.119,0,1.539-2.1,1.539-4.963,0-2.5-.365-4.732-1.559-4.732C976.021,4669.005,975.449,4670.819,975.449,4673.854Z" transform="translate(-907.138 -4666.615)" fill="#fff"/>
        <path id="Trazado_140350" data-name="Trazado 140350" d="M1002.066,4681.231v-14.139h2.423l2.088,5.546c.411,1.089,1.072,2.9,1.453,4.123h.041c-.094-1.479-.268-3.947-.268-6.545v-3.124h2.319v14.139H1007.7l-2.059-5.378a40.855,40.855,0,0,1-1.387-4.246h-.04c.078,1.42.173,3.6.173,6.445v3.179Z" transform="translate(-926.148 -4666.925)" fill="#fff"/>
        <path id="Trazado_140351" data-name="Trazado 140351" d="M1031.541,4667.187a12.059,12.059,0,0,1,2.682-.273,5.125,5.125,0,0,1,3.774,1.258c1.162,1.093,1.762,2.963,1.762,5.7,0,2.866-.706,4.89-1.884,5.992a5.611,5.611,0,0,1-4.153,1.367,16.337,16.337,0,0,1-2.181-.159Zm2.63,11.747a1.8,1.8,0,0,0,.474.042c1.275,0,2.38-1.3,2.38-5.194,0-2.907-.725-4.669-2.326-4.669a1.578,1.578,0,0,0-.528.067Z" transform="translate(-945.23 -4666.808)" fill="#fff"/>
        <path id="Trazado_140352" data-name="Trazado 140352" d="M1062.235,4667.093v14.139h-2.646v-14.139Z" transform="translate(-963.388 -4666.925)" fill="#fff"/>
        <path id="Trazado_140353" data-name="Trazado 140353" d="M1079.028,4680.793a5.134,5.134,0,0,1-2.037.333c-3.47,0-5.127-2.971-5.127-6.983,0-5.331,2.84-7.409,5.472-7.409a3.76,3.76,0,0,1,1.846.369l-.441,2.32a2.544,2.544,0,0,0-1.228-.282c-1.505,0-2.851,1.354-2.851,4.852,0,3.375,1.236,4.695,2.837,4.695a4.478,4.478,0,0,0,1.272-.208Z" transform="translate(-971.334 -4666.692)" fill="#fff"/>
        <path id="Trazado_140354" data-name="Trazado 140354" d="M1098.963,4667.093v14.139h-2.646v-14.139Z" transform="translate(-987.165 -4666.925)" fill="#fff"/>
        <path id="Trazado_140355" data-name="Trazado 140355" d="M1117.272,4673.6c0,5.333-1.819,7.486-4.393,7.486-3.071,0-4.287-3.39-4.287-7.271,0-3.863,1.474-7.2,4.481-7.2C1116.346,4666.615,1117.272,4670.365,1117.272,4673.6Zm-5.93.249c0,3.206.572,4.847,1.642,4.847,1.119,0,1.538-2.1,1.538-4.963,0-2.5-.365-4.732-1.558-4.732C1111.913,4669.005,1111.342,4670.819,1111.342,4673.854Z" transform="translate(-995.111 -4666.615)" fill="#fff"/>
        <path id="Trazado_140356" data-name="Trazado 140356" d="M1137.958,4681.231v-14.139h2.423l2.089,5.546c.411,1.089,1.072,2.9,1.453,4.123h.04c-.093-1.479-.268-3.947-.268-6.545v-3.124h2.319v14.139h-2.423l-2.059-5.378a40.856,40.856,0,0,1-1.387-4.246h-.04c.078,1.42.172,3.6.172,6.445v3.179Z" transform="translate(-1014.122 -4666.925)" fill="#fff"/>
        <path id="Trazado_140357" data-name="Trazado 140357" d="M1173.173,4675.015h-3.093v3.832h3.49v2.385h-6.136v-14.139h5.905v2.385h-3.259v3.251h3.093Z" transform="translate(-1033.204 -4666.925)" fill="#fff"/>
        <path id="Trazado_140358" data-name="Trazado 140358" d="M1188.37,4678.182a4.879,4.879,0,0,0,2.234.554c1.245,0,1.867-.674,1.867-1.6,0-1.011-.615-1.528-1.765-2.294a4.8,4.8,0,0,1-2.558-3.952,3.961,3.961,0,0,1,4.29-4.152,4.462,4.462,0,0,1,2.134.507l-.422,2.365a3.138,3.138,0,0,0-1.726-.482,1.49,1.49,0,0,0-1.674,1.46c0,.848.41,1.3,1.868,2.211a4.607,4.607,0,0,1,2.455,4.041,4.154,4.154,0,0,1-4.48,4.289,5.68,5.68,0,0,1-2.6-.568Z" transform="translate(-1046.51 -4666.692)" fill="#fff"/>
        <path id="Trazado_140359" data-name="Trazado 140359" d="M786.773,4726.68a12.067,12.067,0,0,1,2.682-.272,5.12,5.12,0,0,1,3.773,1.258c1.162,1.092,1.762,2.962,1.762,5.7,0,2.865-.706,4.89-1.884,5.991a5.611,5.611,0,0,1-4.153,1.367,16.589,16.589,0,0,1-2.181-.159Zm2.63,11.747a1.788,1.788,0,0,0,.474.042c1.275,0,2.38-1.3,2.38-5.194,0-2.906-.725-4.669-2.326-4.669a1.567,1.567,0,0,0-.528.067Z" transform="translate(-786.773 -4705.324)" fill="#fff"/>
        <path id="Trazado_140360" data-name="Trazado 140360" d="M820.559,4734.508h-3.094v3.833h3.49v2.386H814.82v-14.14h5.905v2.386h-3.26v3.25h3.094Z" transform="translate(-804.93 -4705.439)" fill="#fff"/>
        <path id="Trazado_140361" data-name="Trazado 140361" d="M845.528,4729.132h-2.4v-2.546h7.452v2.546h-2.411v11.594h-2.645Z" transform="translate(-823.259 -4705.439)" fill="#fff"/>
        <path id="Trazado_140362" data-name="Trazado 140362" d="M868.23,4726.68a14.521,14.521,0,0,1,2.882-.272,5.1,5.1,0,0,1,3.621,1.052,3.72,3.72,0,0,1,1.077,2.94,3.772,3.772,0,0,1-2.093,3.532v.042c.92.388,1.389,1.276,1.648,2.8a23.569,23.569,0,0,0,.868,3.833h-2.757a19.122,19.122,0,0,1-.682-3.385c-.231-1.758-.662-2.254-1.539-2.254h-.4v5.639h-2.63Zm2.63,6.172h.48c1.148,0,1.8-.973,1.8-2.2,0-1.209-.459-2.061-1.639-2.094a1.892,1.892,0,0,0-.641.083Z" transform="translate(-839.506 -4705.324)" fill="#fff"/>
        <path id="Trazado_140363" data-name="Trazado 140363" d="M895.484,4737.5l-.6,3.229h-2.562l2.949-14.14h3.161l2.64,14.14h-2.57l-.58-3.229Zm2.21-2.132-.453-2.961c-.131-.859-.312-2.279-.446-3.214h-.049c-.145.938-.347,2.4-.489,3.219l-.5,2.956Z" transform="translate(-855.106 -4705.439)" fill="#fff"/>
        <path id="Trazado_140364" data-name="Trazado 140364" d="M921.354,4726.68a14.041,14.041,0,0,1,3-.272,4.984,4.984,0,0,1,3.435,1,3.342,3.342,0,0,1,1.028,2.577,3.3,3.3,0,0,1-1.965,3.085v.075a3.354,3.354,0,0,1,2.4,3.375,3.968,3.968,0,0,1-.994,2.778c-.809.919-2.188,1.428-4.46,1.428a16.3,16.3,0,0,1-2.452-.159Zm2.63,5.6h.567a1.8,1.8,0,0,0,1.68-1.983c0-1.039-.47-1.841-1.547-1.841a2.112,2.112,0,0,0-.7.089Zm0,6.274a2.45,2.45,0,0,0,.589.051,1.9,1.9,0,0,0,1.954-2.123,1.967,1.967,0,0,0-1.972-2.161h-.571Z" transform="translate(-873.898 -4705.324)" fill="#fff"/>
        <path id="Trazado_140365" data-name="Trazado 140365" d="M949.293,4737.5l-.6,3.229h-2.562l2.949-14.14h3.161l2.639,14.14h-2.57l-.579-3.229Zm2.209-2.132-.453-2.961c-.13-.859-.312-2.279-.445-3.214h-.049c-.145.938-.347,2.4-.489,3.219l-.5,2.956Z" transform="translate(-889.941 -4705.439)" fill="#fff"/>
        <path id="Trazado_140366" data-name="Trazado 140366" d="M976.071,4726.586h2.646v9.629c0,4.073-1.89,4.678-3.812,4.678a3.9,3.9,0,0,1-1.33-.2l.224-2.315a2.886,2.886,0,0,0,.856.112c.769,0,1.418-.331,1.418-2.148Z" transform="translate(-907.704 -4705.439)" fill="#fff"/>
        <path id="Trazado_140367" data-name="Trazado 140367" d="M1001.086,4733.1c0,5.332-1.819,7.486-4.393,7.486-3.071,0-4.287-3.391-4.287-7.271,0-3.863,1.474-7.205,4.481-7.205C1000.16,4726.109,1001.086,4729.86,1001.086,4733.1Zm-5.93.248c0,3.207.572,4.848,1.643,4.848,1.119,0,1.538-2.1,1.538-4.964,0-2.5-.365-4.731-1.558-4.731C995.727,4728.5,995.155,4730.313,995.155,4733.347Z" transform="translate(-919.895 -4705.131)" fill="#fff"/>
      </g>
    </g>
  </g>
</svg>
