<svg id="Grupo_63085" data-name="Grupo 63085" xmlns="http://www.w3.org/2000/svg" width="202.6" height="202.09" viewBox="0 0 202.6 202.09">
  <rect id="Rectángulo_19004" data-name="Rectángulo 19004" width="192" height="134" transform="translate(0 50.433)" fill="#fff"/>
  <g id="Grupo_63079" data-name="Grupo 63079" transform="translate(0 0)">
    <path id="Trazado_140115" data-name="Trazado 140115" d="M1657.321,4268.157h-25.113c-.471,0-.943.007-1.415-.007-3.586-.107-3.95-.67-2.292-4q12.469-25,24.994-49.981c.844-1.686,1.632-3.408,2.564-5.044.986-1.73,1.594-1.683,2.665.082.3.5.543,1.046.807,1.573q13.138,26.25,26.27,52.506c2.279,4.561,2.089,4.854-3.015,4.862Q1670.054,4268.172,1657.321,4268.157Zm.125-38.393a9.032,9.032,0,0,0-9.505,9.174,9.4,9.4,0,0,0,18.807-.117C1666.6,4233.43,1662.261,4229.422,1657.446,4229.764Zm-11.6,35.425v-.014c1.533,0,3.066-.015,4.6,0a4.034,4.034,0,0,0,3.89-2.533,9.3,9.3,0,0,0-13.583-11.78,9.585,9.585,0,0,0-3.6,10.946c.849,2.23,2.327,3.476,4.8,3.386C1643.25,4265.15,1644.549,4265.189,1645.846,4265.189Zm22.829-.006v.014c1.3,0,2.6.04,3.892-.008,2.988-.109,4.271-1.095,5.149-3.875a9.376,9.376,0,0,0-14.843-9.985,9.192,9.192,0,0,0-2.738,10.839c.823,1.918,2.089,3.089,4.294,3.023C1665.844,4265.149,1667.26,4265.183,1668.675,4265.183Z" transform="translate(-1508.933 -4132.014)" fill="#499f3d"/>
    <path id="Trazado_140266" data-name="Trazado 140266" d="M1495.349,3999.482c0-5.631-.063-5.692-5.766-5.692q-95.467,0-190.934,0c-5.888,0-5.9.01-5.9,5.913q0,95.113,0,190.225c0,5.947.007,5.949,6.118,5.949q47.644,0,95.29,0,48.353,0,96.707-.006c4.2,0,4.417-.255,4.481-4.392.005-.354,0-.708,0-1.063Q1495.351,4094.95,1495.349,3999.482Zm-142.63,124.811c.851-.4,1.757-.685,2.623-1.056a8.135,8.135,0,0,0,5.307-7.329c.218-3.542-1.665-6.033-4.645-7.761-.406-.235-.861-.385-1.288-.586-2.964-1.389-3.9-3.417-3.069-6.523a1.426,1.426,0,0,1,2.118-1.126,6.673,6.673,0,0,1,1.3.565c1.779,1.1,2.611.25,3.575-1.548.848-1.581.56-2.274-1.344-3.36a15.52,15.52,0,0,0-2.584-1.146,6.332,6.332,0,0,1-3.428-2.286c-1.016-1.429-2.686-1.576-3.566-.251-1.054,1.588-2.6,1.914-4.079,2.57a10.29,10.29,0,0,0-3.219,2.154,7.965,7.965,0,0,0,.225,11.423,8.122,8.122,0,0,0,2.962,1.9c3.534,1.155,3.725,1.61,3.63,6.192-.052,2.478-.74,2.849-3.069,1.773-.746-.345-1.417-.851-2.148-1.231-1.886-.979-2.562-.722-3.735,1.093a2.067,2.067,0,0,0,.688,3.282,24.437,24.437,0,0,0,4.761,2.33c.773.289,1.569.529,2.312.881a1.3,1.3,0,0,1,.81,1.427,1.227,1.227,0,0,1-1.223,1.073c-1.53.062-3.064.021-4.709.021-4,1.043-6.664-1.173-8.928-4.125-5.157-6.725-5.878-14.078-2.43-21.678,3.4-7.487,9.367-11.577,17.654-12.264a20.822,20.822,0,0,1,22.309,16.161,21.513,21.513,0,0,1-4.4,18.639c-1.8,2.251-3.93,3.678-6.976,3.4-1.641-.147-3.3-.057-4.951-.145a1.282,1.282,0,0,1-.483-2.471Zm-.889-10.906a.905.905,0,0,1,1-.37,2.687,2.687,0,0,1,1.975,2.506,2.822,2.822,0,0,1-1.966,2.98.793.793,0,0,1-.914-.33C1351.44,4117.573,1351.384,4114.05,1351.831,4113.387Zm-4.565-11.322c-.18,1,.228,2.479-1.377,2.309a2.242,2.242,0,0,1-1.837-2.594c.053-1.259.658-2.5,1.99-2.428C1347.777,4099.446,1347.008,4101.1,1347.266,4102.065ZM1325.03,4139.5c-5.366-2.337-8.961-5.075-11.492-8.933,2.906-1.415,2.909-1.414,4.614-4.8,1.9-3.773,3.792-7.548,5.807-11.561,1.38,1.105.944,2.07.5,2.985-1.348,2.757-2.729,5.5-4.093,8.245-.368.74-.778,1.464-1.071,2.233-.629,1.652-.361,2.054,1.457,2.229.7.067,1.415.032,2.123.032q25.845,0,51.691,0c4.9,0,4.993-.192,2.749-4.684-1.16-2.324-2.34-4.636-3.475-6.971a5.419,5.419,0,0,1-.49-4.894c2.346,4.667,4.433,8.728,6.431,12.833.941,1.933,1.849,3.816,4.48,4.066-.765,2.388-2.442,3.511-4.009,4.7-7.093,5.373-15.3,7.9-23.984,8.738C1345.575,4144.745,1335.048,4143.863,1325.03,4139.5Zm150.943-7.806a21.308,21.308,0,0,1-4.408,4.071,42.6,42.6,0,0,1-15.193,6.566c-12.983,2.953-25.788,2.367-38.276-2.516a30.28,30.28,0,0,1-11.361-7.644c-.873-.942-1.205-1.829.438-2.322,1.415-.423,1.922-1.667,2.5-2.821q13.561-27.08,27.1-54.167c.264-.527.516-1.063.731-1.611.512-1.3.012-2.064-1.336-2.234a19.887,19.887,0,0,0-2.473-.109c-9.092-.006-18.183.036-27.275-.032-2.278-.017-3.76.91-5.53,2.374-2.969,2.454-3.31,5.3-3.3,8.73q.116,36.129-.005,72.259c-.012,3.287.272,6.106,3.726,7.574a3.054,3.054,0,0,1,1.281,1.194c1.14,1.878,2.9,2.13,4.884,2.215a127.53,127.53,0,0,1,18.975,2.126,15.325,15.325,0,0,1,5.009,1.689c1.4.833,1.323,1.958-.233,2.548a22.982,22.982,0,0,1-7.3,1.254c-14.154.548-28.323,1.116-42.473.533-6.468-.266-13,.144-19.418-1.026-1.6-.293-4.26.128-4.254-2.125.006-2.008,2.623-2.045,4.239-2.454a97.458,97.458,0,0,1,19.979-2.525c2.344-.095,4.491-.222,5.787-2.556a2.336,2.336,0,0,1,1.012-.97c3.031-1.312,3.28-3.8,3.271-6.7-.073-24.914-.177-49.828.086-74.739.045-4.306-2.462-6.32-4.9-8.763-.695-.7-1.765-.591-2.708-.592-9.918-.008-19.836-.04-29.753.012-3.052.016-3.343.561-1.976,3.367,2.119,4.352,4.319,8.665,6.469,13a2.789,2.789,0,0,1,.514,2.242c-1.764-.26-2.147-1.615-2.717-2.73-1.881-3.679-3.711-7.385-5.562-11.08-.37-.738-.709-1.5-1.136-2.2-1.164-1.927-1.828-1.957-2.953-.132-.432.7-.764,1.465-1.135,2.2-1.856,3.692-3.69,7.4-5.576,11.073-.568,1.108-.974,2.422-2.466,2.838-.8-1.09,0-1.863.363-2.616,2.02-4.138,4.133-8.231,6.139-12.376,1.414-2.92,1.051-3.506-2.167-3.6-2.583-.071-5.112-.141-7.535,1.314-2.035,1.221-4.193.53-5.7-1.242a4.187,4.187,0,0,1-.459-4.941,3.929,3.929,0,0,1,5.119-2.059c5.058,2.025,10.254,1.216,15.393,1.272,11.333.125,22.669,0,34,.067a6.739,6.739,0,0,0,5.843-2.467,7.569,7.569,0,0,1,11.546.077,6.594,6.594,0,0,0,5.538,2.383c14.4-.047,28.809-.027,43.214-.017a9.966,9.966,0,0,0,4.811-.915,5.961,5.961,0,0,1,2.383-.558,4.3,4.3,0,0,1,4.573,2.626,4.436,4.436,0,0,1-1,4.91,3.917,3.917,0,0,1-5.145.915c-2.865-1.769-5.905-1.42-8.938-1.3-1.933.075-2.269.748-1.606,2.517a20.211,20.211,0,0,0,.919,1.915c6.866,13.728,13.7,27.47,20.619,41.171,2.021,4,4.268,7.889,6.115,11.983.675,1.5,1.442,2.979,3.292,3.459C1476.56,4130.284,1476.477,4131.067,1475.973,4131.693Z" transform="translate(-1292.752 -3993.788)" fill="#499f3d"/>
    <g id="Grupo_63045" data-name="Grupo 63045" transform="translate(13.022 20.313)">
      <g id="Grupo_63044" data-name="Grupo 63044">
        <path id="Trazado_140273" data-name="Trazado 140273" d="M1343.385,4091.572V4081.9h-13.88v-5.583l13.229-25.2h7.878v24.259h4.016v6.523h-4.016v9.668Zm0-16.191v-8.276c0-2.143.223-4.511.409-6.664h-.2c-.931,2.238-1.753,4.07-2.85,6.3l-4.3,8.512v.124Z" transform="translate(-1329.505 -4051.122)" fill="#fff"/>
      </g>
    </g>
    <g id="Grupo_63046" data-name="Grupo 63046" transform="translate(46.253 21.962)">
      <path id="Trazado_140274" data-name="Trazado 140274" d="M1423.3,4056.348a14.422,14.422,0,0,1,2.888-.275,5.438,5.438,0,0,1,3.862,1.1,4.108,4.108,0,0,1,1.214,3.111,4.773,4.773,0,0,1-1.2,3.42,4.923,4.923,0,0,1-3.454,1.363c-.188,0-.37,0-.557-.009v5.291H1423.3Zm2.751,6.458a2.6,2.6,0,0,0,.46.03c1.391,0,2.009-.992,2.009-2.319,0-1.236-.5-2.218-1.785-2.218a2.11,2.11,0,0,0-.684.106Z" transform="translate(-1423.298 -4055.968)" fill="#fff"/>
      <path id="Trazado_140275" data-name="Trazado 140275" d="M1448.307,4067.216l-.623,3.245H1445l3.086-14.208h3.308l2.762,14.208h-2.689l-.606-3.245Zm2.312-2.143-.474-2.975c-.137-.863-.326-2.291-.466-3.23h-.051c-.152.944-.363,2.413-.512,3.234l-.519,2.97Z" transform="translate(-1437.313 -4056.084)" fill="#fff"/>
      <path id="Trazado_140276" data-name="Trazado 140276" d="M1480.886,4069.854a9.527,9.527,0,0,1-2.937.5,5.039,5.039,0,0,1-3.8-1.4,7.9,7.9,0,0,1-1.839-5.739c.067-5.173,3.011-7.317,6.03-7.317a5.541,5.541,0,0,1,2.321.429l-.478,2.38a3.584,3.584,0,0,0-1.628-.325c-1.874,0-3.367,1.3-3.367,4.994,0,3.412,1.328,4.647,2.611,4.647a1.43,1.43,0,0,0,.549-.078v-3.417h-1.273v-2.26h3.809Z" transform="translate(-1454.946 -4055.853)" fill="#fff"/>
      <path id="Trazado_140277" data-name="Trazado 140277" d="M1509.477,4062.8c0,5.357-1.9,7.521-4.6,7.521-3.214,0-4.485-3.406-4.485-7.3,0-3.881,1.542-7.239,4.688-7.239C1508.51,4055.776,1509.477,4059.544,1509.477,4062.8Zm-6.2.249c0,3.222.6,4.871,1.718,4.871,1.171,0,1.61-2.114,1.61-4.987,0-2.508-.382-4.754-1.631-4.754C1503.87,4058.178,1503.273,4060,1503.273,4063.049Z" transform="translate(-1473.08 -4055.776)" fill="#fff"/>
      <path id="Trazado_140278" data-name="Trazado 140278" d="M1539.08,4056.253h2.768v9.675c0,4.093-1.978,4.7-3.989,4.7a4.24,4.24,0,0,1-1.392-.2l.234-2.326a3.142,3.142,0,0,0,.9.113c.8,0,1.484-.332,1.484-2.159Z" transform="translate(-1496.372 -4056.084)" fill="#fff"/>
      <path id="Trazado_140279" data-name="Trazado 140279" d="M1560.583,4056.253v9.231c0,2.085.613,2.727,1.35,2.727.79,0,1.364-.573,1.364-2.727v-9.231h2.768V4065c0,3.66-1.386,5.632-4.124,5.632-2.97,0-4.126-2.054-4.126-5.6v-8.772Z" transform="translate(-1510.156 -4056.084)" fill="#fff"/>
      <path id="Trazado_140280" data-name="Trazado 140280" d="M1586.164,4067.4a5.27,5.27,0,0,0,2.337.557c1.3,0,1.953-.677,1.953-1.612,0-1.015-.643-1.535-1.847-2.3-1.941-1.192-2.677-2.68-2.677-3.971,0-2.281,1.514-4.171,4.49-4.171a4.814,4.814,0,0,1,2.233.51l-.441,2.377a3.375,3.375,0,0,0-1.806-.485c-1.185,0-1.752.716-1.752,1.468,0,.852.429,1.3,1.955,2.221a4.6,4.6,0,0,1,2.569,4.06c0,2.61-1.918,4.31-4.688,4.31a6.155,6.155,0,0,1-2.724-.57Z" transform="translate(-1528.203 -4055.853)" fill="#fff"/>
      <path id="Trazado_140281" data-name="Trazado 140281" d="M1610.985,4058.812h-2.506v-2.559h7.8v2.559h-2.522v11.649h-2.768Z" transform="translate(-1542.869 -4056.084)" fill="#fff"/>
      <path id="Trazado_140282" data-name="Trazado 140282" d="M1640.958,4062.8c0,5.357-1.9,7.521-4.6,7.521-3.214,0-4.485-3.406-4.485-7.3,0-3.881,1.542-7.239,4.688-7.239C1639.99,4055.776,1640.958,4059.544,1640.958,4062.8Zm-6.205.249c0,3.222.6,4.871,1.719,4.871,1.17,0,1.61-2.114,1.61-4.987,0-2.508-.382-4.754-1.631-4.754C1635.351,4058.178,1634.753,4060,1634.753,4063.049Z" transform="translate(-1557.977 -4055.776)" fill="#fff"/>
    </g>
  </g>
</svg>
