<svg id="Grupo_63087" data-name="Grupo 63087" xmlns="http://www.w3.org/2000/svg" width="202.164" height="202.199" viewBox="0 0 202.164 202.199">
  <rect id="Rectángulo_19008" data-name="Rectángulo 19008" width="176" height="116" transform="translate(17 85.468)" fill="#fff"/>
  <g id="Grupo_63076" data-name="Grupo 63076" transform="translate(0)">
    <path id="Trazado_140269" data-name="Trazado 140269" d="M242.631,4622.668c-.091-3.375-.205-3.485-3.727-3.485q-48.52,0-97.039,0v.011q-47.458,0-94.915,0c-6.641,0-6.473-.558-6.472,6.638q.011,94.739,0,189.476c0,6.065,0,6.07,5.976,6.07q95.092,0,190.184,0c5.993,0,6-.005,6-6.05q0-95.269,0-190.538C242.637,4624.085,242.65,4623.376,242.631,4622.668Zm-36.261,98.354a7.771,7.771,0,0,1-8.181,8.25c-4.877,0-8.433-3.4-8.5-8.113a8.1,8.1,0,0,1,8.358-8.246A7.789,7.789,0,0,1,206.37,4721.022Zm-35.514-.494a8.126,8.126,0,0,1-8.338,8.609,8.383,8.383,0,0,1-.185-16.765A8.373,8.373,0,0,1,170.856,4720.528Zm-35.416.913c-.075,4.706-3.584,7.913-8.567,7.828a8.031,8.031,0,0,1-8.175-8.334c.106-4.712,3.635-8.048,8.488-8.024C132.2,4712.935,135.521,4716.371,135.44,4721.441Zm-35.422-.782a8.07,8.07,0,0,1-8.085,8.471,8.387,8.387,0,1,1-.18-16.77A8.073,8.073,0,0,1,100.018,4720.659Zm115.3,45.183c-.022,2.186-1.327,3.457-2.874,3.328-1.452-.121-2.454-1.256-2.481-3.333-.086-6.494-.046-12.989-.066-19.483a12.232,12.232,0,0,0-.384-4.21c-.277-.768-.568-1.723-1.593-1.575-.863.126-.826,1.039-.857,1.729-.049,1.061-.037,2.125-.037,3.187q0,26.393-.011,52.785a22.738,22.738,0,0,1-.219,3.878,2.824,2.824,0,0,1-2.924,2.568,2.854,2.854,0,0,1-2.911-2.591,19.914,19.914,0,0,1-.208-3.526c-.017-7.321-.007-14.643-.014-21.964,0-.944-.008-1.891-.083-2.831-.129-1.639-1.171-2.155-2.675-2.141-1.48.013-2.564.512-2.749,2.118a28.4,28.4,0,0,0-.155,3.179c-.013,7.321,0,14.642-.013,21.964a26.665,26.665,0,0,1-.136,3.181,2.728,2.728,0,0,1-2.445,2.634,2.942,2.942,0,0,1-3.093-1.9c-.739-1.431-.6-2.991-.6-4.517q-.018-23.205-.011-46.408c0-2.834.035-5.668-.017-8.5-.016-.871.351-1.9-.834-2.687-1.566,1.106-1.4,2.815-1.408,4.382-.043,6.259-.014,12.518-.035,18.776a13.49,13.49,0,0,1-.216,3.167,2.607,2.607,0,0,1-4.157,1.615,7.024,7.024,0,0,1-2.642-3.661q-4.484-10.794-9.04-21.558c-.4-.944-.525-2.073-1.736-2.762-.7.915-.117,1.781.106,2.566q4.207,14.821,8.47,29.626c.227.794.489,1.583.657,2.39.465,2.233.286,2.466-1.915,2.657-.352.031-.709,0-1.062.024-3.16.189-3.465.418-3.5,3.519-.063,5.549-.018,11.1-.029,16.65a12.53,12.53,0,0,1-.374,3.862,3.107,3.107,0,0,1-5.983.038,14.6,14.6,0,0,1-.327-3.505c-.033-5.55.007-11.1-.03-16.65-.021-3.1-.579-3.9-2.411-3.8-1.627.09-2.08.814-2.1,3.764-.037,5.668,0,11.337-.026,17a15,15,0,0,1-.219,3.168,2.985,2.985,0,0,1-5.735.134,13.231,13.231,0,0,1-.3-3.156q-.042-8.325-.011-16.649c.014-3.441-.292-4.531-4.119-4.451-2.812.059-3.233-.688-2.421-3.571,2.467-8.75,5.031-17.472,7.5-26.222a39.556,39.556,0,0,0,1.879-7.828c-1.778,1.389-1.965,2.74-2.454,3.889-2.909,6.846-5.761,13.715-8.641,20.573a9.593,9.593,0,0,1-2.195,3.6c-1.758,1.592-3.7,1.04-4.253-1.278a14.138,14.138,0,0,1-.21-3.169c-.019-5.668,0-11.337-.018-17a13.727,13.727,0,0,0-.871-5.555,1.112,1.112,0,0,0-1.074-.765.932.932,0,0,0-.824.986c-.075,1.176-.115,2.357-.115,3.536q-.01,26.569-.012,53.138a24.131,24.131,0,0,1-.193,3.882,2.911,2.911,0,0,1-2.875,2.646,2.966,2.966,0,0,1-3.058-2.816,22.657,22.657,0,0,1-.114-3.182c-.01-7.794.008-15.588-.027-23.381-.007-1.494.216-3.2-1.909-3.642-2.48-.516-3.683.414-3.708,3.242-.07,7.792-.028,15.587-.041,23.381a26.592,26.592,0,0,1-.119,3.536,2.97,2.97,0,0,1-3.026,2.857,2.9,2.9,0,0,1-2.916-2.6,22.278,22.278,0,0,1-.214-3.879q-.018-26.038-.008-52.076a19.208,19.208,0,0,0-.014-2.124c-.122-1.1.506-3.045-.712-3.074-1.779-.042-1.558,1.991-1.57,3.316-.056,6.376-.027,12.754-.044,19.13a24.842,24.842,0,0,1-.147,3.18,2.74,2.74,0,0,1-2.168,2.509,2.993,2.993,0,0,1-2.83-1.115,7.986,7.986,0,0,1-1.55-2.762q-4.386-10.451-8.761-20.907a15.042,15.042,0,0,0-2-3.954c-.995,1.2-.287,2.185-.038,3.063q4.261,14.991,8.6,29.959c.1.34.2.678.3,1.02.877,3.255.831,3.318-2.585,3.523-3.521.213-3.7.36-3.728,4.026-.041,5.668-.011,11.336-.023,17a7.979,7.979,0,0,1-.47,3.48,2.957,2.957,0,0,1-3.156,1.793,2.5,2.5,0,0,1-2.511-2.484c-.112-1.172-.122-2.357-.126-3.537-.017-5.668.031-11.337-.046-17-.034-2.485-.647-3.165-2.347-3.21-1.368-.038-2.3.5-2.441,1.957-.089.939-.112,1.886-.113,2.828-.011,5.314,0,10.628-.015,15.942a15.222,15.222,0,0,1-.218,3.169,2.756,2.756,0,0,1-3.1,2.306,2.706,2.706,0,0,1-2.742-2.314,17.157,17.157,0,0,1-.2-3.171c-.02-5.668.026-11.337-.03-17-.034-3.378-.278-3.563-3.621-3.783-3.45-.226-3.712-.49-2.776-3.827,2.614-9.321,5.314-18.618,7.969-27.929a22.516,22.516,0,0,0,1.2-5.521c-1.69.915-1.9,2.369-2.4,3.539-2.809,6.631-5.545,13.293-8.319,19.94a9.457,9.457,0,0,1-1.616,3.129,2.966,2.966,0,0,1-3.494.983,2.808,2.808,0,0,1-1.748-3.156,10.081,10.081,0,0,1,.721-2.716c3.564-8.62,7.22-17.2,10.715-25.848,1.027-2.542,2.607-3.729,5.348-3.676q6.729.128,13.461,0a4.884,4.884,0,0,1,5.152,3.442c1.292,3.3,2.674,6.56,4.092,9.805.343.783.38,1.909,1.769,2.126.786-1.261.455-2.7.486-4.043.164-7.117,3.676-10.662,10.742-10.721,4.369-.037,8.744.143,13.106-.038,6.705-.278,10.97,5.08,10.528,11.422a6.322,6.322,0,0,0-.037,2.8c.075.2.288.343.48.56,1.163-.145,1.281-1.214,1.623-2.007,1.354-3.145,2.76-6.274,3.926-9.49.977-2.693,2.59-3.978,5.542-3.877,4.364.15,8.74.133,13.105.006a5.045,5.045,0,0,1,5.431,3.559c1.416,3.628,2.964,7.206,4.473,10.8.264.628.409,1.382,1.494,1.625.811-1.072.441-2.4.477-3.608a16.366,16.366,0,0,1,.723-5.232,9.145,9.145,0,0,1,8.78-6.481c5.076-.1,10.16.114,15.231-.071a9.711,9.711,0,0,1,9.617,9.035C215.465,4750.253,215.394,4758.05,215.316,4765.841Z" transform="translate(-40.477 -4619.183)" fill="#362e7f"/>
    <g id="Grupo_63048" data-name="Grupo 63048" transform="translate(9.822 18.352)">
      <g id="Grupo_63047" data-name="Grupo 63047">
        <path id="Trazado_140283" data-name="Trazado 140283" d="M88.811,4677.591a22.32,22.32,0,0,0-3.336.422c-5.37,1.158-8.01,5.665-9.042,10.756h.223a7.623,7.623,0,0,1,6.237-3.214c5.42,0,9.15,4.912,9.15,12.53,0,7.1-3.655,14.338-11.562,14.338-7.653,0-12.283-6.633-12.283-16.7,0-8.839,2.881-14.839,6.614-18.842a19.116,19.116,0,0,1,9.918-5.484,33.69,33.69,0,0,1,4.082-.422Zm-4.856,20.48c-.049-3.447-1.132-6.667-3.773-6.667-1.3,0-2.574.882-3.318,2.7a10.375,10.375,0,0,0-.409,3.559c.013,5.284,1.519,8.861,3.94,8.861C83.085,4706.526,83.955,4702.889,83.955,4698.071Z" transform="translate(-68.198 -4670.979)" fill="#fff"/>
      </g>
    </g>
    <g id="Grupo_63050" data-name="Grupo 63050" transform="translate(38.01 15.067)">
      <g id="Grupo_63049" data-name="Grupo 63049" transform="translate(0 0)">
        <path id="Trazado_140284" data-name="Trazado 140284" d="M147.76,4684.773v-14.207h2.212l1.906,5.574c.375,1.093.979,2.912,1.326,4.141h.037c-.085-1.484-.244-3.965-.244-6.575v-3.141h2.117v14.207H152.9l-1.879-5.4a44.27,44.27,0,0,1-1.266-4.267h-.037c.071,1.427.158,3.619.158,6.477v3.193Z" transform="translate(-147.76 -4667.428)" fill="#fff"/>
        <path id="Trazado_140285" data-name="Trazado 140285" d="M180.742,4677.115c0,5.357-1.66,7.521-4.009,7.521-2.8,0-3.913-3.407-3.913-7.305,0-3.882,1.345-7.239,4.09-7.239C179.9,4670.092,180.742,4673.859,180.742,4677.115Zm-5.413.248c0,3.223.522,4.871,1.5,4.871,1.021,0,1.4-2.114,1.4-4.987,0-2.507-.333-4.754-1.423-4.754C175.851,4672.493,175.329,4674.316,175.329,4677.363Z" transform="translate(-163.941 -4667.122)" fill="#fff"/>
        <path id="Trazado_140286" data-name="Trazado 140286" d="M208.029,4681.529l-.543,3.244h-2.338l2.691-14.207h2.885l2.409,14.207h-2.346l-.529-3.244Zm2.017-2.143-.413-2.976c-.119-.863-.285-2.291-.407-3.229h-.045c-.132.944-.316,2.413-.446,3.234l-.453,2.971Z" transform="translate(-184.815 -4667.428)" fill="#fff"/>
        <path id="Trazado_140287" data-name="Trazado 140287" d="M239.767,4670.566h2.415v11.865h3.17v2.342h-5.584Z" transform="translate(-207.169 -4667.428)" fill="#fff"/>
        <path id="Trazado_140288" data-name="Trazado 140288" d="M260.181,4681.529l-.544,3.244H257.3l2.691-14.207h2.885l2.409,14.207h-2.346l-.529-3.244Zm2.017-2.143-.413-2.976c-.119-.863-.285-2.291-.407-3.229h-.045c-.133.944-.316,2.413-.446,3.234l-.453,2.971Z" transform="translate(-218.489 -4667.428)" fill="#fff"/>
        <path id="Trazado_140289" data-name="Trazado 140289" d="M291.918,4670.663a10.056,10.056,0,0,1,2.447-.274,4.417,4.417,0,0,1,3.444,1.265c1.06,1.1,1.609,2.976,1.609,5.726,0,2.879-.645,4.913-1.719,6.019a4.835,4.835,0,0,1-3.79,1.374,13.7,13.7,0,0,1-1.991-.16Zm2.4,11.8a1.508,1.508,0,0,0,.433.042c1.164,0,2.172-1.3,2.172-5.219,0-2.919-.661-4.691-2.123-4.691a1.324,1.324,0,0,0-.482.067Z" transform="translate(-240.843 -4667.313)" fill="#fff"/>
        <path id="Trazado_140290" data-name="Trazado 140290" d="M319.813,4670.566v14.207H317.4v-14.207Z" transform="translate(-257.295 -4667.428)" fill="#fff"/>
        <path id="Trazado_140291" data-name="Trazado 140291" d="M328.844,4681.713a4.129,4.129,0,0,0,2.038.556,1.527,1.527,0,0,0,1.7-1.612c0-1.015-.562-1.535-1.611-2.3a4.9,4.9,0,0,1-2.335-3.97c0-2.283,1.32-4.172,3.916-4.172a3.773,3.773,0,0,1,1.948.51l-.385,2.376a2.684,2.684,0,0,0-1.575-.484,1.421,1.421,0,0,0-1.528,1.468c0,.852.374,1.3,1.705,2.221a4.726,4.726,0,0,1,2.241,4.06,3.978,3.978,0,0,1-4.089,4.31,4.8,4.8,0,0,1-2.376-.57Z" transform="translate(-264.461 -4667.199)" fill="#fff"/>
        <path id="Trazado_140292" data-name="Trazado 140292" d="M355.535,4684.337a4.321,4.321,0,0,1-1.859.333c-3.167,0-4.68-2.984-4.68-7.015,0-5.357,2.592-7.445,4.994-7.445a3.168,3.168,0,0,1,1.685.37l-.4,2.331a2.145,2.145,0,0,0-1.121-.284c-1.374,0-2.6,1.36-2.6,4.875,0,3.391,1.128,4.717,2.589,4.717a3.753,3.753,0,0,0,1.162-.208Z" transform="translate(-277.698 -4667.199)" fill="#fff"/>
        <path id="Trazado_140293" data-name="Trazado 140293" d="M371.211,4670.663a12.1,12.1,0,0,1,2.63-.274,4.373,4.373,0,0,1,3.3,1.058,3.961,3.961,0,0,1,.983,2.955,3.859,3.859,0,0,1-1.91,3.548v.042c.84.39,1.268,1.282,1.5,2.817a25.753,25.753,0,0,0,.793,3.851H376a20.819,20.819,0,0,1-.622-3.4c-.211-1.767-.6-2.265-1.4-2.265h-.361v5.666h-2.4Zm2.4,6.2h.438c1.047,0,1.643-.977,1.643-2.211,0-1.215-.419-2.071-1.5-2.1a1.565,1.565,0,0,0-.585.084Z" transform="translate(-292.043 -4667.313)" fill="#fff"/>
        <path id="Trazado_140294" data-name="Trazado 140294" d="M398.016,4670.566v14.207H395.6v-14.207Z" transform="translate(-307.791 -4667.428)" fill="#fff"/>
        <path id="Trazado_140295" data-name="Trazado 140295" d="M415.218,4679.807c-.063-1.361-.14-3.181-.114-4.712h-.048c-.222,1.522-.553,3.271-.784,4.375l-1.077,5.07h-1.71l-1.029-4.99c-.239-1.149-.567-2.915-.756-4.456h-.045c-.036,1.549-.124,3.342-.187,4.747l-.21,4.932h-2.067l.89-14.207h2.543l.989,5.141c.344,1.8.656,3.37.878,4.977h.041c.188-1.578.465-3.178.79-4.977l.977-5.141h2.544l.753,14.207H415.44Z" transform="translate(-315.275 -4667.428)" fill="#fff"/>
        <path id="Trazado_140296" data-name="Trazado 140296" d="M443.941,4670.566v14.207h-2.415v-14.207Z" transform="translate(-337.445 -4667.428)" fill="#fff"/>
        <path id="Trazado_140297" data-name="Trazado 140297" d="M454.4,4684.773v-14.207h2.211l1.906,5.574c.375,1.093.979,2.912,1.326,4.141h.037c-.085-1.484-.245-3.965-.245-6.575v-3.141h2.117v14.207h-2.212l-1.879-5.4a44.167,44.167,0,0,1-1.266-4.267h-.037c.071,1.427.158,3.619.158,6.477v3.193Z" transform="translate(-345.754 -4667.428)" fill="#fff"/>
        <path id="Trazado_140298" data-name="Trazado 140298" d="M481.451,4681.529l-.543,3.244H478.57l2.691-14.207h2.885l2.409,14.207H484.21l-.529-3.244Zm2.017-2.143-.413-2.976c-.119-.863-.285-2.291-.407-3.229H482.6c-.133.944-.316,2.413-.446,3.234l-.453,2.971Z" transform="translate(-361.364 -4667.428)" fill="#fff"/>
        <path id="Trazado_140299" data-name="Trazado 140299" d="M508.93,4684.337a4.323,4.323,0,0,1-1.859.333c-3.167,0-4.68-2.984-4.68-7.015,0-5.357,2.592-7.445,4.994-7.445a3.166,3.166,0,0,1,1.684.37l-.4,2.331a2.14,2.14,0,0,0-1.121-.284c-1.374,0-2.6,1.36-2.6,4.875,0,3.391,1.127,4.717,2.589,4.717a3.751,3.751,0,0,0,1.162-.208Z" transform="translate(-376.746 -4667.199)" fill="#fff"/>
        <path id="Trazado_140300" data-name="Trazado 140300" d="M527.021,4670.566v14.207h-2.415v-14.207Z" transform="translate(-391.09 -4667.428)" fill="#fff"/>
        <path id="Trazado_140301" data-name="Trazado 140301" d="M543.68,4671.7c0,5.357-1.66,7.522-4.009,7.522-2.8,0-3.913-3.407-3.913-7.306,0-3.881,1.346-7.239,4.09-7.239C542.836,4664.679,543.68,4668.447,543.68,4671.7Zm-5.413.25c0,3.222.521,4.871,1.5,4.871,1.021,0,1.4-2.114,1.4-4.987,0-2.508-.333-4.754-1.423-4.754C538.789,4667.081,538.268,4668.9,538.268,4671.951Zm4.384-10.242-2.244,2.379H538.7l1.513-2.379Z" transform="translate(-398.291 -4661.709)" fill="#fff"/>
        <path id="Trazado_140302" data-name="Trazado 140302" d="M562.436,4684.773v-14.207h2.211l1.906,5.574c.375,1.093.979,2.912,1.326,4.141h.036c-.085-1.484-.244-3.965-.244-6.575v-3.141h2.117v14.207h-2.211l-1.879-5.4a44.124,44.124,0,0,1-1.266-4.267h-.037c.071,1.427.158,3.619.158,6.477v3.193Z" transform="translate(-415.517 -4667.428)" fill="#fff"/>
        <path id="Trazado_140303" data-name="Trazado 140303" d="M586.728,4707.5a37.6,37.6,0,0,0,1.232-5.615l2.448-.212a31.608,31.608,0,0,1-2.141,5.639Z" transform="translate(-431.202 -4687.512)" fill="#fff"/>
        <path id="Trazado_140304" data-name="Trazado 140304" d="M150.175,4730.063v14.207H147.76v-14.207Z" transform="translate(-147.76 -4705.845)" fill="#fff"/>
        <path id="Trazado_140305" data-name="Trazado 140305" d="M166.388,4743.663a7.387,7.387,0,0,1-2.562.5,4.1,4.1,0,0,1-3.312-1.4,8.67,8.67,0,0,1-1.6-5.741c.058-5.172,2.626-7.316,5.259-7.316a4.3,4.3,0,0,1,2.024.43l-.417,2.38a2.8,2.8,0,0,0-1.419-.325c-1.634,0-2.937,1.3-2.937,4.994,0,3.412,1.158,4.647,2.277,4.647a1.117,1.117,0,0,0,.48-.078v-3.418h-1.111v-2.259h3.322Z" transform="translate(-154.959 -4705.613)" fill="#fff"/>
        <path id="Trazado_140306" data-name="Trazado 140306" d="M187.333,4730.063v9.23c0,2.085.535,2.727,1.178,2.727.689,0,1.189-.573,1.189-2.727v-9.23h2.415v8.743c0,3.66-1.209,5.633-3.6,5.633-2.59,0-3.6-2.055-3.6-5.6v-8.771Z" transform="translate(-171.753 -4705.845)" fill="#fff"/>
        <path id="Trazado_140307" data-name="Trazado 140307" d="M210.987,4741.025l-.544,3.244H208.1l2.691-14.207h2.885l2.409,14.207h-2.346l-.529-3.244Zm2.017-2.144-.413-2.975c-.119-.863-.285-2.29-.407-3.229h-.045c-.133.944-.316,2.413-.446,3.234l-.453,2.97Z" transform="translate(-186.725 -4705.845)" fill="#fff"/>
        <path id="Trazado_140308" data-name="Trazado 140308" d="M234.474,4730.063h2.415v11.864h3.17v2.343h-5.584Z" transform="translate(-203.751 -4705.845)" fill="#fff"/>
        <path id="Trazado_140309" data-name="Trazado 140309" d="M254.193,4730.157a10.054,10.054,0,0,1,2.448-.274,4.417,4.417,0,0,1,3.444,1.264c1.06,1.1,1.609,2.977,1.609,5.726,0,2.88-.644,4.914-1.719,6.02a4.842,4.842,0,0,1-3.79,1.373,13.834,13.834,0,0,1-1.991-.16Zm2.4,11.8a1.509,1.509,0,0,0,.433.042c1.164,0,2.172-1.3,2.172-5.219,0-2.92-.661-4.691-2.123-4.691a1.314,1.314,0,0,0-.482.068Z" transform="translate(-216.484 -4705.729)" fill="#fff"/>
        <path id="Trazado_140310" data-name="Trazado 140310" d="M279.124,4741.025l-.544,3.244h-2.338l2.691-14.207h2.885l2.409,14.207h-2.346l-.529-3.244Zm2.017-2.144-.414-2.975c-.119-.863-.285-2.29-.407-3.229h-.044c-.133.944-.316,2.413-.446,3.234l-.453,2.97Z" transform="translate(-230.721 -4705.845)" fill="#fff"/>
        <path id="Trazado_140311" data-name="Trazado 140311" d="M302.61,4730.157a10.054,10.054,0,0,1,2.448-.274,4.419,4.419,0,0,1,3.444,1.264c1.06,1.1,1.608,2.977,1.608,5.726,0,2.88-.645,4.914-1.719,6.02a4.842,4.842,0,0,1-3.79,1.373,13.839,13.839,0,0,1-1.991-.16Zm2.4,11.8a1.508,1.508,0,0,0,.433.042c1.164,0,2.172-1.3,2.172-5.219,0-2.92-.661-4.691-2.123-4.691a1.314,1.314,0,0,0-.482.068Z" transform="translate(-247.747 -4705.729)" fill="#fff"/>
        <path id="Trazado_140312" data-name="Trazado 140312" d="M336.341,4730.157a10.054,10.054,0,0,1,2.448-.274,4.417,4.417,0,0,1,3.444,1.264c1.06,1.1,1.609,2.977,1.609,5.726,0,2.88-.644,4.914-1.719,6.02a4.842,4.842,0,0,1-3.79,1.373,13.834,13.834,0,0,1-1.991-.16Zm2.4,11.8a1.511,1.511,0,0,0,.433.042c1.164,0,2.172-1.3,2.172-5.219,0-2.92-.661-4.691-2.123-4.691a1.314,1.314,0,0,0-.482.068Z" transform="translate(-269.527 -4705.729)" fill="#fff"/>
        <path id="Trazado_140313" data-name="Trazado 140313" d="M367.059,4738.022h-2.823v3.85h3.185v2.4h-5.6v-14.207h5.39v2.4h-2.975v3.266h2.823Z" transform="translate(-285.979 -4705.845)" fill="#fff"/>
        <path id="Trazado_140314" data-name="Trazado 140314" d="M396.276,4743.663a7.387,7.387,0,0,1-2.562.5,4.1,4.1,0,0,1-3.312-1.4,8.67,8.67,0,0,1-1.6-5.741c.058-5.172,2.626-7.316,5.26-7.316a4.3,4.3,0,0,1,2.024.43l-.417,2.38a2.8,2.8,0,0,0-1.42-.325c-1.634,0-2.938,1.3-2.938,4.994,0,3.412,1.158,4.647,2.277,4.647a1.118,1.118,0,0,0,.48-.078v-3.418h-1.111v-2.259h3.322Z" transform="translate(-303.398 -4705.613)" fill="#fff"/>
        <path id="Trazado_140315" data-name="Trazado 140315" d="M420.249,4732.3h-2.823v3.851h3.185v2.4h-5.6v-14.207h5.39v2.4h-2.975V4730h2.823Zm.376-11.1-2.244,2.379h-1.711l1.513-2.379Z" transform="translate(-320.324 -4700.125)" fill="#fff"/>
        <path id="Trazado_140316" data-name="Trazado 140316" d="M435.457,4744.269v-14.207h2.212l1.906,5.573c.375,1.094.979,2.913,1.326,4.142h.037c-.085-1.485-.245-3.965-.245-6.576v-3.139h2.117v14.207H440.6l-1.879-5.4a44.238,44.238,0,0,1-1.266-4.268h-.037c.071,1.428.158,3.619.158,6.478v3.193Z" transform="translate(-333.526 -4705.845)" fill="#fff"/>
        <path id="Trazado_140317" data-name="Trazado 140317" d="M467.472,4738.022h-2.823v3.85h3.185v2.4h-5.6v-14.207h5.39v2.4h-2.975v3.266h2.823Z" transform="translate(-350.816 -4705.845)" fill="#fff"/>
        <path id="Trazado_140318" data-name="Trazado 140318" d="M482.68,4730.157a12.069,12.069,0,0,1,2.63-.274,4.37,4.37,0,0,1,3.3,1.058,3.961,3.961,0,0,1,.983,2.956,3.858,3.858,0,0,1-1.91,3.548v.042c.84.391,1.268,1.282,1.5,2.816a25.7,25.7,0,0,0,.792,3.852h-2.516a20.922,20.922,0,0,1-.622-3.4c-.211-1.767-.6-2.266-1.4-2.266h-.361v5.666h-2.4Zm2.4,6.2h.438c1.047,0,1.643-.978,1.643-2.211,0-1.216-.419-2.071-1.5-2.1a1.565,1.565,0,0,0-.585.084Z" transform="translate(-364.018 -4705.729)" fill="#fff"/>
        <path id="Trazado_140319" data-name="Trazado 140319" d="M513.274,4736.608c0,5.357-1.661,7.521-4.009,7.521-2.8,0-3.913-3.406-3.913-7.305,0-3.88,1.345-7.239,4.09-7.239C512.43,4729.585,513.274,4733.353,513.274,4736.608Zm-5.413.249c0,3.223.521,4.871,1.5,4.871,1.021,0,1.4-2.113,1.4-4.987,0-2.507-.333-4.755-1.423-4.755C508.383,4731.986,507.862,4733.809,507.862,4736.857Z" transform="translate(-378.657 -4705.537)" fill="#fff"/>
        <path id="Trazado_140320" data-name="Trazado 140320" d="M527.625,4766.991a37.6,37.6,0,0,0,1.232-5.616l2.448-.21a31.644,31.644,0,0,1-2.141,5.638Z" transform="translate(-393.039 -4725.928)" fill="#fff"/>
        <path id="Trazado_140321" data-name="Trazado 140321" d="M147.76,4789.556h2.415v11.865h3.17v2.342H147.76Z" transform="translate(-147.76 -4744.26)" fill="#fff"/>
        <path id="Trazado_140322" data-name="Trazado 140322" d="M169.894,4789.556v14.207h-2.415v-14.207Z" transform="translate(-160.493 -4744.26)" fill="#fff"/>
        <path id="Trazado_140323" data-name="Trazado 140323" d="M180.349,4789.651a11.68,11.68,0,0,1,2.742-.273,4.258,4.258,0,0,1,3.135,1,3.54,3.54,0,0,1,.938,2.589,3.356,3.356,0,0,1-1.793,3.1v.076a3.361,3.361,0,0,1,2.194,3.391,4.234,4.234,0,0,1-.908,2.792c-.738.923-2,1.434-4.071,1.434a13.532,13.532,0,0,1-2.238-.16Zm2.4,5.628h.518c.874,0,1.533-.839,1.533-1.993,0-1.043-.429-1.85-1.412-1.85a1.785,1.785,0,0,0-.639.089Zm0,6.3a2.117,2.117,0,0,0,.537.051c.982,0,1.784-.693,1.784-2.133s-.846-2.166-1.8-2.172h-.521Z" transform="translate(-168.803 -4744.145)" fill="#fff"/>
        <path id="Trazado_140324" data-name="Trazado 140324" d="M210.651,4797.516h-2.823v3.851h3.185v2.4h-5.6v-14.207h5.39v2.4h-2.975v3.266h2.823Z" transform="translate(-184.987 -4744.26)" fill="#fff"/>
        <path id="Trazado_140325" data-name="Trazado 140325" d="M225.858,4789.651a12.014,12.014,0,0,1,2.63-.273,4.369,4.369,0,0,1,3.3,1.057,3.958,3.958,0,0,1,.983,2.955,3.857,3.857,0,0,1-1.91,3.548v.043c.84.391,1.268,1.281,1.5,2.815a25.722,25.722,0,0,0,.793,3.852h-2.516a20.872,20.872,0,0,1-.622-3.4c-.211-1.768-.6-2.266-1.4-2.266h-.361v5.665h-2.4Zm2.4,6.2h.438c1.048,0,1.643-.978,1.643-2.211,0-1.216-.419-2.071-1.5-2.1a1.585,1.585,0,0,0-.585.084Z" transform="translate(-198.188 -4744.145)" fill="#fff"/>
        <path id="Trazado_140326" data-name="Trazado 140326" d="M249.873,4792.114h-2.186v-2.559h6.8v2.559h-2.2v11.648h-2.415Z" transform="translate(-212.283 -4744.26)" fill="#fff"/>
        <path id="Trazado_140327" data-name="Trazado 140327" d="M269,4800.519l-.543,3.244h-2.338l2.691-14.207H271.7l2.409,14.207h-2.346l-.529-3.244Zm2.017-2.143-.414-2.975c-.119-.863-.284-2.291-.407-3.229h-.045c-.132.943-.316,2.413-.446,3.234l-.453,2.97Z" transform="translate(-224.186 -4744.26)" fill="#fff"/>
        <path id="Trazado_140328" data-name="Trazado 140328" d="M292.49,4789.651a10.034,10.034,0,0,1,2.447-.273,4.414,4.414,0,0,1,3.444,1.264c1.06,1.1,1.609,2.976,1.609,5.726,0,2.879-.644,4.914-1.719,6.021a4.841,4.841,0,0,1-3.79,1.373,13.75,13.75,0,0,1-1.991-.16Zm2.4,11.8a1.476,1.476,0,0,0,.433.043c1.164,0,2.172-1.3,2.172-5.219,0-2.921-.661-4.692-2.123-4.692a1.325,1.325,0,0,0-.482.068Z" transform="translate(-241.212 -4744.145)" fill="#fff"/>
        <path id="Trazado_140329" data-name="Trazado 140329" d="M326.22,4789.651a10.036,10.036,0,0,1,2.447-.273,4.415,4.415,0,0,1,3.444,1.264c1.06,1.1,1.609,2.976,1.609,5.726,0,2.879-.645,4.914-1.719,6.021a4.84,4.84,0,0,1-3.79,1.373,13.758,13.758,0,0,1-1.991-.16Zm2.4,11.8a1.475,1.475,0,0,0,.433.043c1.164,0,2.172-1.3,2.172-5.219,0-2.921-.661-4.692-2.123-4.692a1.324,1.324,0,0,0-.482.068Z" transform="translate(-262.992 -4744.145)" fill="#fff"/>
        <path id="Trazado_140330" data-name="Trazado 140330" d="M356.938,4797.516h-2.823v3.851H357.3v2.4h-5.6v-14.207h5.39v2.4h-2.975v3.266h2.823Z" transform="translate(-279.444 -4744.26)" fill="#fff"/>
        <path id="Trazado_140331" data-name="Trazado 140331" d="M380.677,4800.519l-.543,3.244H377.8l2.691-14.207h2.885l2.409,14.207h-2.346l-.529-3.244Zm2.017-2.143-.413-2.975c-.119-.863-.285-2.291-.407-3.229h-.045c-.133.943-.316,2.413-.446,3.234l-.453,2.97Z" transform="translate(-296.294 -4744.26)" fill="#fff"/>
        <path id="Trazado_140332" data-name="Trazado 140332" d="M402.74,4800.7a4.122,4.122,0,0,0,2.039.557,1.527,1.527,0,0,0,1.7-1.612c0-1.015-.562-1.534-1.611-2.3a4.9,4.9,0,0,1-2.335-3.971c0-2.282,1.32-4.172,3.916-4.172a3.762,3.762,0,0,1,1.948.511l-.385,2.376a2.67,2.67,0,0,0-1.575-.484,1.42,1.42,0,0,0-1.528,1.467c0,.852.374,1.3,1.705,2.221a4.728,4.728,0,0,1,2.241,4.062,3.979,3.979,0,0,1-4.089,4.31,4.793,4.793,0,0,1-2.376-.571Z" transform="translate(-312.176 -4744.029)" fill="#fff"/>
        <path id="Trazado_140333" data-name="Trazado 140333" d="M430.815,4796.1c0,5.357-1.66,7.521-4.009,7.521-2.8,0-3.913-3.406-3.913-7.305,0-3.881,1.345-7.239,4.09-7.239C429.97,4789.08,430.815,4792.847,430.815,4796.1Zm-5.412.249c0,3.223.522,4.871,1.5,4.871,1.021,0,1.4-2.113,1.4-4.988,0-2.506-.333-4.753-1.423-4.753C425.924,4791.481,425.4,4793.3,425.4,4796.352Z" transform="translate(-325.414 -4743.952)" fill="#fff"/>
        <path id="Trazado_140334" data-name="Trazado 140334" d="M454.393,4803.324a4.311,4.311,0,0,1-1.859.335c-3.167,0-4.68-2.984-4.68-7.017,0-5.355,2.592-7.444,4.994-7.444a3.159,3.159,0,0,1,1.685.371l-.4,2.329a2.16,2.16,0,0,0-1.121-.281c-1.374,0-2.6,1.359-2.6,4.874,0,3.391,1.128,4.717,2.589,4.717a3.781,3.781,0,0,0,1.161-.209Z" transform="translate(-341.531 -4744.029)" fill="#fff"/>
        <path id="Trazado_140335" data-name="Trazado 140335" d="M472.483,4789.556v14.207h-2.415v-14.207Z" transform="translate(-355.875 -4744.26)" fill="#fff"/>
        <path id="Trazado_140336" data-name="Trazado 140336" d="M483.217,4800.519l-.543,3.244h-2.338l2.691-14.207h2.885l2.409,14.207h-2.346l-.529-3.244Zm2.017-2.143-.413-2.975c-.119-.863-.285-2.291-.407-3.229h-.045c-.132.943-.316,2.413-.446,3.234l-.453,2.97Z" transform="translate(-362.505 -4744.26)" fill="#fff"/>
        <path id="Trazado_140337" data-name="Trazado 140337" d="M510.7,4803.324a4.309,4.309,0,0,1-1.859.335c-3.167,0-4.68-2.984-4.68-7.017,0-5.355,2.592-7.444,4.995-7.444a3.16,3.16,0,0,1,1.684.371l-.4,2.329a2.159,2.159,0,0,0-1.121-.281c-1.374,0-2.6,1.359-2.6,4.874,0,3.391,1.128,4.717,2.589,4.717a3.777,3.777,0,0,0,1.161-.209Z" transform="translate(-377.886 -4744.029)" fill="#fff"/>
        <path id="Trazado_140338" data-name="Trazado 140338" d="M528.787,4789.556v14.207h-2.414v-14.207Z" transform="translate(-392.23 -4744.26)" fill="#fff"/>
        <path id="Trazado_140339" data-name="Trazado 140339" d="M545.446,4790.69c0,5.357-1.661,7.521-4.01,7.521-2.8,0-3.913-3.405-3.913-7.3,0-3.882,1.346-7.24,4.09-7.24C544.6,4783.667,545.446,4787.435,545.446,4790.69Zm-5.413.249c0,3.223.522,4.871,1.5,4.871,1.021,0,1.4-2.114,1.4-4.987,0-2.508-.333-4.755-1.423-4.755C540.554,4786.068,540.033,4787.891,540.033,4790.939Zm4.384-10.242-2.244,2.379h-1.711l1.513-2.379Z" transform="translate(-399.43 -4738.54)" fill="#fff"/>
        <path id="Trazado_140340" data-name="Trazado 140340" d="M564.2,4803.763v-14.207h2.212l1.906,5.573c.375,1.094.979,2.912,1.326,4.142h.037c-.085-1.484-.245-3.965-.245-6.575v-3.14h2.117v14.207h-2.212l-1.879-5.4a43.962,43.962,0,0,1-1.266-4.266h-.037c.071,1.428.158,3.619.158,6.478v3.193Z" transform="translate(-416.656 -4744.26)" fill="#fff"/>
      </g>
    </g>
  </g>
</svg>
