<svg xmlns="http://www.w3.org/2000/svg" width="154.667" height="154.667" viewBox="0 0 154.667 154.667">
  <g id="Grupo_63838" data-name="Grupo 63838" transform="translate(-325 -4458.675)">
    <path id="Trazado_105094" data-name="Trazado 105094" d="M2682.54,6466.171q3.8,0,7.58.373t7.507,1.114q3.727.739,7.362,1.843t7.146,2.557q3.51,1.453,6.861,3.244t6.51,3.9q3.158,2.111,6.1,4.521t5.623,5.1q2.687,2.687,5.1,5.623t4.521,6.1q2.111,3.157,3.9,6.509t3.245,6.861q1.454,3.509,2.557,7.145t1.844,7.362q.741,3.727,1.114,7.506t.373,7.581q0,3.8-.373,7.58t-1.114,7.508q-.742,3.726-1.844,7.361t-2.557,7.146q-1.455,3.51-3.245,6.861t-3.9,6.51q-2.111,3.158-4.521,6.1t-5.1,5.623q-2.686,2.689-5.623,5.1t-6.1,4.521q-3.159,2.111-6.51,3.9t-6.861,3.244q-3.509,1.454-7.146,2.557t-7.362,1.844q-3.725.743-7.507,1.114t-7.58.373q-3.8,0-7.58-.373t-7.507-1.114q-3.725-.741-7.362-1.844t-7.146-2.557q-3.51-1.455-6.86-3.244t-6.51-3.9q-3.159-2.109-6.1-4.521t-5.624-5.1q-2.686-2.687-5.1-5.623t-4.521-6.1q-2.111-3.16-3.9-6.51t-3.244-6.861q-1.455-3.509-2.557-7.146t-1.844-7.361q-.741-3.727-1.113-7.508t-.372-7.58q0-3.8.372-7.581t1.113-7.506q.741-3.725,1.844-7.362t2.557-7.145q1.453-3.511,3.244-6.861t3.9-6.509q2.111-3.159,4.521-6.1t5.1-5.623q2.688-2.688,5.624-5.1t6.1-4.521q3.158-2.109,6.51-3.9t6.86-3.244q3.51-1.455,7.146-2.557t7.362-1.843q3.726-.743,7.507-1.114T2682.54,6466.171Z" transform="translate(-2280.207 -2007.496)" fill="#a0a603"/>
    <circle id="Elipse_1224" data-name="Elipse 1224" cx="72.641" cy="72.641" r="72.641" transform="translate(329.693 4463.368)" fill="#fff"/>
    <path id="shutterstock_1802230447" d="M66.08,0A66.08,66.08,0,1,1,0,66.08,66.08,66.08,0,0,1,66.08,0Z" transform="translate(336.254 4469.929)" fill="#ecedcc"/>
    <g id="Grupo_63678" data-name="Grupo 63678" transform="translate(315.388 3930.464)">
      <g id="Grupo_63669" data-name="Grupo 63669" transform="translate(94.708 570.65)">
        <g id="Grupo_63668" data-name="Grupo 63668">
          <g id="team" transform="translate(3.676)">
            <g id="Grupo_63665" data-name="Grupo 63665">
              <g id="Grupo_63664" data-name="Grupo 63664">
                <path id="Trazado_141746" data-name="Trazado 141746" d="M89.586,597.005c-5.745,0-11.384-7.131-11.384-14.4,0-6.93,4.788-11.96,11.384-11.96s11.386,5.03,11.386,11.96C100.972,590.01,95.439,597.005,89.586,597.005Zm0-23.082c-4.776,0-8.111,3.573-8.111,8.687,0,5.405,4.17,11.122,8.111,11.122,4.1,0,8.114-5.509,8.114-11.122C97.7,577.5,94.364,573.923,89.586,573.923Z" transform="translate(-78.202 -570.65)" fill="#6f7302"/>
              </g>
            </g>
          </g>
          <g id="Grupo_63666" data-name="Grupo 63666" transform="translate(4.736 18.597)">
            <path id="Trazado_141747" data-name="Trazado 141747" d="M87.873,608.088c-2.259,0-4.741-.105-7.463-.312a1.636,1.636,0,1,1,.248-3.262c18.918,1.441,22.235-2.493,23.011-6.951.455-2.577.309-6.182-2.958-8.743a18.388,18.388,0,0,0-4.941-2.789,1.636,1.636,0,0,1,1.148-3.064,21.688,21.688,0,0,1,5.813,3.279c3.544,2.778,5.023,7,4.161,11.882C105.693,605.019,100.046,608.088,87.873,608.088Z" transform="translate(-78.898 -582.861)" fill="#6f7302"/>
          </g>
          <g id="Grupo_63667" data-name="Grupo 63667" transform="translate(0 18.735)">
            <path id="Trazado_141748" data-name="Trazado 141748" d="M77.427,589.934a1.629,1.629,0,0,1-1.17-2.769,26.781,26.781,0,0,1,6.722-4.123,1.637,1.637,0,0,1,1.072,3.093,24.25,24.25,0,0,0-5.53,3.392A1.665,1.665,0,0,1,77.427,589.934Z" transform="translate(-75.788 -582.952)" fill="#6f7302"/>
          </g>
        </g>
      </g>
      <g id="Grupo_63677" data-name="Grupo 63677" transform="translate(39.612 581.765)">
        <g id="Grupo_63670" data-name="Grupo 63670" transform="translate(18.919 11.91)">
          <path id="Trazado_141749" data-name="Trazado 141749" d="M105.075,633.763a9.056,9.056,0,0,1-8.839-7.14H72.909a9.042,9.042,0,0,1-17.881-1.9,1.9,1.9,0,1,1,3.807,0,5.234,5.234,0,1,0,10.469,0,1.9,1.9,0,0,1,1.9-1.9H97.936a1.9,1.9,0,0,1,1.9,1.9,5.234,5.234,0,1,0,10.469,0,1.9,1.9,0,0,1,1.9-1.9,1.551,1.551,0,0,0,1.55-1.547v-7.313a5.338,5.338,0,0,0-5.332-5.332H95.88a1.908,1.908,0,0,1-1.71-1.068l-7.654-15.661a4.162,4.162,0,0,0-3.716-2.32H64.047a4.155,4.155,0,0,0-3.967,2.971l-4.315,14.709a1.9,1.9,0,0,1-3.654-1.072l4.313-14.707a7.986,7.986,0,0,1,7.622-5.708H82.8a8,8,0,0,1,7.138,4.455l7.132,14.593h11.361a9.15,9.15,0,0,1,9.139,9.139v7.313a5.366,5.366,0,0,1-3.6,5.058A9.058,9.058,0,0,1,105.075,633.763Z" transform="translate(-52.034 -585.768)" fill="#6f7302"/>
        </g>
        <g id="Grupo_63671" data-name="Grupo 63671" transform="translate(9.459 18.544)">
          <path id="Trazado_141750" data-name="Trazado 141750" d="M60.18,624.345H54.71a8.9,8.9,0,0,1-8.887-8.887V592.028a1.9,1.9,0,1,1,3.807,0v23.431a5.085,5.085,0,0,0,5.079,5.079H60.18a1.9,1.9,0,1,1,0,3.807Z" transform="translate(-45.823 -590.124)" fill="#6f7302"/>
        </g>
        <g id="Grupo_63672" data-name="Grupo 63672" transform="translate(4.106 8.146)">
          <path id="Trazado_141751" data-name="Trazado 141751" d="M49.565,597.5a7.266,7.266,0,0,1-7.257-7.259V585.2a1.9,1.9,0,0,1,3.807,0v5.043a3.45,3.45,0,1,0,6.9,0V585.2a1.9,1.9,0,0,1,3.807,0v5.043A7.267,7.267,0,0,1,49.565,597.5Z" transform="translate(-42.308 -583.297)" fill="#6f7302"/>
        </g>
        <g id="Grupo_63673" data-name="Grupo 63673" transform="translate(0 8.146)">
          <path id="Trazado_141752" data-name="Trazado 141752" d="M60.434,587.1H41.516a1.9,1.9,0,1,1,0-3.807H60.434a1.9,1.9,0,0,1,0,3.807Z" transform="translate(-39.612 -583.297)" fill="#6f7302"/>
        </g>
        <g id="Grupo_63674" data-name="Grupo 63674" transform="translate(6.046)">
          <path id="Trazado_141753" data-name="Trazado 141753" d="M45.486,589.9a1.9,1.9,0,0,1-1.9-1.9v-8.146a1.9,1.9,0,0,1,3.807,0V588A1.9,1.9,0,0,1,45.486,589.9Z" transform="translate(-43.582 -577.948)" fill="#6f7302"/>
        </g>
        <g id="Grupo_63675" data-name="Grupo 63675" transform="translate(12.874)">
          <path id="Trazado_141754" data-name="Trazado 141754" d="M49.969,589.9a1.9,1.9,0,0,1-1.9-1.9v-8.146a1.9,1.9,0,0,1,3.807,0V588A1.9,1.9,0,0,1,49.969,589.9Z" transform="translate(-48.065 -577.948)" fill="#6f7302"/>
        </g>
        <g id="Grupo_63676" data-name="Grupo 63676" transform="translate(18.918 30.958)">
          <path id="Trazado_141755" data-name="Trazado 141755" d="M84.8,602.082H53.938a1.9,1.9,0,1,1,0-3.807H84.8a1.9,1.9,0,1,1,0,3.807Z" transform="translate(-52.034 -598.275)" fill="#6f7302"/>
        </g>
      </g>
    </g>
  </g>
</svg>
