<svg xmlns="http://www.w3.org/2000/svg" width="154.667" height="154.667" viewBox="0 0 154.667 154.667">
  <g id="Grupo_63835" data-name="Grupo 63835" transform="translate(-325 -3930.675)">
    <path id="Trazado_105094" data-name="Trazado 105094" d="M2682.54,6466.171q3.8,0,7.58.373t7.507,1.114q3.727.739,7.362,1.843t7.146,2.557q3.51,1.453,6.861,3.244t6.51,3.9q3.158,2.111,6.1,4.521t5.623,5.1q2.687,2.687,5.1,5.623t4.521,6.1q2.111,3.157,3.9,6.509t3.245,6.861q1.454,3.509,2.557,7.145t1.844,7.362q.741,3.727,1.114,7.506t.373,7.581q0,3.8-.373,7.58t-1.114,7.508q-.742,3.726-1.844,7.361t-2.557,7.146q-1.455,3.51-3.245,6.861t-3.9,6.51q-2.111,3.158-4.521,6.1t-5.1,5.623q-2.686,2.689-5.623,5.1t-6.1,4.521q-3.159,2.111-6.51,3.9t-6.861,3.244q-3.509,1.454-7.146,2.557t-7.362,1.844q-3.725.743-7.507,1.114t-7.58.373q-3.8,0-7.58-.373t-7.507-1.114q-3.725-.741-7.362-1.844t-7.146-2.557q-3.51-1.455-6.86-3.244t-6.51-3.9q-3.159-2.109-6.1-4.521t-5.624-5.1q-2.686-2.687-5.1-5.623t-4.521-6.1q-2.111-3.16-3.9-6.51t-3.244-6.861q-1.455-3.509-2.557-7.146t-1.844-7.361q-.741-3.727-1.113-7.508t-.372-7.58q0-3.8.372-7.581t1.113-7.506q.741-3.725,1.844-7.362t2.557-7.145q1.453-3.511,3.244-6.861t3.9-6.509q2.111-3.159,4.521-6.1t5.1-5.623q2.688-2.688,5.624-5.1t6.1-4.521q3.158-2.109,6.51-3.9t6.86-3.244q3.51-1.455,7.146-2.557t7.362-1.843q3.726-.743,7.507-1.114T2682.54,6466.171Z" transform="translate(-2280.207 -2535.496)" fill="#a0a603"/>
    <circle id="Elipse_1224" data-name="Elipse 1224" cx="72.641" cy="72.641" r="72.641" transform="translate(329.693 3935.368)" fill="#fff"/>
    <path id="shutterstock_1802230447" d="M66.08,0A66.08,66.08,0,1,1,0,66.08,66.08,66.08,0,0,1,66.08,0Z" transform="translate(336.254 3941.929)" fill="#ecedcc"/>
    <g id="Grupo_63587" data-name="Grupo 63587" transform="translate(315.893 3615.822)">
      <g id="Grupo_63586" data-name="Grupo 63586" transform="translate(46.108 349.178)">
        <g id="Grupo_63585" data-name="Grupo 63585">
          <g id="Grupo_63584" data-name="Grupo 63584">
            <g id="Grupo_63577" data-name="Grupo 63577">
              <g id="Grupo_63566" data-name="Grupo 63566" transform="translate(37.154)">
                <path id="Trazado_141677" data-name="Trazado 141677" d="M69.945,357.939a1.644,1.644,0,0,1-1.644-1.644v-5.473a1.645,1.645,0,0,1,3.29,0v5.473A1.644,1.644,0,0,1,69.945,357.939Z" transform="translate(-68.301 -349.178)" fill="#6f7302"/>
              </g>
              <g id="Grupo_63567" data-name="Grupo 63567" transform="translate(21.767 3.287)">
                <path id="Trazado_141678" data-name="Trazado 141678" d="M62.976,359.433a1.645,1.645,0,0,1-1.5-.979l-2.22-5a1.645,1.645,0,0,1,3.007-1.334l2.22,5a1.646,1.646,0,0,1-1.5,2.314Z" transform="translate(-59.11 -351.141)" fill="#6f7302"/>
              </g>
              <g id="Grupo_63568" data-name="Grupo 63568" transform="translate(9.144 12.659)">
                <path id="Trazado_141679" data-name="Trazado 141679" d="M57.165,363.577a1.645,1.645,0,0,1-1.1-.42l-3.951-3.551a1.645,1.645,0,1,1,2.2-2.448l3.953,3.551a1.645,1.645,0,0,1-1.1,2.868Z" transform="translate(-51.57 -356.74)" fill="#6f7302"/>
              </g>
              <g id="Grupo_63569" data-name="Grupo 63569" transform="translate(1.468 26.296)">
                <path id="Trazado_141680" data-name="Trazado 141680" d="M53.526,369.766a1.642,1.642,0,0,1-.509-.082l-4.9-1.59a1.645,1.645,0,1,1,1.016-3.129l4.9,1.59a1.646,1.646,0,0,1-.509,3.211Z" transform="translate(-46.985 -364.885)" fill="#6f7302"/>
              </g>
              <g id="Grupo_63570" data-name="Grupo 63570" transform="translate(0 41.277)">
                <path id="Trazado_141681" data-name="Trazado 141681" d="M47.752,377.633a1.644,1.644,0,0,1-.166-3.28l4.982-.507a1.622,1.622,0,0,1,1.8,1.468,1.645,1.645,0,0,1-1.468,1.8l-4.984.507A1.415,1.415,0,0,1,47.752,377.633Z" transform="translate(-46.108 -373.834)" fill="#6f7302"/>
              </g>
              <g id="Grupo_63571" data-name="Grupo 63571" transform="translate(4.965 54.077)">
                <path id="Trazado_141682" data-name="Trazado 141682" d="M50.72,387.182a1.644,1.644,0,0,1-.824-3.069l4.179-2.412a1.645,1.645,0,1,1,1.644,2.849l-4.177,2.412A1.645,1.645,0,0,1,50.72,387.182Z" transform="translate(-49.073 -381.48)" fill="#6f7302"/>
              </g>
              <g id="Grupo_63572" data-name="Grupo 63572" transform="translate(65.25 54.026)">
                <path id="Trazado_141683" data-name="Trazado 141683" d="M90.905,387.168a1.627,1.627,0,0,1-.825-.223L85.9,384.516a1.644,1.644,0,1,1,1.654-2.843l4.179,2.429a1.644,1.644,0,0,1-.829,3.065Z" transform="translate(-85.084 -381.449)" fill="#6f7302"/>
              </g>
              <g id="Grupo_63573" data-name="Grupo 63573" transform="translate(69.394 41.224)">
                <path id="Trazado_141684" data-name="Trazado 141684" d="M94.189,377.6a1.449,1.449,0,0,1-.169-.01l-4.982-.506a1.645,1.645,0,0,1,.333-3.273l4.982.507a1.645,1.645,0,0,1-.164,3.281Z" transform="translate(-87.559 -373.802)" fill="#6f7302"/>
              </g>
              <g id="Grupo_63574" data-name="Grupo 63574" transform="translate(67.977 26.243)">
                <path id="Trazado_141685" data-name="Trazado 141685" d="M88.357,369.734a1.644,1.644,0,0,1-.509-3.208l4.878-1.592a1.645,1.645,0,0,1,1.02,3.127l-4.878,1.592A1.642,1.642,0,0,1,88.357,369.734Z" transform="translate(-86.712 -364.854)" fill="#6f7302"/>
              </g>
              <g id="Grupo_63575" data-name="Grupo 63575" transform="translate(61.229 12.694)">
                <path id="Trazado_141686" data-name="Trazado 141686" d="M84.328,363.528a1.645,1.645,0,0,1-1.1-2.868l3.864-3.479a1.645,1.645,0,0,1,2.2,2.446l-3.864,3.479A1.641,1.641,0,0,1,84.328,363.528Z" transform="translate(-82.682 -356.76)" fill="#6f7302"/>
              </g>
              <g id="Grupo_63576" data-name="Grupo 63576" transform="translate(50.337 3.355)">
                <path id="Trazado_141687" data-name="Trazado 141687" d="M77.819,359.387a1.624,1.624,0,0,1-.666-.142,1.646,1.646,0,0,1-.835-2.171L78.5,352.16a1.645,1.645,0,0,1,3.005,1.338l-2.186,4.912A1.645,1.645,0,0,1,77.819,359.387Z" transform="translate(-76.175 -351.182)" fill="#6f7302"/>
              </g>
            </g>
            <g id="Grupo_63583" data-name="Grupo 63583" transform="translate(17.396 15.454)">
              <g id="Grupo_63578" data-name="Grupo 63578">
                <path id="Trazado_141688" data-name="Trazado 141688" d="M97.88,393.534a1.884,1.884,0,0,1-1.642-2.8,19.2,19.2,0,1,0-33.658-.2,1.883,1.883,0,0,1-3.308,1.8,22.967,22.967,0,1,1,40.253.244A1.882,1.882,0,0,1,97.88,393.534Z" transform="translate(-56.499 -358.409)" fill="#6f7302"/>
              </g>
              <g id="Grupo_63579" data-name="Grupo 63579" transform="translate(2.672 31.36)">
                <path id="Trazado_141689" data-name="Trazado 141689" d="M87.766,402.526H69.012a1.882,1.882,0,0,1-1.736-1.155l-9.035-21.621a1.881,1.881,0,0,1,1.736-2.608H96.8a1.881,1.881,0,0,1,1.736,2.608L89.5,401.371A1.88,1.88,0,0,1,87.766,402.526Zm-17.5-3.765H86.512l7.463-17.854H62.8Z" transform="translate(-58.095 -377.141)" fill="#6f7302"/>
              </g>
              <g id="Grupo_63580" data-name="Grupo 63580" transform="translate(12.864 59.003)">
                <path id="Trazado_141690" data-name="Trazado 141690" d="M82.5,397.418H66.065a1.883,1.883,0,0,1,0-3.765H82.5a1.883,1.883,0,0,1,0,3.765Z" transform="translate(-64.183 -393.653)" fill="#6f7302"/>
              </g>
              <g id="Grupo_63581" data-name="Grupo 63581" transform="translate(11.707 52.979)">
                <path id="Trazado_141691" data-name="Trazado 141691" d="M84.127,393.82H65.374a1.883,1.883,0,0,1,0-3.765H84.127a1.883,1.883,0,0,1,0,3.765Z" transform="translate(-63.492 -390.055)" fill="#6f7302"/>
              </g>
              <g id="Grupo_63582" data-name="Grupo 63582" transform="translate(19.388 65.026)">
                <path id="Trazado_141692" data-name="Trazado 141692" d="M73.354,401.016h-3.39a1.883,1.883,0,1,1,0-3.765h3.39a1.883,1.883,0,0,1,0,3.765Z" transform="translate(-68.08 -397.251)" fill="#6f7302"/>
              </g>
            </g>
          </g>
        </g>
      </g>
    </g>
  </g>
</svg>
