<svg xmlns="http://www.w3.org/2000/svg" width="154.667" height="154.667" viewBox="0 0 154.667 154.667">
  <g id="Grupo_63834" data-name="Grupo 63834" transform="translate(-325 -3491.675)">
    <path id="Trazado_105094" data-name="Trazado 105094" d="M2682.54,6466.171q3.8,0,7.58.373t7.507,1.114q3.727.739,7.362,1.843t7.146,2.557q3.51,1.453,6.861,3.244t6.51,3.9q3.158,2.111,6.1,4.521t5.623,5.1q2.687,2.687,5.1,5.623t4.521,6.1q2.111,3.157,3.9,6.509t3.245,6.861q1.454,3.509,2.557,7.145t1.844,7.362q.741,3.727,1.114,7.506t.373,7.581q0,3.8-.373,7.58t-1.114,7.508q-.742,3.726-1.844,7.361t-2.557,7.146q-1.455,3.51-3.245,6.861t-3.9,6.51q-2.111,3.158-4.521,6.1t-5.1,5.623q-2.686,2.689-5.623,5.1t-6.1,4.521q-3.159,2.111-6.51,3.9t-6.861,3.244q-3.509,1.454-7.146,2.557t-7.362,1.844q-3.725.743-7.507,1.114t-7.58.373q-3.8,0-7.58-.373t-7.507-1.114q-3.725-.741-7.362-1.844t-7.146-2.557q-3.51-1.455-6.86-3.244t-6.51-3.9q-3.159-2.109-6.1-4.521t-5.624-5.1q-2.686-2.687-5.1-5.623t-4.521-6.1q-2.111-3.16-3.9-6.51t-3.244-6.861q-1.455-3.509-2.557-7.146t-1.844-7.361q-.741-3.727-1.113-7.508t-.372-7.58q0-3.8.372-7.581t1.113-7.506q.741-3.725,1.844-7.362t2.557-7.145q1.453-3.511,3.244-6.861t3.9-6.509q2.111-3.159,4.521-6.1t5.1-5.623q2.688-2.688,5.624-5.1t6.1-4.521q3.158-2.109,6.51-3.9t6.86-3.244q3.51-1.455,7.146-2.557t7.362-1.843q3.726-.743,7.507-1.114T2682.54,6466.171Z" transform="translate(-2280.207 -2974.496)" fill="#529ad9"/>
    <circle id="Elipse_1224" data-name="Elipse 1224" cx="72.641" cy="72.641" r="72.641" transform="translate(329.693 3496.368)" fill="#fff"/>
    <path id="shutterstock_1802230447" d="M66.08,0A66.08,66.08,0,1,1,0,66.08,66.08,66.08,0,0,1,66.08,0Z" transform="translate(336.254 3502.929)" fill="#dcebf8"/>
    <g id="Grupo_63565" data-name="Grupo 63565" transform="translate(132.105 3399.908)">
      <g id="Grupo_63560" data-name="Grupo 63560" transform="translate(227.895 147.292)">
        <g id="Grupo_63553" data-name="Grupo 63553">
          <g id="Grupo_63552" data-name="Grupo 63552">
            <g id="team" transform="translate(6.079)">
              <g id="Grupo_63549" data-name="Grupo 63549">
                <g id="Grupo_63548" data-name="Grupo 63548">
                  <path id="Trazado_141669" data-name="Trazado 141669" d="M241.337,170.406c-5.445,0-10.594-6.51-10.594-13.394,0-6.449,4.455-11.128,10.594-11.128s10.594,4.679,10.594,11.128C251.931,163.77,246.682,170.406,241.337,170.406Zm0-21.476c-4.444,0-7.548,3.321-7.548,8.082,0,5.223,3.738,10.348,7.548,10.348,3.667,0,7.548-5.319,7.548-10.348C248.885,152.251,245.781,148.93,241.337,148.93Z" transform="translate(-230.743 -145.884)" fill="#1f5e96"/>
                </g>
              </g>
            </g>
            <g id="Grupo_63550" data-name="Grupo 63550" transform="translate(0 17.303)">
              <path id="Trazado_141670" data-name="Trazado 141670" d="M245.8,177.457c-11.3,0-16.554-2.856-17.683-9.264-.8-4.536.581-8.464,3.889-11.057a20.061,20.061,0,0,1,5.392-3.048,1.522,1.522,0,0,1,1.067,2.852,17.075,17.075,0,0,0-4.579,2.591c-2.418,1.9-3.377,4.707-2.771,8.133.734,4.162,3.851,7.819,21.54,6.455a1.522,1.522,0,1,1,.235,3.035C250.3,177.355,247.943,177.457,245.8,177.457Z" transform="translate(-227.895 -153.99)" fill="#1f5e96"/>
            </g>
            <g id="Grupo_63551" data-name="Grupo 63551" transform="translate(22.062 17.485)">
              <path id="Trazado_141671" data-name="Trazado 141671" d="M245.252,160.485a1.52,1.52,0,0,1-1.076-.446,22.167,22.167,0,0,0-4.922-3,1.523,1.523,0,1,1,1-2.877,24.307,24.307,0,0,1,6.075,3.727,1.522,1.522,0,0,1-1.076,2.6Z" transform="translate(-238.23 -154.075)" fill="#1f5e96"/>
            </g>
          </g>
        </g>
        <g id="Grupo_63559" data-name="Grupo 63559" transform="translate(54.589)">
          <g id="Grupo_63558" data-name="Grupo 63558">
            <g id="team-2" data-name="team" transform="translate(3.42)">
              <g id="Grupo_63555" data-name="Grupo 63555">
                <g id="Grupo_63554" data-name="Grupo 63554">
                  <path id="Trazado_141672" data-name="Trazado 141672" d="M265.665,170.406c-5.347,0-10.594-6.636-10.594-13.394,0-6.449,4.455-11.128,10.594-11.128s10.594,4.679,10.594,11.128C276.259,163.9,271.11,170.406,265.665,170.406Zm0-21.476c-4.444,0-7.548,3.321-7.548,8.082,0,5.029,3.879,10.348,7.548,10.348,3.808,0,7.548-5.125,7.548-10.348C273.213,152.251,270.109,148.93,265.665,148.93Z" transform="translate(-255.071 -145.884)" fill="#1f5e96"/>
                </g>
              </g>
            </g>
            <g id="Grupo_63556" data-name="Grupo 63556" transform="translate(4.406 17.303)">
              <path id="Trazado_141673" data-name="Trazado 141673" d="M263.884,177.462q-3.151,0-6.944-.29a1.522,1.522,0,0,1,.231-3.035c17.6,1.341,20.691-2.32,21.412-6.468a8.039,8.039,0,0,0-2.754-8.135,17.035,17.035,0,0,0-4.6-2.594,1.523,1.523,0,0,1,1.067-2.852,20.19,20.19,0,0,1,5.411,3.05c3.3,2.585,4.673,6.51,3.87,11.055C280.465,174.606,275.21,177.462,263.884,177.462Z" transform="translate(-255.533 -153.99)" fill="#1f5e96"/>
            </g>
            <g id="Grupo_63557" data-name="Grupo 63557" transform="translate(0 17.432)">
              <path id="Trazado_141674" data-name="Trazado 141674" d="M254.994,160.547a1.516,1.516,0,0,1-1.089-2.576,24.822,24.822,0,0,1,6.254-3.836,1.523,1.523,0,0,1,1,2.877,22.517,22.517,0,0,0-5.146,3.155A1.544,1.544,0,0,1,254.994,160.547Z" transform="translate(-253.469 -154.05)" fill="#1f5e96"/>
            </g>
          </g>
        </g>
      </g>
      <g id="Grupo_63564" data-name="Grupo 63564" transform="translate(249.683 144.643)">
        <g id="team-3" data-name="team" transform="translate(8.318)">
          <g id="Grupo_63562" data-name="Grupo 63562">
            <g id="Grupo_63561" data-name="Grupo 63561">
              <path id="Trazado_141675" data-name="Trazado 141675" d="M254.531,173.754c-6.442,0-12.532-7.742-12.532-15.933,0-7.638,5.27-13.179,12.532-13.179s12.532,5.541,12.532,13.179C267.063,165.863,260.856,173.754,254.531,173.754Zm0-26.067c-5.586,0-9.488,4.169-9.488,10.135,0,6.5,4.7,12.889,9.488,12.889,4.611,0,9.488-6.626,9.488-12.889C264.019,151.856,260.117,147.687,254.531,147.687Z" transform="translate(-241.999 -144.643)" fill="#1f5e96"/>
            </g>
          </g>
        </g>
        <g id="Grupo_63563" data-name="Grupo 63563" transform="translate(0 21.217)">
          <path id="Trazado_141676" data-name="Trazado 141676" d="M259.059,183.142a65.945,65.945,0,0,1-9.48-.683,13.227,13.227,0,0,1-10.978-9.983l-.132-.544a13.245,13.245,0,0,1,4.7-13.512,24.929,24.929,0,0,1,6.624-3.74,1.522,1.522,0,0,1,1.072,2.85,22.007,22.007,0,0,0-5.819,3.287,10.2,10.2,0,0,0-3.612,10.4l.13.542a10.185,10.185,0,0,0,8.451,7.684,63.473,63.473,0,0,0,17.224.128l.634-.09a10.174,10.174,0,0,0,4.991-18.1l-.717-.568a21.73,21.73,0,0,0-5.5-3.161,1.522,1.522,0,0,1,1.112-2.833,24.679,24.679,0,0,1,6.276,3.6l.715.566a13.218,13.218,0,0,1-6.464,23.51l-.634.092A67.5,67.5,0,0,1,259.059,183.142Z" transform="translate(-238.102 -154.582)" fill="#1f5e96"/>
        </g>
      </g>
    </g>
  </g>
</svg>
