<svg xmlns="http://www.w3.org/2000/svg" width="154.667" height="154.667" viewBox="0 0 154.667 154.667">
  <g id="Grupo_63836" data-name="Grupo 63836" transform="translate(-325 -4106.675)">
    <path id="Trazado_105094" data-name="Trazado 105094" d="M2682.54,6466.171q3.8,0,7.58.373t7.507,1.114q3.727.739,7.362,1.843t7.146,2.557q3.51,1.453,6.861,3.244t6.51,3.9q3.158,2.111,6.1,4.521t5.623,5.1q2.687,2.687,5.1,5.623t4.521,6.1q2.111,3.157,3.9,6.509t3.245,6.861q1.454,3.509,2.557,7.145t1.844,7.362q.741,3.727,1.114,7.506t.373,7.581q0,3.8-.373,7.58t-1.114,7.508q-.742,3.726-1.844,7.361t-2.557,7.146q-1.455,3.51-3.245,6.861t-3.9,6.51q-2.111,3.158-4.521,6.1t-5.1,5.623q-2.686,2.689-5.623,5.1t-6.1,4.521q-3.159,2.111-6.51,3.9t-6.861,3.244q-3.509,1.454-7.146,2.557t-7.362,1.844q-3.725.743-7.507,1.114t-7.58.373q-3.8,0-7.58-.373t-7.507-1.114q-3.725-.741-7.362-1.844t-7.146-2.557q-3.51-1.455-6.86-3.244t-6.51-3.9q-3.159-2.109-6.1-4.521t-5.624-5.1q-2.686-2.687-5.1-5.623t-4.521-6.1q-2.111-3.16-3.9-6.51t-3.244-6.861q-1.455-3.509-2.557-7.146t-1.844-7.361q-.741-3.727-1.113-7.508t-.372-7.58q0-3.8.372-7.581t1.113-7.506q.741-3.725,1.844-7.362t2.557-7.145q1.453-3.511,3.244-6.861t3.9-6.509q2.111-3.159,4.521-6.1t5.1-5.623q2.688-2.688,5.624-5.1t6.1-4.521q3.158-2.109,6.51-3.9t6.86-3.244q3.51-1.455,7.146-2.557t7.362-1.843q3.726-.743,7.507-1.114T2682.54,6466.171Z" transform="translate(-2280.207 -2359.496)" fill="#a0a603"/>
    <circle id="Elipse_1224" data-name="Elipse 1224" cx="72.641" cy="72.641" r="72.641" transform="translate(329.693 4111.368)" fill="#fff"/>
    <path id="shutterstock_1802230447" d="M66.08,0A66.08,66.08,0,1,1,0,66.08,66.08,66.08,0,0,1,66.08,0Z" transform="translate(336.254 4117.929)" fill="#ecedcc"/>
    <g id="Grupo_63663" data-name="Grupo 63663" transform="translate(321.444 3643.275)">
      <g id="Grupo_63642" data-name="Grupo 63642" transform="translate(43.62 503.302)">
        <g id="Grupo_63599" data-name="Grupo 63599" transform="translate(20.221 20.227)">
          <path id="Trazado_141702" data-name="Trazado 141702" d="M72.5,548.5a16.438,16.438,0,1,1,16.437-16.438A16.458,16.458,0,0,1,72.5,548.5Zm0-29.769a13.331,13.331,0,1,0,13.331,13.331A13.347,13.347,0,0,0,72.5,518.731Z" transform="translate(-56.064 -515.623)" fill="#6f7302"/>
        </g>
        <g id="Grupo_63600" data-name="Grupo 63600" transform="translate(35.106 50.332)">
          <path id="Trazado_141703" data-name="Trazado 141703" d="M68.8,551.892a1.554,1.554,0,0,1-1.554-1.553V539.8a1.554,1.554,0,0,1,3.107,0v10.541A1.554,1.554,0,0,1,68.8,551.892Z" transform="translate(-67.249 -538.244)" fill="#6f7302"/>
        </g>
        <g id="Grupo_63601" data-name="Grupo 63601" transform="translate(35.106 9.352)">
          <path id="Trazado_141704" data-name="Trazado 141704" d="M68.8,521.107a1.553,1.553,0,0,1-1.554-1.553V509.005a1.554,1.554,0,1,1,3.107,0v10.548A1.553,1.553,0,0,1,68.8,521.107Z" transform="translate(-67.249 -507.451)" fill="#6f7302"/>
        </g>
        <g id="Grupo_63602" data-name="Grupo 63602" transform="translate(45.863 45.874)">
          <path id="Trazado_141705" data-name="Trazado 141705" d="M87.44,548.555a1.553,1.553,0,0,1-1.1-.454L75.787,537.546a1.554,1.554,0,0,1,2.2-2.2L88.539,545.9a1.552,1.552,0,0,1-1.1,2.651Z" transform="translate(-75.332 -534.894)" fill="#6f7302"/>
        </g>
        <g id="Grupo_63603" data-name="Grupo 63603" transform="translate(18.195 18.202)">
          <path id="Trazado_141706" data-name="Trazado 141706" d="M58.827,519.939a1.547,1.547,0,0,1-1.1-.455L55,516.752a1.553,1.553,0,0,1,2.2-2.2l2.731,2.731a1.554,1.554,0,0,1-1.1,2.652Z" transform="translate(-54.542 -514.101)" fill="#6f7302"/>
        </g>
        <g id="Grupo_63613" data-name="Grupo 63613">
          <g id="Grupo_63604" data-name="Grupo 63604">
            <path id="Trazado_141707" data-name="Trazado 141707" d="M52.874,524.445a12.011,12.011,0,1,1,8.493-3.517A11.933,11.933,0,0,1,52.874,524.445Zm0-20.914a8.9,8.9,0,1,0,6.3,2.607A8.847,8.847,0,0,0,52.874,503.531Z" transform="translate(-40.87 -500.424)" fill="#6f7302"/>
          </g>
          <g id="Grupo_63612" data-name="Grupo 63612" transform="translate(6.391 1.111)">
            <g id="Grupo_63611" data-name="Grupo 63611">
              <g id="Grupo_63610" data-name="Grupo 63610">
                <g id="Grupo_63605" data-name="Grupo 63605" transform="translate(0 2.977)">
                  <path id="Trazado_141708" data-name="Trazado 141708" d="M51.317,519.338c-2.925,0-5.315-1.862-5.559-4.331a1.554,1.554,0,1,1,3.093-.306c.072.739,1.081,1.529,2.466,1.529,1.46,0,2.475-.857,2.475-1.628,0-.016-.108-1.616-2.5-1.616-3.877,0-5.62-2.777-5.62-4.751,0-2.614,2.5-4.74,5.577-4.74,2.946,0,5.339,1.876,5.567,4.366a1.553,1.553,0,1,1-3.094.282c-.068-.744-1.078-1.541-2.473-1.541-1.316,0-2.471.763-2.471,1.633,0,.326.448,1.644,2.514,1.644,4.086,0,5.608,2.9,5.608,4.723C56.9,517.214,54.4,519.338,51.317,519.338Z" transform="translate(-45.672 -503.496)" fill="#6f7302"/>
                </g>
                <g id="Grupo_63606" data-name="Grupo 63606" transform="translate(4.056)">
                  <path id="Trazado_141709" data-name="Trazado 141709" d="M50.273,506.7a1.553,1.553,0,0,1-1.553-1.554v-2.332a1.553,1.553,0,1,1,3.106,0v2.332A1.553,1.553,0,0,1,50.273,506.7Z" transform="translate(-48.72 -501.259)" fill="#6f7302"/>
                </g>
                <g id="Grupo_63607" data-name="Grupo 63607" transform="translate(4.056 16.352)">
                  <path id="Trazado_141710" data-name="Trazado 141710" d="M50.273,519a1.553,1.553,0,0,1-1.553-1.553V515.1a1.553,1.553,0,1,1,3.106,0v2.348A1.553,1.553,0,0,1,50.273,519Z" transform="translate(-48.72 -513.546)" fill="#6f7302"/>
                </g>
                <g id="Grupo_63608" data-name="Grupo 63608" transform="translate(4.056 4.275)">
                  <path id="Trazado_141711" data-name="Trazado 141711" d="M50.273,509.005a1.553,1.553,0,0,1-1.553-1.554v-1.427a1.553,1.553,0,1,1,3.106,0v1.427A1.553,1.553,0,0,1,50.273,509.005Z" transform="translate(-48.72 -504.471)" fill="#6f7302"/>
                </g>
                <g id="Grupo_63609" data-name="Grupo 63609" transform="translate(4.056 12.969)">
                  <path id="Trazado_141712" data-name="Trazado 141712" d="M50.273,515.6a1.553,1.553,0,0,1-1.553-1.554v-1.491a1.553,1.553,0,1,1,3.106,0v1.491A1.553,1.553,0,0,1,50.273,515.6Z" transform="translate(-48.72 -511.004)" fill="#6f7302"/>
                </g>
              </g>
            </g>
          </g>
        </g>
        <g id="Grupo_63614" data-name="Grupo 63614" transform="translate(9.353 35.116)">
          <path id="Trazado_141713" data-name="Trazado 141713" d="M60,529.917H49.452a1.553,1.553,0,1,1,0-3.106H59.989A1.553,1.553,0,1,1,60,529.917Z" transform="translate(-47.898 -526.811)" fill="#6f7302"/>
        </g>
        <g id="Grupo_63615" data-name="Grupo 63615" transform="translate(55.182 35.116)">
          <path id="Trazado_141714" data-name="Trazado 141714" d="M87.738,529.917H83.887a1.553,1.553,0,0,1,0-3.106h3.851a1.553,1.553,0,1,1,0,3.106Z" transform="translate(-82.334 -526.811)" fill="#6f7302"/>
        </g>
        <g id="Grupo_63625" data-name="Grupo 63625" transform="translate(59.522 24.655)">
          <g id="Grupo_63616" data-name="Grupo 63616">
            <path id="Trazado_141715" data-name="Trazado 141715" d="M97.6,542.971a12.014,12.014,0,1,1,8.492-3.519A11.927,11.927,0,0,1,97.6,542.971Zm0-20.914a8.9,8.9,0,1,0,6.3,2.607A8.85,8.85,0,0,0,97.6,522.057Z" transform="translate(-85.596 -518.95)" fill="#6f7302"/>
          </g>
          <g id="Grupo_63624" data-name="Grupo 63624" transform="translate(6.39 1.113)">
            <g id="Grupo_63623" data-name="Grupo 63623">
              <g id="Grupo_63622" data-name="Grupo 63622">
                <g id="Grupo_63617" data-name="Grupo 63617" transform="translate(0 2.976)">
                  <path id="Trazado_141716" data-name="Trazado 141716" d="M96.042,537.864c-2.924,0-5.314-1.862-5.558-4.332a1.553,1.553,0,0,1,3.092-.3c.073.739,1.081,1.529,2.466,1.529,1.46,0,2.477-.857,2.477-1.626,0-.016-.108-1.617-2.5-1.617-3.877,0-5.621-2.779-5.621-4.751,0-2.614,2.5-4.74,5.579-4.74,2.946,0,5.339,1.877,5.567,4.366a1.554,1.554,0,1,1-3.1.282c-.067-.744-1.077-1.542-2.471-1.542-1.316,0-2.471.764-2.471,1.634,0,.326.448,1.645,2.514,1.645,4.086,0,5.608,2.9,5.608,4.723C101.626,535.74,99.122,537.864,96.042,537.864Z" transform="translate(-90.397 -522.022)" fill="#6f7302"/>
                </g>
                <g id="Grupo_63618" data-name="Grupo 63618" transform="translate(4.056)">
                  <path id="Trazado_141717" data-name="Trazado 141717" d="M95,525.225a1.554,1.554,0,0,1-1.554-1.553v-2.333a1.554,1.554,0,0,1,3.107,0v2.333A1.554,1.554,0,0,1,95,525.225Z" transform="translate(-93.445 -519.786)" fill="#6f7302"/>
                </g>
                <g id="Grupo_63619" data-name="Grupo 63619" transform="translate(4.056 16.351)">
                  <path id="Trazado_141718" data-name="Trazado 141718" d="M95,537.527a1.555,1.555,0,0,1-1.554-1.554v-2.348a1.554,1.554,0,0,1,3.107,0v2.348A1.554,1.554,0,0,1,95,537.527Z" transform="translate(-93.445 -532.072)" fill="#6f7302"/>
                </g>
                <g id="Grupo_63620" data-name="Grupo 63620" transform="translate(4.056 4.273)">
                  <path id="Trazado_141719" data-name="Trazado 141719" d="M95,527.531a1.554,1.554,0,0,1-1.554-1.553V524.55a1.554,1.554,0,0,1,3.107,0v1.428A1.554,1.554,0,0,1,95,527.531Z" transform="translate(-93.445 -522.997)" fill="#6f7302"/>
                </g>
                <g id="Grupo_63621" data-name="Grupo 63621" transform="translate(4.056 12.968)">
                  <path id="Trazado_141720" data-name="Trazado 141720" d="M95,534.128a1.554,1.554,0,0,1-1.554-1.553v-1.492a1.554,1.554,0,0,1,3.107,0v1.492A1.554,1.554,0,0,1,95,534.128Z" transform="translate(-93.445 -529.53)" fill="#6f7302"/>
                </g>
              </g>
            </g>
          </g>
        </g>
        <g id="Grupo_63626" data-name="Grupo 63626" transform="translate(45.863 13.647)">
          <path id="Trazado_141721" data-name="Trazado 141721" d="M76.886,524.5a1.553,1.553,0,0,1-1.1-2.652l10.725-10.712a1.554,1.554,0,0,1,2.2,2.2L77.983,524.043A1.55,1.55,0,0,1,76.886,524.5Z" transform="translate(-75.332 -510.679)" fill="#6f7302"/>
        </g>
        <g id="Grupo_63627" data-name="Grupo 63627" transform="translate(18.195 49.308)">
          <path id="Trazado_141722" data-name="Trazado 141722" d="M56.1,543.315a1.553,1.553,0,0,1-1.1-2.65l2.72-2.734a1.554,1.554,0,0,1,2.2,2.192l-2.72,2.733A1.545,1.545,0,0,1,56.1,543.315Z" transform="translate(-54.542 -537.475)" fill="#6f7302"/>
        </g>
        <g id="Grupo_63637" data-name="Grupo 63637" transform="translate(0 49.31)">
          <g id="Grupo_63628" data-name="Grupo 63628">
            <path id="Trazado_141723" data-name="Trazado 141723" d="M52.874,561.5a12.011,12.011,0,1,1,8.493-3.519A11.929,11.929,0,0,1,52.874,561.5Zm0-20.914a8.9,8.9,0,1,0,6.3,2.607A8.847,8.847,0,0,0,52.874,540.583Z" transform="translate(-40.87 -537.476)" fill="#6f7302"/>
          </g>
          <g id="Grupo_63636" data-name="Grupo 63636" transform="translate(6.391 1.111)">
            <g id="Grupo_63635" data-name="Grupo 63635">
              <g id="Grupo_63634" data-name="Grupo 63634">
                <g id="Grupo_63629" data-name="Grupo 63629" transform="translate(0 2.977)">
                  <path id="Trazado_141724" data-name="Trazado 141724" d="M51.317,556.39c-2.925,0-5.315-1.862-5.559-4.33a1.554,1.554,0,0,1,3.093-.306c.072.739,1.081,1.529,2.466,1.529,1.46,0,2.475-.857,2.475-1.628,0-.016-.108-1.616-2.5-1.616-3.877,0-5.62-2.779-5.62-4.752,0-2.612,2.5-4.739,5.577-4.739,2.946,0,5.339,1.876,5.567,4.366a1.554,1.554,0,1,1-3.094.282c-.068-.744-1.078-1.541-2.473-1.541-1.316,0-2.471.763-2.471,1.632,0,.327.448,1.645,2.514,1.645,4.086,0,5.608,2.9,5.608,4.723C56.9,554.266,54.4,556.39,51.317,556.39Z" transform="translate(-45.672 -540.548)" fill="#6f7302"/>
                </g>
                <g id="Grupo_63630" data-name="Grupo 63630" transform="translate(4.056)">
                  <path id="Trazado_141725" data-name="Trazado 141725" d="M50.273,543.751A1.553,1.553,0,0,1,48.72,542.2v-2.333a1.553,1.553,0,1,1,3.106,0V542.2A1.553,1.553,0,0,1,50.273,543.751Z" transform="translate(-48.72 -538.311)" fill="#6f7302"/>
                </g>
                <g id="Grupo_63631" data-name="Grupo 63631" transform="translate(4.056 16.352)">
                  <path id="Trazado_141726" data-name="Trazado 141726" d="M50.273,556.053A1.553,1.553,0,0,1,48.72,554.5v-2.349a1.553,1.553,0,0,1,3.106,0V554.5A1.553,1.553,0,0,1,50.273,556.053Z" transform="translate(-48.72 -550.598)" fill="#6f7302"/>
                </g>
                <g id="Grupo_63632" data-name="Grupo 63632" transform="translate(4.056 4.275)">
                  <path id="Trazado_141727" data-name="Trazado 141727" d="M50.273,546.057A1.553,1.553,0,0,1,48.72,544.5v-1.427a1.553,1.553,0,0,1,3.106,0V544.5A1.553,1.553,0,0,1,50.273,546.057Z" transform="translate(-48.72 -541.523)" fill="#6f7302"/>
                </g>
                <g id="Grupo_63633" data-name="Grupo 63633" transform="translate(4.056 12.968)">
                  <path id="Trazado_141728" data-name="Trazado 141728" d="M50.273,552.654A1.553,1.553,0,0,1,48.72,551.1v-1.491a1.553,1.553,0,1,1,3.106,0V551.1A1.553,1.553,0,0,1,50.273,552.654Z" transform="translate(-48.72 -548.055)" fill="#6f7302"/>
                </g>
              </g>
            </g>
          </g>
        </g>
        <g id="Grupo_63639" data-name="Grupo 63639" transform="translate(27.237 27.242)">
          <g id="Grupo_63638" data-name="Grupo 63638">
            <path id="Trazado_141729" data-name="Trazado 141729" d="M70.76,539.741a9.424,9.424,0,1,1,9.424-9.424A9.435,9.435,0,0,1,70.76,539.741Zm0-15.74a6.316,6.316,0,1,0,6.316,6.316A6.323,6.323,0,0,0,70.76,524Z" transform="translate(-61.336 -520.894)" fill="#6f7302"/>
          </g>
        </g>
        <g id="Grupo_63641" data-name="Grupo 63641" transform="translate(34.64 34.645)">
          <g id="Grupo_63640" data-name="Grupo 63640">
            <path id="Trazado_141730" data-name="Trazado 141730" d="M68.919,530.5a2.02,2.02,0,1,1,2.019-2.019A2.021,2.021,0,0,1,68.919,530.5Z" transform="translate(-66.899 -526.457)" fill="#6f7302"/>
          </g>
        </g>
      </g>
      <g id="Grupo_63646" data-name="Grupo 63646" transform="translate(101.662 504.032)">
        <g id="Grupo_63643" data-name="Grupo 63643">
          <path id="Trazado_141731" data-name="Trazado 141731" d="M86.644,513.475a6.519,6.519,0,0,1-.5-9.2c2.324-2.591,10.858-3.275,11.22-3.3a.525.525,0,0,1,.548.491c.011.363.252,8.922-2.072,11.512a6.484,6.484,0,0,1-7.092,1.767.509.509,0,1,1,.35-.956,5.472,5.472,0,0,0,5.985-1.492c1.589-1.77,1.854-7.57,1.823-10.262-2.68.261-8.417,1.152-10.005,2.921a5.5,5.5,0,0,0,.421,7.761.509.509,0,1,1-.68.757Z" transform="translate(-84.483 -500.973)" fill="#6f7302"/>
        </g>
        <g id="Grupo_63644" data-name="Grupo 63644" transform="translate(1.992 3.866)">
          <path id="Trazado_141732" data-name="Trazado 141732" d="M86.149,512.514a.509.509,0,0,1-.039-.719l6.952-7.748a.509.509,0,1,1,.757.68l-6.952,7.748A.509.509,0,0,1,86.149,512.514Z" transform="translate(-85.98 -503.878)" fill="#6f7302"/>
        </g>
        <g id="Grupo_63645" data-name="Grupo 63645" transform="translate(5.43 4.197)">
          <path id="Trazado_141733" data-name="Trazado 141733" d="M88.917,508.4a.506.506,0,0,1-.169-.35l-.184-3.382a.509.509,0,1,1,1.017-.055l.184,3.38a.508.508,0,0,1-.848.406Z" transform="translate(-88.563 -504.126)" fill="#6f7302"/>
        </g>
      </g>
      <g id="Grupo_63650" data-name="Grupo 63650" transform="translate(72.092 491.725)">
        <g id="Grupo_63647" data-name="Grupo 63647">
          <path id="Trazado_141734" data-name="Trazado 141734" d="M69.422,508.259a6.522,6.522,0,0,1-7.141-5.82c-.353-3.463,4.883-10.238,5.106-10.524a.524.524,0,0,1,.732-.075c.277.236,6.77,5.816,7.123,9.279a6.484,6.484,0,0,1-3.465,6.435.508.508,0,1,1-.471-.9,5.473,5.473,0,0,0,2.924-5.431c-.241-2.366-4.352-6.465-6.365-8.254-1.61,2.159-4.811,7-4.57,9.368a5.5,5.5,0,0,0,6.025,4.911.509.509,0,0,1,.1,1.013Z" transform="translate(-62.264 -491.725)" fill="#6f7302"/>
        </g>
        <g id="Grupo_63648" data-name="Grupo 63648" transform="translate(5.542 5.162)">
          <path id="Trazado_141735" data-name="Trazado 141735" d="M68.045,506.976a.511.511,0,0,1-.559-.455l-1.054-10.356a.509.509,0,1,1,1.013-.1L68.5,506.418A.508.508,0,0,1,68.045,506.976Z" transform="translate(-66.429 -495.604)" fill="#6f7302"/>
        </g>
        <g id="Grupo_63649" data-name="Grupo 63649" transform="translate(3.423 7.985)">
          <path id="Trazado_141736" data-name="Trazado 141736" d="M68.022,500.879a.506.506,0,0,1-.374-.112l-2.624-2.14a.508.508,0,1,1,.643-.788l2.624,2.139a.509.509,0,0,1-.269.9Z" transform="translate(-64.836 -497.725)" fill="#6f7302"/>
        </g>
      </g>
      <g id="Grupo_63654" data-name="Grupo 63654" transform="translate(32.557 533.819)">
        <g id="Grupo_63651" data-name="Grupo 63651">
          <path id="Trazado_141737" data-name="Trazado 141737" d="M49.041,530.677a6.521,6.521,0,0,1-7.294,5.627c-3.451-.446-8.854-7.088-9.083-7.371a.525.525,0,0,1,.094-.729c.293-.216,7.206-5.266,10.657-4.82a6.483,6.483,0,0,1,5.476,4.84.509.509,0,1,1-.985.254,5.469,5.469,0,0,0-4.622-4.084c-2.358-.3-7.286,2.764-9.486,4.316,1.734,2.06,5.72,6.28,8.078,6.585a5.5,5.5,0,0,0,6.155-4.747.509.509,0,0,1,1.009.13Z" transform="translate(-32.557 -523.355)" fill="#6f7302"/>
        </g>
        <g id="Grupo_63652" data-name="Grupo 63652" transform="translate(5.146 5.415)">
          <path id="Trazado_141738" data-name="Trazado 141738" d="M47.761,529.331a.508.508,0,0,1-.57.44l-10.323-1.333a.509.509,0,1,1,.13-1.01l10.323,1.334A.508.508,0,0,1,47.761,529.331Z" transform="translate(-36.424 -527.424)" fill="#6f7302"/>
        </g>
        <g id="Grupo_63653" data-name="Grupo 63653" transform="translate(7.411 6.054)">
          <path id="Trazado_141739" data-name="Trazado 141739" d="M41.821,528.478a.5.5,0,0,1-.194.338l-2.68,2.068a.509.509,0,1,1-.621-.805L41,528.01a.508.508,0,0,1,.816.467Z" transform="translate(-38.125 -527.904)" fill="#6f7302"/>
        </g>
      </g>
      <g id="Grupo_63658" data-name="Grupo 63658" transform="translate(102.275 561.319)">
        <g id="Grupo_63655" data-name="Grupo 63655">
          <path id="Trazado_141740" data-name="Trazado 141740" d="M86.191,546.7a6.52,6.52,0,0,1,9.1-1.447c2.817,2.043,4.382,10.462,4.448,10.818a.526.526,0,0,1-.433.6c-.361.048-8.847,1.174-11.665-.87a6.483,6.483,0,0,1-2.491-6.871.509.509,0,0,1,.987.249,5.471,5.471,0,0,0,2.1,5.8c1.926,1.4,7.721,1.062,10.4.752-.536-2.639-2.016-8.252-3.941-9.648a5.5,5.5,0,0,0-7.675,1.22.509.509,0,0,1-.824-.6Z" transform="translate(-84.944 -544.019)" fill="#6f7302"/>
        </g>
        <g id="Grupo_63656" data-name="Grupo 63656" transform="translate(1.15 2.476)">
          <path id="Trazado_141741" data-name="Trazado 141741" d="M85.905,546.089a.509.509,0,0,1,.711-.113l8.425,6.114a.509.509,0,1,1-.6.824L86.018,546.8A.509.509,0,0,1,85.905,546.089Z" transform="translate(-85.808 -545.879)" fill="#6f7302"/>
        </g>
        <g id="Grupo_63657" data-name="Grupo 63657" transform="translate(5.539 5.128)">
          <path id="Trazado_141742" data-name="Trazado 141742" d="M89.2,548.615a.509.509,0,0,1,.331-.2l3.344-.532a.509.509,0,1,1,.16,1l-3.344.532a.507.507,0,0,1-.582-.422A.5.5,0,0,1,89.2,548.615Z" transform="translate(-89.106 -547.872)" fill="#6f7302"/>
        </g>
      </g>
      <g id="Grupo_63662" data-name="Grupo 63662" transform="translate(73.769 570.232)">
        <g id="Grupo_63659" data-name="Grupo 63659">
          <path id="Trazado_141743" data-name="Trazado 141743" d="M70.673,550.719a6.52,6.52,0,0,1,5.83,7.131c-.347,3.463-6.832,9.054-7.109,9.289a.525.525,0,0,1-.732-.073c-.224-.286-5.468-7.053-5.121-10.516a6.484,6.484,0,0,1,4.683-5.612.509.509,0,1,1,.281.978,5.473,5.473,0,0,0-3.951,4.735c-.238,2.368,2.97,7.205,4.583,9.361,2.011-1.793,6.116-5.9,6.353-8.263a5.5,5.5,0,0,0-4.92-6.017.509.509,0,0,1,.1-1.013Z" transform="translate(-63.525 -550.716)" fill="#6f7302"/>
        </g>
        <g id="Grupo_63660" data-name="Grupo 63660" transform="translate(5.549)">
          <path id="Trazado_141744" data-name="Trazado 141744" d="M69.294,550.719a.508.508,0,0,1,.455.556l-1.039,10.358a.509.509,0,0,1-1.013-.1l1.039-10.358A.509.509,0,0,1,69.294,550.719Z" transform="translate(-67.694 -550.716)" fill="#6f7302"/>
        </g>
        <g id="Grupo_63661" data-name="Grupo 63661" transform="translate(6.047 5.395)">
          <path id="Trazado_141745" data-name="Trazado 141745" d="M68.628,554.773a.51.51,0,0,1,.343.185l2.143,2.62a.509.509,0,1,1-.788.644l-2.143-2.62a.51.51,0,0,1,.444-.829Z" transform="translate(-68.068 -554.77)" fill="#6f7302"/>
        </g>
      </g>
    </g>
  </g>
</svg>
