<svg xmlns="http://www.w3.org/2000/svg" width="202" height="201.136" viewBox="0 0 202 201.136">
  <g id="Grupo_63091" data-name="Grupo 63091" transform="translate(-422 -6054.386)">
    <rect id="Rectángulo_19016" data-name="Rectángulo 19016" width="202" height="133" transform="translate(422 6102)" fill="#fff"/>
    <g id="Grupo_63077" data-name="Grupo 63077" transform="translate(422 6054.386)">
      <path id="Trazado_140271" data-name="Trazado 140271" d="M235.7,5243.752q-94.657,0-189.314,0c-5.849,0-5.854,0-5.854,5.794q0,94.657,0,189.314c0,6.02,0,6.025,5.985,6.026q94.657,0,189.314,0c5.845,0,5.851-.006,5.852-5.8q0-47.416,0-94.833,0-47.24,0-94.479C241.688,5243.758,241.686,5243.752,235.7,5243.752Zm-85.235,84.1c8.12,5.952,12.7,14.295,15.863,23.561.8,2.334.182,2.844-2.459,2.546-7.9-.892-13.248-5.557-17.315-11.944a31.067,31.067,0,0,1-2.535-5.8c-2.765-7.335-4.958-14.982-11.64-19.941a2.433,2.433,0,0,1,2.724-1.038c13.3,1.548,25.024,6.106,33.375,17.269a22.139,22.139,0,0,1,4.168,13.2,2.91,2.91,0,0,1-1.5,2.974c-1.1-.406-.989-1.508-1.28-2.326a37.586,37.586,0,0,0-10.757-16.263,20.386,20.386,0,0,0-6.958-4.033c-1.095-.365-2.212-.851-3.4-.174C148.651,5327.142,149.779,5327.345,150.468,5327.85Zm58.171,72.6a14.053,14.053,0,0,1-3.7,2.658c-14.519,8.034-30.07,13.185-46.232,16.668-6.9,1.488-13.543.428-20.061-1.857a92.756,92.756,0,0,1-11.627-5.047c-2.088-1.07-4.257-1.98-6.383-2.977-9.8-4.594-19.493-4.235-29.254.267-6.61,3.049-13.313,5.9-19.822,9.167a25.919,25.919,0,0,1-4.22,1.756c-1.956.579-2.858-.056-3.193-2.089a17.671,17.671,0,0,1-.128-2.811c-.012-4.111-.005-8.222-.005-12.333,0-3.993-.016-7.987,0-11.98.019-4.553.25-4.781,4.884-5.535,3.244-.527,6.487-1.078,9.718-1.679a98.169,98.169,0,0,0,28.1-9.993c7.676-4.065,15.84-4.849,24.307-3.282a76.834,76.834,0,0,1,12.8,3.862A146.774,146.774,0,0,1,163.05,5384a33.373,33.373,0,0,1,5.76,4.028c1.02.879,1.77,1.979,1.287,3.4-.5,1.465-1.832,1.676-3.153,1.792a28.6,28.6,0,0,1-9.75-1.17c-6.248-1.633-12.469-3.371-18.706-5.05a13.526,13.526,0,0,0-2.743-.58,2.782,2.782,0,0,0-2.851,1.681,2.635,2.635,0,0,0,.78,3.185,10.622,10.622,0,0,0,1.69,1.259c11.414,7.076,23.618,10.144,37.027,7.483,9.226-1.831,18.32-4.166,27.355-6.751a32.956,32.956,0,0,1,4.785-1.153c2.437-.315,4.011.685,5.1,2.908C210.656,5397.14,210.4,5398.53,208.639,5400.452Zm13.545-93.577c-3.891,14.244-8.955,27.958-18.038,39.852a24.249,24.249,0,0,1-10.828,8.164,12.291,12.291,0,0,1-9.914-.569c-.958-.446-1.9-.935-2.849-1.391a1.89,1.89,0,0,0-2.716.785,33.254,33.254,0,0,0-4.594,12.111,3.42,3.42,0,0,0,1.461,3.361c6.214,5,9.75,11.951,13.6,18.675.7,1.221.827,2.244-.858,2.671q-4.611,1.169-9.231,2.3c-1.188.29-1.815-.148-1.7-1.443.263-3-1.345-5.089-3.322-7.059-4.421-4.406-9.983-6.952-15.458-9.659-1.1-.543-2.895-.52-2.962-2.085-.062-1.449,1.567-1.921,2.614-2.595,2.991-1.925,6.138-3.513,9.827-3.443,2.012.038,2.928-.993,3.365-2.854,2.068-8.815,7.616-15.153,14.6-20.509,5.405-4.147,11.263-7.676,16.449-12.114,3.387-2.9,6.679-5.888,8.431-10.448a2.167,2.167,0,0,0-2.273.68,131.764,131.764,0,0,1-17.635,10.96,62.072,62.072,0,0,0-10.255,7.425c-.515.438-1.038,1.087-1.824.587-.553-.351-.526-1.011-.551-1.589-.407-9.575,3.2-15.737,13.517-19.267,3.664-1.254,7.416-2.251,11.139-3.332,6.836-1.983,13.248-4.783,18.656-9.553a4.319,4.319,0,0,1,.826-.472A.614.614,0,0,1,222.183,5306.875Z" transform="translate(-40.535 -5243.751)" fill="#70a918"/>
      <g id="Grupo_63062" data-name="Grupo 63062" transform="translate(10.267 15.88)">
        <g id="Grupo_63061" data-name="Grupo 63061" transform="translate(0)">
          <path id="Trazado_140418" data-name="Trazado 140418" d="M77.963,5297.829h-.124l-6.823,3.5-1.365-6.355,9.224-4.786h7.11v40.259H77.963Z" transform="translate(-69.651 -5289.694)" fill="#fff"/>
          <path id="Trazado_140419" data-name="Trazado 140419" d="M164.219,5309.215c0,14.46-5.25,20.82-11.776,20.82-8.761,0-11.716-10.072-11.716-20.43,0-11.579,3.687-20.82,12.02-20.82C162.095,5288.786,164.219,5299.639,164.219,5309.215Zm-15.344.2c-.1,9.421,1.054,13.68,3.807,13.68,2.483,0,3.39-4.454,3.39-13.68,0-8.64-.81-13.681-3.4-13.681C150.124,5295.73,148.826,5300.087,148.875,5309.411Z" transform="translate(-115.665 -5288.786)" fill="#fff"/>
        </g>
      </g>
      <g id="Grupo_63064" data-name="Grupo 63064" transform="translate(63.305 15.567)">
        <g id="Grupo_63063" data-name="Grupo 63063">
          <path id="Trazado_140420" data-name="Trazado 140420" d="M221.524,5288.468a15.723,15.723,0,0,1,3-.273,5.474,5.474,0,0,1,3.771,1.052,3.64,3.64,0,0,1,1.121,2.941,3.751,3.751,0,0,1-2.18,3.531v.042c.958.389,1.447,1.277,1.716,2.8a22.8,22.8,0,0,0,.9,3.833h-2.871a18.435,18.435,0,0,1-.71-3.384c-.241-1.758-.689-2.254-1.6-2.254h-.412v5.639h-2.738Zm2.738,6.172h.5a1.951,1.951,0,0,0,1.875-2.2c0-1.21-.478-2.062-1.707-2.095a2.061,2.061,0,0,0-.668.083Z" transform="translate(-221.008 -5288.09)" fill="#fff"/>
          <path id="Trazado_140421" data-name="Trazado 140421" d="M255.462,5296.3H252.24v3.833h3.634v2.385h-6.39v-14.14h6.15v2.385H252.24v3.25h3.221Z" transform="translate(-239.109 -5288.206)" fill="#fff"/>
          <path id="Trazado_140422" data-name="Trazado 140422" d="M271.291,5299.464a5.233,5.233,0,0,0,2.326.554c1.3,0,1.944-.673,1.944-1.6,0-1.01-.641-1.528-1.839-2.294-1.932-1.186-2.664-2.667-2.664-3.951,0-2.271,1.506-4.152,4.468-4.152a4.778,4.778,0,0,1,2.223.508l-.439,2.364a3.372,3.372,0,0,0-1.8-.482c-1.18,0-1.744.713-1.744,1.46,0,.848.427,1.3,1.945,2.21a4.583,4.583,0,0,1,2.557,4.042c0,2.6-1.909,4.288-4.666,4.288a6.13,6.13,0,0,1-2.711-.566Z" transform="translate(-252.969 -5287.975)" fill="#fff"/>
          <path id="Trazado_140423" data-name="Trazado 140423" d="M296.366,5288.468a14.307,14.307,0,0,1,2.875-.273,5.415,5.415,0,0,1,3.843,1.089,4.09,4.09,0,0,1,1.209,3.1,4.749,4.749,0,0,1-1.2,3.4,4.894,4.894,0,0,1-3.438,1.356c-.187,0-.368,0-.553-.008v5.265h-2.739Zm2.739,6.428a2.587,2.587,0,0,0,.457.03c1.385,0,2-.988,2-2.308,0-1.23-.5-2.207-1.777-2.207a2.121,2.121,0,0,0-.68.1Z" transform="translate(-269.459 -5288.09)" fill="#fff"/>
          <path id="Trazado_140424" data-name="Trazado 140424" d="M329.531,5296.3H326.31v3.833h3.635v2.385h-6.39v-14.14h6.15v2.385h-3.4v3.25h3.221Z" transform="translate(-287.06 -5288.206)" fill="#fff"/>
          <path id="Trazado_140425" data-name="Trazado 140425" d="M346.731,5290.92h-2.495v-2.546H352v2.546h-2.511v11.593h-2.755Z" transform="translate(-300.449 -5288.206)" fill="#fff"/>
          <path id="Trazado_140426" data-name="Trazado 140426" d="M376.673,5294.887c0,5.332-1.895,7.486-4.575,7.486-3.2,0-4.464-3.391-4.464-7.271,0-3.863,1.535-7.205,4.666-7.205C375.709,5287.9,376.673,5291.648,376.673,5294.887Zm-6.176.248c0,3.208.595,4.848,1.71,4.848,1.165,0,1.6-2.1,1.6-4.964,0-2.495-.38-4.732-1.623-4.732C371.092,5290.287,370.5,5292.1,370.5,5295.135Z" transform="translate(-315.596 -5287.897)" fill="#fff"/>
          <path id="Trazado_140427" data-name="Trazado 140427" d="M407.983,5299.285l-.62,3.229H404.7l3.071-14.14h3.292l2.749,14.14H411.13l-.6-3.229Zm2.3-2.132-.472-2.961c-.136-.859-.325-2.28-.464-3.214H409.3c-.151.938-.361,2.4-.509,3.219l-.517,2.956Z" transform="translate(-339.588 -5288.206)" fill="#fff"/>
          <path id="Trazado_140428" data-name="Trazado 140428" d="M434.927,5288.374h2.755v11.809H441.3v2.331h-6.372Z" transform="translate(-359.16 -5288.206)" fill="#fff"/>
          <path id="Trazado_140429" data-name="Trazado 140429" d="M229.217,5357.064c-.072-1.354-.16-3.165-.13-4.689h-.055c-.253,1.517-.63,3.256-.895,4.356l-1.229,5.046h-1.95l-1.174-4.967c-.273-1.145-.647-2.9-.863-4.436h-.051c-.041,1.542-.141,3.326-.213,4.725l-.24,4.909H220.06l1.015-14.14h2.9l1.128,5.117c.392,1.793.749,3.354,1,4.953h.047c.215-1.57.53-3.163.9-4.953l1.115-5.117h2.9l.859,14.14H229.47Z" transform="translate(-220.06 -5326.722)" fill="#fff"/>
          <path id="Trazado_140430" data-name="Trazado 140430" d="M265.4,5355.791h-3.222v3.833h3.635v2.385h-6.39v-14.14h6.15v2.385h-3.4v3.251H265.4Z" transform="translate(-245.542 -5326.722)" fill="#fff"/>
          <path id="Trazado_140431" data-name="Trazado 140431" d="M282.862,5347.962a13.1,13.1,0,0,1,2.792-.272,5.465,5.465,0,0,1,3.93,1.259c1.21,1.092,1.835,2.961,1.835,5.7,0,2.866-.736,4.891-1.962,5.991a5.989,5.989,0,0,1-4.324,1.367,18.076,18.076,0,0,1-2.272-.159Zm2.738,11.747a1.935,1.935,0,0,0,.494.042c1.328,0,2.479-1.3,2.479-5.194,0-2.907-.755-4.669-2.422-4.669a1.7,1.7,0,0,0-.55.067Z" transform="translate(-260.717 -5326.605)" fill="#fff"/>
          <path id="Trazado_140432" data-name="Trazado 140432" d="M314.828,5347.869v14.14h-2.755v-14.14Z" transform="translate(-279.627 -5326.722)" fill="#fff"/>
          <path id="Trazado_140433" data-name="Trazado 140433" d="M333.9,5354.383c0,5.331-1.895,7.485-4.575,7.485-3.2,0-4.465-3.39-4.465-7.271,0-3.863,1.535-7.205,4.667-7.205C332.933,5347.393,333.9,5351.143,333.9,5354.383Zm-6.176.248c0,3.207.6,4.848,1.71,4.848,1.165,0,1.6-2.1,1.6-4.963,0-2.5-.38-4.733-1.623-4.733C328.317,5349.782,327.721,5351.6,327.721,5354.63Z" transform="translate(-287.904 -5326.413)" fill="#fff"/>
          <path id="Trazado_140434" data-name="Trazado 140434" d="M365.208,5358.779l-.62,3.229H361.92l3.071-14.14h3.292l2.749,14.14h-2.677l-.6-3.229Zm2.3-2.133-.472-2.96c-.136-.859-.325-2.28-.464-3.215h-.051c-.151.939-.361,2.4-.509,3.219l-.517,2.956Z" transform="translate(-311.897 -5326.722)" fill="#fff"/>
          <path id="Trazado_140435" data-name="Trazado 140435" d="M399.724,5357.064c-.072-1.354-.16-3.165-.13-4.689h-.055c-.253,1.517-.63,3.256-.895,4.356l-1.229,5.046h-1.951l-1.173-4.967c-.273-1.145-.647-2.9-.863-4.436h-.051c-.04,1.542-.141,3.326-.213,4.725l-.24,4.909h-2.358l1.016-14.14h2.9l1.128,5.117c.392,1.793.749,3.354,1,4.953h.046c.215-1.57.53-3.163.9-4.953l1.115-5.117h2.9l.859,14.14h-2.461Z" transform="translate(-330.442 -5326.722)" fill="#fff"/>
          <path id="Trazado_140436" data-name="Trazado 140436" d="M429.929,5347.962a15.246,15.246,0,0,1,3.129-.272,5.345,5.345,0,0,1,3.577,1,3.461,3.461,0,0,1-.975,5.663v.075a3.367,3.367,0,0,1,2.5,3.374,3.876,3.876,0,0,1-1.036,2.778c-.842.918-2.279,1.427-4.645,1.427a17.747,17.747,0,0,1-2.553-.159Zm2.738,5.6h.591a1.825,1.825,0,0,0,1.749-1.984c0-1.04-.489-1.841-1.611-1.841a2.292,2.292,0,0,0-.729.088Zm0,6.274a2.749,2.749,0,0,0,.613.05,1.934,1.934,0,0,0,2.035-2.122,2,2,0,0,0-2.054-2.161h-.594Z" transform="translate(-355.924 -5326.605)" fill="#fff"/>
          <path id="Trazado_140437" data-name="Trazado 140437" d="M461.419,5347.869v14.14h-2.755v-14.14Z" transform="translate(-374.527 -5326.722)" fill="#fff"/>
          <path id="Trazado_140438" data-name="Trazado 140438" d="M479.393,5355.791h-3.221v3.833h3.635v2.385h-6.39v-14.14h6.15v2.385h-3.395v3.251h3.221Z" transform="translate(-384.077 -5326.722)" fill="#fff"/>
          <path id="Trazado_140439" data-name="Trazado 140439" d="M496.858,5362.008v-14.14h2.524l2.175,5.548c.428,1.087,1.117,2.9,1.513,4.121h.042c-.1-1.477-.279-3.946-.279-6.544v-3.125h2.415v14.14h-2.523l-2.144-5.378a39.8,39.8,0,0,1-1.445-4.247h-.042c.081,1.421.18,3.6.18,6.448v3.178Z" transform="translate(-399.252 -5326.722)" fill="#fff"/>
          <path id="Trazado_140440" data-name="Trazado 140440" d="M527.293,5350.415H524.8v-2.546h7.761v2.546h-2.511v11.593h-2.755Z" transform="translate(-417.34 -5326.722)" fill="#fff"/>
          <path id="Trazado_140441" data-name="Trazado 140441" d="M556.914,5355.791h-3.221v3.833h3.635v2.385h-6.39v-14.14h6.15v2.385h-3.4v3.251h3.221Z" transform="translate(-434.262 -5326.722)" fill="#fff"/>
        </g>
      </g>
    </g>
  </g>
</svg>
