<svg xmlns="http://www.w3.org/2000/svg" width="201.78" height="201.764" viewBox="0 0 201.78 201.764">
  <g id="Grupo_63089" data-name="Grupo 63089" transform="translate(-422 -5314.875)">
    <rect id="Rectángulo_19012" data-name="Rectángulo 19012" width="175" height="161" transform="translate(440 5346)" fill="#fff"/>
    <g id="Grupo_63080" data-name="Grupo 63080" transform="translate(422 5314.875)">
      <path id="Trazado_140267" data-name="Trazado 140267" d="M1494.3,4621.021c-.175-2.387-.635-2.883-2.938-3.085-1.168-.1-2.349-.056-3.524-.056q-94.5,0-189,0c-6.263,0-6.269.005-6.269,6.189q0,94.852,0,189.7c0,5.852.005,5.858,5.794,5.858q47.427,0,94.852,0,47.6,0,95.2,0c5.915,0,5.919,0,5.919-5.735q0-94.851,0-189.7C1494.334,4623.136,1494.373,4622.074,1494.3,4621.021Zm-103.088,114.486h-.082c0,2.937.05,5.875-.014,8.81-.06,2.76-.4,3.175-2.992,3.2-5.52.063-11.042,0-16.562-.022a7.531,7.531,0,0,1-1.745-.2c-1.192-.295-1.517-1.033-.862-2.095a18.853,18.853,0,0,1,1.238-1.712c4.878-6.221.627-16.464-8.389-17.161-7.281-.563-12.442,3.372-13.316,10.082-.394,3.021.774,5.472,2.5,7.827,1.682,2.3,1.356,3-1.411,3.215a44.326,44.326,0,0,1-5.282.068c-2.608-.11-3.072-.58-2.984-3.222a36.575,36.575,0,0,1,3.175-13.3c8.208-18.972,22.447-30.243,43.062-33.148,3.009-.424,3.489.033,3.584,3.1.062,2,.047,3.993.119,5.989a11.248,11.248,0,0,0,1.195,4.75c1.3,2.554,3.585,3.427,6.192,2.208a27.712,27.712,0,0,0,3.843-2.463c2.964-2.047,6.136-1.847,8.219.556a7.62,7.62,0,0,1,.088,9.443,5.928,5.928,0,0,1-8.23.823,18.492,18.492,0,0,0-4.2-2.556c-2.63-.938-4.555-.2-5.906,2.267a10.566,10.566,0,0,0-1.235,5.086C1391.192,4729.869,1391.208,4732.688,1391.208,4735.507Zm-.21,66.07c-.131,1.622-1.517,1.65-2.7,1.451a68.25,68.25,0,0,1-8.634-1.708c-20.7-6.362-33.385-20.213-38-41.349-1.458-6.682-.841-7.283,5.891-7.35a22.7,22.7,0,0,0,5.583-.675c4.749-1.251,6.026-4.317,3.5-8.457-.61-1-1.406-1.883-2.055-2.859a5.636,5.636,0,0,1,3-8.808,7.905,7.905,0,0,1,6.813.543,5.723,5.723,0,0,1,1.62,8.29,23.2,23.2,0,0,0-2.621,4.163c-1.291,3.163-.286,5.565,2.914,6.752a19.147,19.147,0,0,0,6.933,1.048c2.233-.023,4.465-.006,6.7-.006v.022c2.82,0,5.643-.072,8.46.023,2.24.076,2.665.479,2.693,2.762.065,5.405,0,10.811-.013,16.216a5.511,5.511,0,0,1-.057.7c-.4,3-.984,3.329-3.382,1.5a10.7,10.7,0,0,0-11.293-1.4c-5.342,2.2-7.973,8.84-5.98,14.888a11.078,11.078,0,0,0,13.4,7.471c1.885-.491,3.3-1.757,4.807-2.869,1.189-.875,2.045-.523,2.283.865A35.181,35.181,0,0,1,1391,4801.577Zm55.206-45.65a39.1,39.1,0,0,1-1.946,10q-11.112,31.917-44.555,36.988c-2.842.427-3.389-.011-3.4-2.9-.011-2.713-.408-5.382-.59-8.074a8.546,8.546,0,0,0-.879-3.387c-1.439-2.792-3.967-3.653-6.8-2.169-1.341.7-2.5,1.748-3.792,2.553a6.11,6.11,0,0,1-7.214-.318,7.431,7.431,0,0,1-1.776-8.1,5.913,5.913,0,0,1,6.022-3.956,5.515,5.515,0,0,1,3.232,1.222,28.544,28.544,0,0,0,2.592,1.822c4.03,2.424,7.5.987,8.376-3.648a45.989,45.989,0,0,0,.79-8.755c-.021-3.758-.053-7.517.026-11.273.06-2.858.451-3.221,3.322-3.3,2.581-.068,5.166-.014,7.75-.014v.04c2.818,0,5.641-.1,8.453.029,2.766.128,3.209.972,1.612,3.207a11.308,11.308,0,0,0-2.325,7.555,10.106,10.106,0,0,0,5.792,9.014,12.755,12.755,0,0,0,13.1-.729c3.492-2.183,4.731-5.681,4.664-9.683-.041-2.474-1.256-4.442-2.688-6.367-1.543-2.075-1.174-2.832,1.4-3a57.462,57.462,0,0,1,5.986-.042C1445.937,4752.755,1446.4,4753.249,1446.2,4755.927Zm26.074-32.37a7.89,7.89,0,0,1-4.075-1.918c-5.921-4.265-9.6-2.718-10.425,4.615a88.788,88.788,0,0,0-.062,9.854h-.2c0,2.7.048,5.406-.013,8.106-.067,2.929-.374,3.277-3.253,3.317-4.934.068-9.869.041-14.8.018a20.938,20.938,0,0,0-5.583.644c-4.56,1.229-5.825,4.591-3.226,8.6.574.886,1.291,1.68,1.859,2.568,2.642,4.141.388,8.816-4.521,9.329-2.836.3-5.6-.117-7.042-2.877a6.3,6.3,0,0,1,.977-7.524,12.124,12.124,0,0,0,1.738-2.638c1.576-3.209.588-5.732-2.784-7.034a17.879,17.879,0,0,0-6.572-1.067c-4.7.02-9.4.033-14.1-.009-3.555-.032-3.883-.334-3.913-3.788-.045-5.169-.009-10.339.008-15.509a13.534,13.534,0,0,1,.152-2.105c.174-1.071.781-1.408,1.746-.819.5.306.957.68,1.428,1.031,4.051,3.01,8.3,3.062,12.54.578,3.924-2.3,5.989-7.5,5.131-12.27-1.552-8.625-10.153-12.323-17.455-7.5-.294.193-.552.444-.852.625-1.684,1.014-2.334.756-2.6-1.114a20.436,20.436,0,0,1-.109-2.813c-.008-4.7-.049-9.4.017-14.1.043-3.016.489-3.469,3.511-3.5,5.169-.06,10.339-.013,15.508.012a8.576,8.576,0,0,1,2.091.23c1.03.265,1.265.984.75,1.885-.348.608-.815,1.149-1.2,1.74a11.553,11.553,0,0,0,.415,13.2c3,3.728,9.31,5.183,14.209,3.276a11.092,11.092,0,0,0,7.085-11.1,10.365,10.365,0,0,0-2.305-5.8c-.606-.786-1.716-1.58-1.125-2.721.49-.946,1.676-.686,2.578-.693,5.522-.042,11.044-.087,16.565-.02,2.662.031,3.074.46,3.117,3.115.078,4.815.033,9.634.039,14.451a19.491,19.491,0,0,0,.788,6.266c1.449,4.313,4.3,5.417,8.169,3.106,1-.6,1.86-1.432,2.829-2.09a5.875,5.875,0,0,1,9.338,4.1C1479.463,4720.334,1476.748,4723.862,1472.278,4723.557Z" transform="translate(-1292.564 -4617.869)" fill="#a30011"/>
      <g id="Grupo_63055" data-name="Grupo 63055" transform="translate(8.696 15.053)">
        <g id="Grupo_63054" data-name="Grupo 63054" transform="translate(0 0)">
          <path id="Trazado_140368" data-name="Trazado 140368" d="M1317.225,4690.823a12.507,12.507,0,0,1,6.057-10.71l-.013-.124a10.535,10.535,0,0,1-4.926-8.829c0-6.594,5.172-10.6,11.4-10.6,5.724,0,10.353,3.923,10.353,9.9a10.264,10.264,0,0,1-5.268,8.933v.138a11.633,11.633,0,0,1,6.223,10.49c0,7.466-5.444,11.789-12.062,11.789C1322.07,4701.806,1317.225,4697.423,1317.225,4690.823Zm15.972-.46a4.775,4.775,0,1,0-8.119-.431c0,3.48,1.4,6.4,4.181,6.4C1331.833,4696.327,1333.2,4693.746,1333.2,4690.363Zm-7.244-19.44a6.649,6.649,0,0,0,3.962,6.06c1.69-.911,2.767-3.392,2.767-5.75,0-2.727-.908-5.243-3.3-5.243C1327.023,4665.988,1325.953,4668.394,1325.953,4670.922Z" transform="translate(-1317.225 -4660.558)" fill="#fff"/>
        </g>
      </g>
      <g id="Grupo_63056" data-name="Grupo 63056" transform="translate(40.471 17.189)">
        <path id="Trazado_140369" data-name="Trazado 140369" d="M1409.225,4667.187a12.058,12.058,0,0,1,2.681-.273,5.124,5.124,0,0,1,3.774,1.258c1.162,1.093,1.762,2.963,1.762,5.7,0,2.866-.706,4.89-1.883,5.992a5.611,5.611,0,0,1-4.153,1.367,16.335,16.335,0,0,1-2.181-.159Zm2.63,11.747a1.8,1.8,0,0,0,.474.042c1.276,0,2.38-1.3,2.38-5.194,0-2.907-.725-4.669-2.326-4.669a1.578,1.578,0,0,0-.528.067Z" transform="translate(-1408.558 -4666.808)" fill="#fff"/>
        <path id="Trazado_140370" data-name="Trazado 140370" d="M1443.01,4675.015h-3.094v3.832h3.49v2.385h-6.136v-14.139h5.906v2.385h-3.26v3.251h3.094Z" transform="translate(-1426.715 -4666.925)" fill="#fff"/>
        <path id="Trazado_140371" data-name="Trazado 140371" d="M1458.209,4678.182a4.878,4.878,0,0,0,2.233.554c1.245,0,1.867-.674,1.867-1.6,0-1.011-.615-1.528-1.765-2.294a4.8,4.8,0,0,1-2.558-3.952,3.961,3.961,0,0,1,4.291-4.152,4.463,4.463,0,0,1,2.134.507l-.422,2.365a3.138,3.138,0,0,0-1.726-.482,1.49,1.49,0,0,0-1.675,1.46c0,.848.41,1.3,1.869,2.211a4.607,4.607,0,0,1,2.455,4.041,4.154,4.154,0,0,1-4.48,4.289,5.68,5.68,0,0,1-2.6-.568Z" transform="translate(-1440.022 -4666.692)" fill="#fff"/>
        <path id="Trazado_140372" data-name="Trazado 140372" d="M1482.578,4678l-.6,3.229h-2.562l2.949-14.139h3.161l2.639,14.139h-2.57l-.579-3.229Zm2.209-2.133-.453-2.96c-.13-.86-.312-2.28-.445-3.215h-.049c-.145.939-.347,2.4-.489,3.219l-.5,2.956Z" transform="translate(-1454.001 -4666.925)" fill="#fff"/>
        <path id="Trazado_140373" data-name="Trazado 140373" d="M1508.446,4667.187a14.518,14.518,0,0,1,2.882-.273,5.1,5.1,0,0,1,3.621,1.053,3.719,3.719,0,0,1,1.077,2.941,3.77,3.77,0,0,1-2.093,3.53v.042c.921.389,1.389,1.276,1.648,2.8a23.508,23.508,0,0,0,.869,3.832h-2.757a19.079,19.079,0,0,1-.682-3.384c-.231-1.758-.662-2.255-1.539-2.255h-.4v5.639h-2.63Zm2.63,6.171h.479c1.148,0,1.8-.973,1.8-2.2,0-1.208-.459-2.061-1.64-2.093a1.878,1.878,0,0,0-.641.083Z" transform="translate(-1472.792 -4666.808)" fill="#fff"/>
        <path id="Trazado_140374" data-name="Trazado 140374" d="M1535.293,4667.187a14.511,14.511,0,0,1,2.882-.273,5.1,5.1,0,0,1,3.62,1.053,3.719,3.719,0,0,1,1.077,2.941,3.77,3.77,0,0,1-2.093,3.53v.042c.92.389,1.389,1.276,1.648,2.8a23.538,23.538,0,0,0,.868,3.832h-2.757a19.053,19.053,0,0,1-.682-3.384c-.231-1.758-.662-2.255-1.538-2.255h-.4v5.639h-2.63Zm2.63,6.171h.479c1.148,0,1.8-.973,1.8-2.2,0-1.208-.46-2.061-1.64-2.093a1.878,1.878,0,0,0-.64.083Z" transform="translate(-1490.172 -4666.808)" fill="#fff"/>
        <path id="Trazado_140375" data-name="Trazado 140375" d="M1568.93,4673.6c0,5.333-1.819,7.486-4.393,7.486-3.071,0-4.287-3.39-4.287-7.271,0-3.863,1.474-7.2,4.481-7.2C1568,4666.615,1568.93,4670.365,1568.93,4673.6Zm-5.93.249c0,3.206.571,4.847,1.642,4.847,1.119,0,1.538-2.1,1.538-4.963,0-2.5-.365-4.732-1.559-4.732C1563.571,4669.005,1563,4670.819,1563,4673.854Z" transform="translate(-1506.328 -4666.615)" fill="#fff"/>
        <path id="Trazado_140376" data-name="Trazado 140376" d="M1589.615,4667.093h2.646V4678.9h3.473v2.331h-6.119Z" transform="translate(-1525.339 -4666.925)" fill="#fff"/>
        <path id="Trazado_140377" data-name="Trazado 140377" d="M1611.322,4667.093h2.646V4678.9h3.473v2.331h-6.119Z" transform="translate(-1539.391 -4666.925)" fill="#fff"/>
        <path id="Trazado_140378" data-name="Trazado 140378" d="M1638.276,4673.6c0,5.333-1.819,7.486-4.393,7.486-3.072,0-4.287-3.39-4.287-7.271,0-3.863,1.474-7.2,4.48-7.2C1637.35,4666.615,1638.276,4670.365,1638.276,4673.6Zm-5.93.249c0,3.206.572,4.847,1.643,4.847,1.118,0,1.538-2.1,1.538-4.963,0-2.5-.365-4.732-1.558-4.732C1632.917,4669.005,1632.345,4670.819,1632.345,4673.854Z" transform="translate(-1551.221 -4666.615)" fill="#fff"/>
        <path id="Trazado_140379" data-name="Trazado 140379" d="M1668.044,4667.187a12.056,12.056,0,0,1,2.681-.273,5.125,5.125,0,0,1,3.774,1.258c1.162,1.093,1.762,2.963,1.762,5.7,0,2.866-.706,4.89-1.884,5.992a5.611,5.611,0,0,1-4.153,1.367,16.33,16.33,0,0,1-2.181-.159Zm2.63,11.747a1.806,1.806,0,0,0,.474.042c1.275,0,2.38-1.3,2.38-5.194,0-2.907-.725-4.669-2.326-4.669a1.58,1.58,0,0,0-.528.067Z" transform="translate(-1576.112 -4666.808)" fill="#fff"/>
        <path id="Trazado_140380" data-name="Trazado 140380" d="M1701.83,4675.015h-3.093v3.832h3.49v2.385h-6.136v-14.139H1702v2.385h-3.259v3.251h3.093Z" transform="translate(-1594.268 -4666.925)" fill="#fff"/>
        <path id="Trazado_140381" data-name="Trazado 140381" d="M1414.5,4740.289a5.131,5.131,0,0,1-2.036.333c-3.47,0-5.128-2.971-5.128-6.983,0-5.33,2.84-7.408,5.472-7.408a3.761,3.761,0,0,1,1.846.368l-.441,2.32a2.54,2.54,0,0,0-1.228-.282c-1.505,0-2.852,1.354-2.852,4.852,0,3.375,1.236,4.694,2.837,4.694a4.5,4.5,0,0,0,1.272-.208Z" transform="translate(-1407.334 -4705.208)" fill="#fff"/>
        <path id="Trazado_140382" data-name="Trazado 140382" d="M1432.995,4737.5l-.6,3.229h-2.562l2.949-14.14h3.161l2.639,14.14h-2.57l-.579-3.229Zm2.21-2.132-.453-2.961c-.131-.859-.312-2.279-.446-3.214h-.049c-.145.938-.347,2.4-.489,3.219l-.5,2.956Z" transform="translate(-1421.902 -4705.439)" fill="#fff"/>
        <path id="Trazado_140383" data-name="Trazado 140383" d="M1458.863,4726.68a13.244,13.244,0,0,1,2.76-.272,5.054,5.054,0,0,1,3.691,1.089,4.18,4.18,0,0,1,1.16,3.1,4.87,4.87,0,0,1-1.149,3.4,4.6,4.6,0,0,1-3.3,1.355c-.18,0-.354,0-.531-.008v5.265h-2.63Zm2.63,6.428a2.433,2.433,0,0,0,.439.029c1.33,0,1.92-.987,1.92-2.308,0-1.23-.481-2.207-1.706-2.207a1.949,1.949,0,0,0-.653.1Z" transform="translate(-1440.693 -4705.324)" fill="#fff"/>
        <path id="Trazado_140384" data-name="Trazado 140384" d="M1482.862,4737.5l-.6,3.229H1479.7l2.949-14.14h3.161l2.64,14.14h-2.57l-.58-3.229Zm2.209-2.132-.453-2.961c-.13-.859-.312-2.279-.446-3.214h-.048c-.146.938-.347,2.4-.489,3.219l-.5,2.956Z" transform="translate(-1454.185 -4705.439)" fill="#fff"/>
        <path id="Trazado_140385" data-name="Trazado 140385" d="M1513.091,4740.289a5.131,5.131,0,0,1-2.036.333c-3.47,0-5.128-2.971-5.128-6.983,0-5.33,2.84-7.408,5.472-7.408a3.764,3.764,0,0,1,1.846.368l-.441,2.32a2.54,2.54,0,0,0-1.229-.282c-1.5,0-2.851,1.354-2.851,4.852,0,3.375,1.235,4.694,2.837,4.694a4.5,4.5,0,0,0,1.273-.208Z" transform="translate(-1471.161 -4705.208)" fill="#fff"/>
        <path id="Trazado_140386" data-name="Trazado 140386" d="M1533.026,4726.586v14.14h-2.646v-14.14Z" transform="translate(-1486.991 -4705.439)" fill="#fff"/>
        <path id="Trazado_140387" data-name="Trazado 140387" d="M1544.546,4726.68a12.062,12.062,0,0,1,2.681-.272,5.121,5.121,0,0,1,3.774,1.258c1.161,1.092,1.762,2.962,1.762,5.7,0,2.865-.706,4.89-1.884,5.991a5.61,5.61,0,0,1-4.152,1.367,16.582,16.582,0,0,1-2.181-.159Zm2.63,11.747a1.785,1.785,0,0,0,.474.042c1.275,0,2.38-1.3,2.38-5.194,0-2.906-.725-4.669-2.326-4.669a1.568,1.568,0,0,0-.528.067Z" transform="translate(-1496.162 -4705.324)" fill="#fff"/>
        <path id="Trazado_140388" data-name="Trazado 140388" d="M1571.973,4737.5l-.6,3.229h-2.562l2.949-14.14h3.161l2.639,14.14h-2.57l-.58-3.229Zm2.209-2.132-.453-2.961c-.13-.859-.312-2.279-.446-3.214h-.048c-.145.938-.347,2.4-.489,3.219l-.5,2.956Z" transform="translate(-1511.873 -4705.439)" fill="#fff"/>
        <path id="Trazado_140389" data-name="Trazado 140389" d="M1597.841,4726.68a12.063,12.063,0,0,1,2.681-.272,5.119,5.119,0,0,1,3.774,1.258c1.162,1.092,1.763,2.962,1.763,5.7,0,2.865-.706,4.89-1.884,5.991a5.611,5.611,0,0,1-4.152,1.367,16.584,16.584,0,0,1-2.182-.159Zm2.63,11.747a1.786,1.786,0,0,0,.474.042c1.275,0,2.38-1.3,2.38-5.194,0-2.906-.725-4.669-2.326-4.669a1.568,1.568,0,0,0-.528.067Z" transform="translate(-1530.664 -4705.324)" fill="#fff"/>
        <path id="Trazado_140390" data-name="Trazado 140390" d="M1631.628,4734.508h-3.093v3.833h3.49v2.386h-6.136v-14.14h5.905v2.386h-3.259v3.25h3.093Z" transform="translate(-1548.822 -4705.439)" fill="#fff"/>
        <path id="Trazado_140391" data-name="Trazado 140391" d="M1646.825,4737.677a4.884,4.884,0,0,0,2.233.554c1.245,0,1.867-.673,1.867-1.6,0-1.011-.615-1.528-1.765-2.294a4.8,4.8,0,0,1-2.558-3.952,3.961,3.961,0,0,1,4.291-4.151,4.451,4.451,0,0,1,2.134.508l-.422,2.364a3.136,3.136,0,0,0-1.726-.482,1.491,1.491,0,0,0-1.675,1.46c0,.849.41,1.3,1.869,2.212a4.607,4.607,0,0,1,2.455,4.041,4.154,4.154,0,0,1-4.48,4.289,5.685,5.685,0,0,1-2.6-.568Z" transform="translate(-1562.128 -4705.208)" fill="#fff"/>
      </g>
    </g>
  </g>
</svg>
