<svg xmlns="http://www.w3.org/2000/svg" width="154.667" height="154.667" viewBox="0 0 154.667 154.667">
  <g id="Grupo_63833" data-name="Grupo 63833" transform="translate(-325 -3315.675)">
    <path id="Trazado_105094" data-name="Trazado 105094" d="M2682.54,6466.171q3.8,0,7.58.373t7.507,1.114q3.727.739,7.362,1.843t7.146,2.557q3.51,1.453,6.861,3.244t6.51,3.9q3.158,2.111,6.1,4.521t5.623,5.1q2.687,2.687,5.1,5.623t4.521,6.1q2.111,3.157,3.9,6.509t3.245,6.861q1.454,3.509,2.557,7.145t1.844,7.362q.741,3.727,1.114,7.506t.373,7.581q0,3.8-.373,7.58t-1.114,7.508q-.742,3.726-1.844,7.361t-2.557,7.146q-1.455,3.51-3.245,6.861t-3.9,6.51q-2.111,3.158-4.521,6.1t-5.1,5.623q-2.686,2.689-5.623,5.1t-6.1,4.521q-3.159,2.111-6.51,3.9t-6.861,3.244q-3.509,1.454-7.146,2.557t-7.362,1.844q-3.725.743-7.507,1.114t-7.58.373q-3.8,0-7.58-.373t-7.507-1.114q-3.725-.741-7.362-1.844t-7.146-2.557q-3.51-1.455-6.86-3.244t-6.51-3.9q-3.159-2.109-6.1-4.521t-5.624-5.1q-2.686-2.687-5.1-5.623t-4.521-6.1q-2.111-3.16-3.9-6.51t-3.244-6.861q-1.455-3.509-2.557-7.146t-1.844-7.361q-.741-3.727-1.113-7.508t-.372-7.58q0-3.8.372-7.581t1.113-7.506q.741-3.725,1.844-7.362t2.557-7.145q1.453-3.511,3.244-6.861t3.9-6.509q2.111-3.159,4.521-6.1t5.1-5.623q2.688-2.688,5.624-5.1t6.1-4.521q3.158-2.109,6.51-3.9t6.86-3.244q3.51-1.455,7.146-2.557t7.362-1.843q3.726-.743,7.507-1.114T2682.54,6466.171Z" transform="translate(-2280.207 -3150.496)" fill="#529ad9"/>
    <circle id="Elipse_1224" data-name="Elipse 1224" cx="72.641" cy="72.641" r="72.641" transform="translate(329.693 3320.368)" fill="#fff"/>
    <path id="shutterstock_1802230447" d="M66.08,0A66.08,66.08,0,1,1,0,66.08,66.08,66.08,0,0,1,66.08,0Z" transform="translate(336.254 3326.929)" fill="#dcebf8"/>
    <g id="Grupo_63547" data-name="Grupo 63547" transform="translate(136.103 3284.037)">
      <g id="Grupo_63540" data-name="Grupo 63540" transform="translate(276.468 137.461)">
        <path id="Trazado_141662" data-name="Trazado 141662" d="M266.411,87.34h-16.5a1.983,1.983,0,0,1,0-3.966h16.5a1.983,1.983,0,0,1,0,3.966Z" transform="translate(-247.933 -83.374)" fill="#1f5e96"/>
      </g>
      <g id="Grupo_63542" data-name="Grupo 63542" transform="translate(231.897 103.091)">
        <path id="Trazado_141664" data-name="Trazado 141664" d="M246.353,109.344a1.983,1.983,0,0,1-1.982-1.982V74.974H235.86v26.3a1.982,1.982,0,1,1-3.963,0V72.99a1.981,1.981,0,0,1,1.982-1.982h12.474a1.983,1.983,0,0,1,1.984,1.982v34.373A1.983,1.983,0,0,1,246.353,109.344Z" transform="translate(-231.897 -71.008)" fill="#1f5e96"/>
      </g>
      <g id="Grupo_63543" data-name="Grupo 63543" transform="translate(244.371 88.641)">
        <path id="Trazado_141665" data-name="Trazado 141665" d="M250.841,118.6H238.367a1.983,1.983,0,0,1-1.982-1.982V67.794a1.985,1.985,0,0,1,1.982-1.985h12.474a1.986,1.986,0,0,1,1.984,1.985v48.82A1.983,1.983,0,0,1,250.841,118.6Zm-10.49-3.966h8.508V69.775h-8.508Z" transform="translate(-236.385 -65.809)" fill="#1f5e96"/>
      </g>
      <g id="Grupo_63544" data-name="Grupo 63544" transform="translate(256.845 93.961)">
        <path id="Trazado_141666" data-name="Trazado 141666" d="M255.329,115.19H242.855a1.983,1.983,0,0,1-1.982-1.982v-43.5a1.985,1.985,0,0,1,1.982-1.984h12.474a1.983,1.983,0,0,1,1.982,1.984v43.5A1.981,1.981,0,0,1,255.329,115.19Zm-10.49-3.966h8.508V71.689h-8.508Z" transform="translate(-240.873 -67.723)" fill="#1f5e96"/>
      </g>
      <g id="Grupo_63545" data-name="Grupo 63545" transform="translate(269.319 77.115)">
        <path id="Trazado_141667" data-name="Trazado 141667" d="M259.817,125.975H247.343a1.981,1.981,0,0,1-1.982-1.982V63.644a1.981,1.981,0,0,1,1.982-1.982h12.474a1.981,1.981,0,0,1,1.982,1.982v60.349A1.981,1.981,0,0,1,259.817,125.975Zm-10.492-3.966h8.511V65.625h-8.511Z" transform="translate(-245.361 -61.662)" fill="#1f5e96"/>
      </g>
      <g id="Grupo_63546" data-name="Grupo 63546" transform="translate(281.793 85.095)">
        <path id="Trazado_141668" data-name="Trazado 141668" d="M264.3,120.866H251.831a1.981,1.981,0,0,1-1.982-1.982V66.515a1.981,1.981,0,0,1,1.982-1.982H264.3a1.981,1.981,0,0,1,1.982,1.982v52.37A1.981,1.981,0,0,1,264.3,120.866ZM253.812,116.9h8.511V68.5h-8.511Z" transform="translate(-249.849 -64.533)" fill="#1f5e96"/>
      </g>
    </g>
  </g>
</svg>
