<svg xmlns="http://www.w3.org/2000/svg" width="202.122" height="202.134" viewBox="0 0 202.122 202.134">
  <g id="Grupo_63816" data-name="Grupo 63816" transform="translate(0)">
    <rect id="Rectángulo_19002" data-name="Rectángulo 19002" width="202" height="126" transform="translate(0 58.578)" fill="#fff"/>
    <g id="Grupo_63078" data-name="Grupo 63078" transform="translate(0 0)">
      <path id="Trazado_140125" data-name="Trazado 140125" d="M862.385,3993.729q-95.288,0-190.575,0c-5.618,0-5.622.011-5.622,5.726q0,47.821,0,95.643,0,47.465,0,94.933c0,5.824,0,5.83,5.867,5.83q95.287,0,190.575,0c5.67,0,5.678-.008,5.678-5.673q0-95.287,0-190.575C868.308,3993.741,868.3,3993.73,862.385,3993.729ZM718.493,4164.518c-4.953.05-9.907.013-14.859.013-4.836,0-9.671.04-14.506-.015-3.527-.042-4.125-.606-4.155-4.162q-.094-11.321,0-22.643c.023-2.994.536-3.505,3.548-3.524q13.09-.08,26.181.007c2.95.021,3.577.564,4.023,3.359,1.206,7.567,2.37,15.141,3.447,22.726C722.676,4163.839,722.067,4164.482,718.493,4164.518Zm50.331-20.146c1.9,2.065,1.858,4.532.271,6.829a4.8,4.8,0,0,0-.989,3.9c.7,4.029-.774,6.389-4.783,7.839a38.765,38.765,0,0,1-12.511,2.081,62.225,62.225,0,0,1-20.914-2.844,3.679,3.679,0,0,1-2.859-3.163q-1.835-12.057-3.7-24.109c-.281-1.793.769-2.861,1.865-3.957a71.728,71.728,0,0,0,11.487-15.184c1.287-2.248,2.41-4.592,3.539-6.925a21.206,21.206,0,0,0,2.041-10.652c-.062-1.055.026-2.12.05-3.182a3.406,3.406,0,0,1,2.119-3.375,3.621,3.621,0,0,1,3.918.9c2.966,2.562,4.075,5.987,4.281,9.755.182,3.324-.555,6.565-1.135,9.81-.9,5.037,1.108,7.638,6.227,7.875,2,.093,4.008.037,6.012.045,2.64.013,4.887.663,6.03,3.395,1.156,2.763.063,4.78-1.982,6.543a1.417,1.417,0,0,0-.688,1.191c.245.858,1.157,1.065,1.746,1.611,2.8,2.6,3.01,5.677.224,8.256C767.719,4142.27,767.5,4142.931,768.824,4144.371Zm42.663-2.206a25.51,25.51,0,0,1-3.531.221,2.351,2.351,0,0,0-2.641,2.607c-.039,2.243-.046,4.486-.052,6.729-.009,3.307,0,6.613-.011,9.919a7.273,7.273,0,0,1-.4,3.138,2.371,2.371,0,0,1-4.268.329,7.075,7.075,0,0,1-.834-4.1c-.016-5.078-.008-10.155-.03-15.232-.007-1.589-.088-3.113-2.249-3.341-2.481-.263-3.515.458-3.566,3.066-.1,4.957-.036,9.918-.051,14.877,0,1.062,0,2.127-.089,3.185a2.665,2.665,0,0,1-2.406,2.646c-1.323.2-2.539-.872-2.844-2.576a18.5,18.5,0,0,1-.169-3.177c-.017-4.605.016-9.21-.016-13.815-.027-3.908-.142-3.99-3.858-4.294-5.194-.426-7.151-.547-6.121-7.433.955-6.383,2.714-12.458,6.423-17.824a8.22,8.22,0,0,0,1.506-4.969q-.077-7.261,0-14.523c.046-4.684.88-5.586,5.393-6.045,1.184-.121,2.462-.072,2.812-1.581a3.12,3.12,0,0,0-1.614-3.568c-2.051-1.37-3.982-2.278-6.536-1.077a10.568,10.568,0,0,1-5.411,1.014c.291-1.109,1.266-1.315,1.927-1.783,2.534-1.792,2.522-2.019-.17-3.321-1.116-.54-2.4-.854-3.383-2.046,4.646-.127,4.6-.141,5.969-4.442a10.724,10.724,0,0,1,8.744-7.839c4.506-.808,9.44,1.55,10.861,4.936,2.473,5.893,1.647,10.268-2.614,13.754-.547.448-1.151.826-1.717,1.251a2.827,2.827,0,0,0-.951,3.183c.312,1.316,1.449,1.354,2.513,1.5,4.742.671,5.19,1.177,5.221,6.1.03,4.6.064,9.211-.012,13.815a9.359,9.359,0,0,0,1.818,5.921c4.174,5.828,5.918,12.552,6.589,19.572C816.057,4140.466,815.006,4141.64,811.487,4142.165Zm33.974-67.589c-1.915.172-2.635,1.261-2.639,3.077-.009,4.182-2.028,7.155-5.61,9.17a5.277,5.277,0,0,0-1.435,1.009,2.089,2.089,0,0,0,1.157,3.534,20.18,20.18,0,0,0,2.817.215c3.328.273,4.6,1.5,4.938,4.83a24.488,24.488,0,0,1,.074,2.477c.005,8.029-.029,16.057.022,24.085.016,2.566-.226,4.916-2.4,6.709-1.352,1.114-1.029,2.809-1.032,4.319-.02,9.209,0,18.417-.021,27.626a17.28,17.28,0,0,1-.264,3.516,2.389,2.389,0,0,1-2.556,2,2.465,2.465,0,0,1-2.3-1.888,10.675,10.675,0,0,1-.375-3.855q-.016-10.626-.008-21.251c0-.945.039-1.9-.048-2.832-.2-2.125-.827-2.672-2.909-2.667s-2.821.543-2.87,2.686c-.112,4.838-.059,9.68-.068,14.52-.006,3.542.015,7.084-.017,10.626a11.691,11.691,0,0,1-.29,2.8,2.525,2.525,0,0,1-4.9-.075,16.713,16.713,0,0,1-.277-3.513q-.031-13.637,0-27.274c.009-2.173-.054-4.185-1.959-5.755a4.882,4.882,0,0,1-1.427-3.891c-.031-9.327-.1-18.654.016-27.98.048-3.732,1.51-4.974,5.25-5.229.706-.048,1.418-.04,2.121-.111a2.006,2.006,0,0,0,2.051-1.612,2.247,2.247,0,0,0-1-2.46c-.687-.456-1.452-.8-2.122-1.278-2.419-1.72-4.216-4-4.293-7-.075-2.9-.81-4.844-4.444-4.782.8-1.172,1.425-1.145,1.979-1.106a5.6,5.6,0,0,0,4.9-2.3,9.683,9.683,0,0,1,6.124-3.253,8.793,8.793,0,0,1,6.994,1.823c1.3,1.008,2.319,2.467,3.735,3.2,1.261.652,2.9.584,4.347.831C846.718,4074.6,845.971,4074.531,845.461,4074.576Z" transform="translate(-666.187 -3993.728)" fill="#a83282"/>
      <g id="Grupo_63042" data-name="Grupo 63042" transform="translate(10.383 19.838)">
        <g id="Grupo_63041" data-name="Grupo 63041">
          <path id="Trazado_140239" data-name="Trazado 140239" d="M696.636,4082.935a12.7,12.7,0,0,0,6.02,1.595c3.964,0,6.156-2.478,6.156-5.864,0-4.511-3.481-6.394-7.593-6.443H700.1v-5.957h.8c3-.049,6.807-1.315,6.807-5.211a4.322,4.322,0,0,0-4.694-4.654,9.711,9.711,0,0,0-5.09,1.576l-1.094-6.127a16.614,16.614,0,0,1,8.314-2.132c7.111,0,10.7,4.581,10.7,9.759a9.849,9.849,0,0,1-5.818,9.07v.125c3.914,1.349,6.924,4.84,6.924,10.288,0,6.194-4.719,12.2-13.533,12.2a16.978,16.978,0,0,1-7.922-1.782Z" transform="translate(-695.493 -4049.718)" fill="#fff"/>
        </g>
      </g>
      <g id="Grupo_63043" data-name="Grupo 63043" transform="translate(42.075 19.015)">
        <path id="Trazado_140240" data-name="Trazado 140240" d="M786.911,4056.348a14.424,14.424,0,0,1,2.888-.275,5.438,5.438,0,0,1,3.862,1.1,4.109,4.109,0,0,1,1.215,3.111,4.774,4.774,0,0,1-1.2,3.42,4.923,4.923,0,0,1-3.454,1.363c-.188,0-.37,0-.556-.009v5.291h-2.751Zm2.751,6.458a2.593,2.593,0,0,0,.46.03c1.391,0,2.009-.992,2.009-2.319,0-1.236-.5-2.218-1.785-2.218a2.105,2.105,0,0,0-.684.106Z" transform="translate(-786.213 -4052.999)" fill="#fff"/>
        <path id="Trazado_140241" data-name="Trazado 140241" d="M814.1,4056.348a15.8,15.8,0,0,1,3.015-.275,5.5,5.5,0,0,1,3.789,1.058,3.656,3.656,0,0,1,1.127,2.955,3.771,3.771,0,0,1-2.19,3.548v.042c.963.39,1.453,1.282,1.724,2.816a22.907,22.907,0,0,0,.908,3.852h-2.884a18.512,18.512,0,0,1-.714-3.4c-.242-1.766-.693-2.265-1.61-2.265h-.415v5.666H814.1Zm2.751,6.2h.5a1.961,1.961,0,0,0,1.884-2.212c0-1.215-.481-2.071-1.715-2.1a2.038,2.038,0,0,0-.671.085Z" transform="translate(-803.769 -4052.999)" fill="#fff"/>
        <path id="Trazado_140242" data-name="Trazado 140242" d="M842.5,4061.5l-.623,3.245H839.2l3.086-14.207h3.308l2.762,14.207h-2.689l-.606-3.245Zm4.708-14.1-2.573,2.379h-1.961l1.734-2.379Zm-2.4,11.958-.474-2.975c-.137-.863-.326-2.29-.466-3.229h-.051c-.152.943-.362,2.413-.511,3.234l-.52,2.97Z" transform="translate(-819.974 -4047.395)" fill="#fff"/>
        <path id="Trazado_140243" data-name="Trazado 140243" d="M874,4070.022a5.582,5.582,0,0,1-2.131.334c-3.63,0-5.365-2.984-5.365-7.016,0-5.355,2.972-7.444,5.725-7.444a4.068,4.068,0,0,1,1.931.37l-.461,2.331a2.758,2.758,0,0,0-1.285-.283c-1.575,0-2.984,1.36-2.984,4.874,0,3.391,1.293,4.717,2.968,4.717a4.866,4.866,0,0,0,1.331-.209Z" transform="translate(-837.609 -4052.884)" fill="#fff"/>
        <path id="Trazado_140244" data-name="Trazado 140244" d="M893.15,4058.812h-2.506v-2.559h7.8v2.559h-2.523v11.649H893.15Z" transform="translate(-853.194 -4053.115)" fill="#fff"/>
        <path id="Trazado_140245" data-name="Trazado 140245" d="M919.552,4056.253v14.208h-2.768v-14.208Z" transform="translate(-870.072 -4053.115)" fill="#fff"/>
        <path id="Trazado_140246" data-name="Trazado 140246" d="M937.064,4070.022a5.585,5.585,0,0,1-2.131.334c-3.631,0-5.365-2.984-5.365-7.016,0-5.355,2.972-7.444,5.726-7.444a4.069,4.069,0,0,1,1.931.37l-.461,2.331a2.758,2.758,0,0,0-1.285-.283c-1.575,0-2.984,1.36-2.984,4.874,0,3.391,1.293,4.717,2.968,4.717a4.868,4.868,0,0,0,1.332-.209Z" transform="translate(-878.327 -4052.884)" fill="#fff"/>
        <path id="Trazado_140247" data-name="Trazado 140247" d="M956.307,4067.216l-.623,3.245H953l3.086-14.208H959.4l2.762,14.208H959.47l-.606-3.245Zm2.312-2.143-.474-2.975c-.137-.863-.326-2.291-.466-3.23h-.051c-.152.944-.363,2.413-.512,3.234l-.519,2.97Z" transform="translate(-893.46 -4053.115)" fill="#fff"/>
        <path id="Trazado_140248" data-name="Trazado 140248" d="M981.6,4067.4a5.271,5.271,0,0,0,2.337.557c1.3,0,1.953-.677,1.953-1.612,0-1.015-.643-1.535-1.847-2.3-1.941-1.192-2.677-2.68-2.677-3.971,0-2.281,1.513-4.171,4.49-4.171a4.816,4.816,0,0,1,2.233.51l-.442,2.377a3.373,3.373,0,0,0-1.805-.485c-1.186,0-1.753.716-1.753,1.468,0,.852.429,1.3,1.955,2.221a4.6,4.6,0,0,1,2.569,4.06c0,2.61-1.918,4.31-4.688,4.31a6.157,6.157,0,0,1-2.724-.57Z" transform="translate(-911.668 -4052.884)" fill="#fff"/>
        <path id="Trazado_140249" data-name="Trazado 140249" d="M792.438,4129.517a5.588,5.588,0,0,1-2.131.334c-3.63,0-5.365-2.984-5.365-7.017,0-5.354,2.972-7.443,5.726-7.443a4.068,4.068,0,0,1,1.931.37l-.461,2.331a2.741,2.741,0,0,0-1.285-.284c-1.575,0-2.984,1.361-2.984,4.875,0,3.391,1.293,4.716,2.968,4.716a4.848,4.848,0,0,0,1.332-.208Z" transform="translate(-784.942 -4091.3)" fill="#fff"/>
        <path id="Trazado_140250" data-name="Trazado 140250" d="M816.81,4122.293c0,5.357-1.9,7.522-4.6,7.522-3.214,0-4.485-3.406-4.485-7.305,0-3.881,1.542-7.239,4.688-7.239C815.843,4115.271,816.81,4119.039,816.81,4122.293Zm-6.2.25c0,3.222.6,4.87,1.718,4.87,1.171,0,1.61-2.114,1.61-4.987,0-2.507-.382-4.755-1.631-4.755C811.2,4117.672,810.606,4119.495,810.606,4122.544Z" transform="translate(-799.656 -4091.223)" fill="#fff"/>
        <path id="Trazado_140251" data-name="Trazado 140251" d="M846.05,4124.987c-.072-1.362-.161-3.181-.131-4.712h-.055c-.254,1.523-.633,3.271-.9,4.377l-1.235,5.07h-1.96l-1.179-4.99c-.274-1.15-.651-2.915-.867-4.457h-.051c-.041,1.549-.142,3.341-.214,4.748l-.241,4.932h-2.369l1.02-14.208h2.916l1.134,5.142c.394,1.8.752,3.369,1.007,4.977h.046c.217-1.578.533-3.179.906-4.977l1.12-5.142h2.917l.863,14.208H846.3Z" transform="translate(-818.458 -4091.53)" fill="#fff"/>
        <path id="Trazado_140252" data-name="Trazado 140252" d="M882.215,4123.708h-3.237v3.85h3.652v2.4h-6.42v-14.208h6.179v2.4h-3.411v3.266h3.237Z" transform="translate(-843.874 -4091.53)" fill="#fff"/>
        <path id="Trazado_140253" data-name="Trazado 140253" d="M899.651,4115.842a15.828,15.828,0,0,1,3.015-.274,5.5,5.5,0,0,1,3.789,1.057,3.658,3.658,0,0,1,1.127,2.956,3.77,3.77,0,0,1-2.19,3.548v.042c.963.391,1.454,1.283,1.725,2.817a22.937,22.937,0,0,0,.908,3.851H905.14a18.537,18.537,0,0,1-.714-3.4c-.242-1.766-.693-2.265-1.61-2.265H902.4v5.666h-2.752Zm2.752,6.2h.5a1.96,1.96,0,0,0,1.884-2.211c0-1.216-.481-2.071-1.715-2.1a2.078,2.078,0,0,0-.671.084Z" transform="translate(-859.01 -4091.414)" fill="#fff"/>
        <path id="Trazado_140254" data-name="Trazado 140254" d="M933.14,4129.517a5.588,5.588,0,0,1-2.131.334c-3.631,0-5.365-2.984-5.365-7.017,0-5.354,2.971-7.443,5.725-7.443a4.069,4.069,0,0,1,1.931.37l-.461,2.331a2.742,2.742,0,0,0-1.285-.284c-1.575,0-2.984,1.361-2.984,4.875,0,3.391,1.293,4.716,2.968,4.716a4.848,4.848,0,0,0,1.332-.208Z" transform="translate(-875.793 -4091.3)" fill="#fff"/>
        <path id="Trazado_140255" data-name="Trazado 140255" d="M953.88,4115.747v14.208h-2.768v-14.208Z" transform="translate(-892.238 -4091.53)" fill="#fff"/>
        <path id="Trazado_140256" data-name="Trazado 140256" d="M966.186,4126.71l-.623,3.245h-2.681l3.086-14.208h3.308l2.762,14.208h-2.689l-.606-3.245Zm2.312-2.143-.474-2.974c-.137-.863-.326-2.291-.466-3.23h-.051c-.152.943-.363,2.413-.512,3.234l-.52,2.97Z" transform="translate(-899.838 -4091.53)" fill="#fff"/>
        <path id="Trazado_140257" data-name="Trazado 140257" d="M993.113,4115.747h2.768v11.865h3.634v2.343h-6.4Z" transform="translate(-919.358 -4091.53)" fill="#fff"/>
        <path id="Trazado_140258" data-name="Trazado 140258" d="M1021.726,4123.708h-3.237v3.85h3.652v2.4h-6.42v-14.208h6.179v2.4h-3.411v3.266h3.237Z" transform="translate(-933.956 -4091.53)" fill="#fff"/>
        <path id="Trazado_140259" data-name="Trazado 140259" d="M1037.528,4126.893a5.267,5.267,0,0,0,2.337.557c1.3,0,1.953-.678,1.953-1.612,0-1.015-.643-1.535-1.848-2.3-1.941-1.192-2.677-2.681-2.677-3.971,0-2.282,1.513-4.171,4.49-4.171a4.807,4.807,0,0,1,2.232.51l-.442,2.376a3.377,3.377,0,0,0-1.805-.484c-1.185,0-1.753.716-1.753,1.467,0,.851.429,1.3,1.955,2.221a4.6,4.6,0,0,1,2.569,4.061c0,2.61-1.918,4.31-4.688,4.31a6.134,6.134,0,0,1-2.724-.571Z" transform="translate(-947.78 -4091.3)" fill="#fff"/>
        <path id="Trazado_140260" data-name="Trazado 140260" d="M1070.7,4115.747h2.768v9.675c0,4.094-1.978,4.7-3.989,4.7a4.248,4.248,0,0,1-1.392-.2l.234-2.327a3.112,3.112,0,0,0,.895.113c.805,0,1.484-.332,1.484-2.159Z" transform="translate(-967.77 -4091.53)" fill="#fff"/>
        <path id="Trazado_140261" data-name="Trazado 140261" d="M1092.2,4115.747v9.231c0,2.085.613,2.727,1.35,2.727.789,0,1.363-.573,1.363-2.727v-9.231h2.768v8.743c0,3.661-1.386,5.633-4.124,5.633-2.97,0-4.126-2.055-4.126-5.6v-8.772Z" transform="translate(-981.555 -4091.53)" fill="#fff"/>
        <path id="Trazado_140262" data-name="Trazado 140262" d="M1117.786,4126.893a5.266,5.266,0,0,0,2.337.557c1.3,0,1.953-.678,1.953-1.612,0-1.015-.643-1.535-1.847-2.3-1.941-1.192-2.677-2.681-2.677-3.971,0-2.282,1.513-4.171,4.489-4.171a4.806,4.806,0,0,1,2.233.51l-.441,2.376a3.379,3.379,0,0,0-1.806-.484c-1.185,0-1.752.716-1.752,1.467,0,.851.429,1.3,1.955,2.221a4.6,4.6,0,0,1,2.569,4.061c0,2.61-1.917,4.31-4.688,4.31a6.135,6.135,0,0,1-2.724-.571Z" transform="translate(-999.601 -4091.3)" fill="#fff"/>
        <path id="Trazado_140263" data-name="Trazado 140263" d="M1142.606,4118.306H1140.1v-2.559h7.8v2.559h-2.523v11.648h-2.768Z" transform="translate(-1014.268 -4091.53)" fill="#fff"/>
        <path id="Trazado_140264" data-name="Trazado 140264" d="M1164.537,4126.71l-.623,3.245h-2.681l3.086-14.208h3.308l2.762,14.208H1167.7l-.606-3.245Zm2.312-2.143-.474-2.974c-.137-.863-.326-2.291-.466-3.23h-.051c-.152.943-.362,2.413-.511,3.234l-.52,2.97Z" transform="translate(-1027.913 -4091.53)" fill="#fff"/>
        <path id="Trazado_140265" data-name="Trazado 140265" d="M1189.831,4126.893a5.266,5.266,0,0,0,2.337.557c1.3,0,1.953-.678,1.953-1.612,0-1.015-.643-1.535-1.847-2.3-1.941-1.192-2.677-2.681-2.677-3.971,0-2.282,1.514-4.171,4.49-4.171a4.807,4.807,0,0,1,2.233.51l-.441,2.376a3.381,3.381,0,0,0-1.806-.484c-1.185,0-1.752.716-1.752,1.467,0,.851.429,1.3,1.955,2.221a4.6,4.6,0,0,1,2.569,4.061c0,2.61-1.918,4.31-4.689,4.31a6.133,6.133,0,0,1-2.724-.571Z" transform="translate(-1046.122 -4091.3)" fill="#fff"/>
      </g>
    </g>
  </g>
</svg>
