<svg xmlns="http://www.w3.org/2000/svg" width="154.667" height="154.667" viewBox="0 0 154.667 154.667">
  <g id="Grupo_63837" data-name="Grupo 63837" transform="translate(-325 -4282.675)">
    <path id="Trazado_105094" data-name="Trazado 105094" d="M2682.54,6466.171q3.8,0,7.58.373t7.507,1.114q3.727.739,7.362,1.843t7.146,2.557q3.51,1.453,6.861,3.244t6.51,3.9q3.158,2.111,6.1,4.521t5.623,5.1q2.687,2.687,5.1,5.623t4.521,6.1q2.111,3.157,3.9,6.509t3.245,6.861q1.454,3.509,2.557,7.145t1.844,7.362q.741,3.727,1.114,7.506t.373,7.581q0,3.8-.373,7.58t-1.114,7.508q-.742,3.726-1.844,7.361t-2.557,7.146q-1.455,3.51-3.245,6.861t-3.9,6.51q-2.111,3.158-4.521,6.1t-5.1,5.623q-2.686,2.689-5.623,5.1t-6.1,4.521q-3.159,2.111-6.51,3.9t-6.861,3.244q-3.509,1.454-7.146,2.557t-7.362,1.844q-3.725.743-7.507,1.114t-7.58.373q-3.8,0-7.58-.373t-7.507-1.114q-3.725-.741-7.362-1.844t-7.146-2.557q-3.51-1.455-6.86-3.244t-6.51-3.9q-3.159-2.109-6.1-4.521t-5.624-5.1q-2.686-2.687-5.1-5.623t-4.521-6.1q-2.111-3.16-3.9-6.51t-3.244-6.861q-1.455-3.509-2.557-7.146t-1.844-7.361q-.741-3.727-1.113-7.508t-.372-7.58q0-3.8.372-7.581t1.113-7.506q.741-3.725,1.844-7.362t2.557-7.145q1.453-3.511,3.244-6.861t3.9-6.509q2.111-3.159,4.521-6.1t5.1-5.623q2.688-2.688,5.624-5.1t6.1-4.521q3.158-2.109,6.51-3.9t6.86-3.244q3.51-1.455,7.146-2.557t7.362-1.843q3.726-.743,7.507-1.114T2682.54,6466.171Z" transform="translate(-2280.207 -2183.496)" fill="#a0a603"/>
    <circle id="Elipse_1224" data-name="Elipse 1224" cx="72.641" cy="72.641" r="72.641" transform="translate(329.693 4287.368)" fill="#fff"/>
    <path id="shutterstock_1802230447" d="M66.08,0A66.08,66.08,0,1,1,0,66.08,66.08,66.08,0,0,1,66.08,0Z" transform="translate(336.254 4293.929)" fill="#ecedcc"/>
    <g id="Grupo_63588" data-name="Grupo 63588" transform="translate(318.603 3896.479)">
      <g id="Grupo_63594" data-name="Grupo 63594" transform="translate(45.397 436.592)">
        <g id="Grupo_63588-2" data-name="Grupo 63588" transform="translate(47.214 63.926)">
          <path id="Trazado_141693" data-name="Trazado 141693" d="M94.977,472.7H77.506a2.1,2.1,0,0,1,0-4.2h17.47a2.1,2.1,0,0,1,0,4.2Z" transform="translate(-75.406 -468.5)" fill="#6f7302"/>
        </g>
        <g id="Grupo_63589" data-name="Grupo 63589" transform="translate(0 27.516)">
          <path id="Trazado_141694" data-name="Trazado 141694" d="M60.712,485.969a2.1,2.1,0,0,1-2.1-2.1V449.559H49.6v27.865a2.1,2.1,0,0,1-4.2,0V447.458a2.1,2.1,0,0,1,2.1-2.1H60.712a2.1,2.1,0,0,1,2.1,2.1v36.41A2.1,2.1,0,0,1,60.712,485.969Z" transform="translate(-45.397 -445.358)" fill="#6f7302"/>
        </g>
        <g id="Grupo_63590" data-name="Grupo 63590" transform="translate(13.214 12.211)">
          <path id="Trazado_141695" data-name="Trazado 141695" d="M69.109,491.546H55.9a2.1,2.1,0,0,1-2.1-2.1V437.73a2.1,2.1,0,0,1,2.1-2.1H69.109a2.1,2.1,0,0,1,2.1,2.1v51.715A2.1,2.1,0,0,1,69.109,491.546ZM58,487.345h9.014V439.831H58Z" transform="translate(-53.796 -435.63)" fill="#6f7302"/>
        </g>
        <g id="Grupo_63591" data-name="Grupo 63591" transform="translate(26.427 17.846)">
          <path id="Trazado_141696" data-name="Trazado 141696" d="M77.507,489.492H64.294a2.1,2.1,0,0,1-2.1-2.1V441.312a2.1,2.1,0,0,1,2.1-2.1H77.507a2.1,2.1,0,0,1,2.1,2.1v46.079A2.1,2.1,0,0,1,77.507,489.492Zm-11.112-4.2h9.012v-41.88H66.395Z" transform="translate(-62.194 -439.212)" fill="#6f7302"/>
        </g>
        <g id="Grupo_63592" data-name="Grupo 63592" transform="translate(39.64)">
          <path id="Trazado_141697" data-name="Trazado 141697" d="M85.905,496H72.692a2.1,2.1,0,0,1-2.1-2.1V429.968a2.1,2.1,0,0,1,2.1-2.1H85.905a2.1,2.1,0,0,1,2.1,2.1V493.9A2.1,2.1,0,0,1,85.905,496Zm-11.112-4.2H83.8V432.068H74.793Z" transform="translate(-70.592 -427.869)" fill="#6f7302"/>
        </g>
        <g id="Grupo_63593" data-name="Grupo 63593" transform="translate(52.853 8.452)">
          <path id="Trazado_141698" data-name="Trazado 141698" d="M94.3,492.916H81.09a2.1,2.1,0,0,1-2.1-2.1V435.341a2.1,2.1,0,0,1,2.1-2.1H94.3a2.1,2.1,0,0,1,2.1,2.1v55.474A2.1,2.1,0,0,1,94.3,492.916Zm-11.112-4.2H92.2V437.442H83.191Z" transform="translate(-78.99 -433.241)" fill="#6f7302"/>
        </g>
      </g>
      <g id="Grupo_63598" data-name="Grupo 63598" transform="translate(86.011 412.655)">
        <g id="Grupo_63595" data-name="Grupo 63595">
          <path id="Trazado_141699" data-name="Trazado 141699" d="M78.911,432.3a7.709,7.709,0,0,1-7.7-7.7c0-4.114,6.968-11.455,7.266-11.765a.62.62,0,0,1,.87,0c.3.31,7.266,7.651,7.266,11.765a7.665,7.665,0,0,1-4.846,7.154.6.6,0,1,1-.447-1.117,6.47,6.47,0,0,0,4.089-6.037c0-2.813-4.344-8.125-6.5-10.469-2.152,2.344-6.5,7.659-6.5,10.469a6.5,6.5,0,0,0,6.5,6.5.6.6,0,1,1,0,1.2Z" transform="translate(-71.211 -412.655)" fill="#6f7302"/>
        </g>
        <g id="Grupo_63596" data-name="Grupo 63596" transform="translate(7.099 6.135)">
          <path id="Trazado_141700" data-name="Trazado 141700" d="M76.324,430.063a.6.6,0,0,1-.6-.6V417.155a.6.6,0,0,1,1.2,0v12.306A.6.6,0,0,1,76.324,430.063Z" transform="translate(-75.723 -416.554)" fill="#6f7302"/>
        </g>
        <g id="Grupo_63597" data-name="Grupo 63597" transform="translate(4.269 9.199)">
          <path id="Trazado_141701" data-name="Trazado 141701" d="M77.355,422.536a.6.6,0,0,1-.425-.176l-2.83-2.832a.6.6,0,0,1,.851-.85l2.83,2.83a.6.6,0,0,1-.426,1.027Z" transform="translate(-73.924 -418.501)" fill="#6f7302"/>
        </g>
      </g>
    </g>
  </g>
</svg>
