<svg xmlns="http://www.w3.org/2000/svg" width="154.667" height="154.667" viewBox="0 0 154.667 154.667">
  <g id="Grupo_63832" data-name="Grupo 63832" transform="translate(-325 -3139.675)">
    <path id="Trazado_105094" data-name="Trazado 105094" d="M2682.54,6466.171q3.8,0,7.58.373t7.507,1.114q3.727.739,7.362,1.843t7.146,2.557q3.51,1.453,6.861,3.244t6.51,3.9q3.158,2.111,6.1,4.521t5.623,5.1q2.687,2.687,5.1,5.623t4.521,6.1q2.111,3.157,3.9,6.509t3.245,6.861q1.454,3.509,2.557,7.145t1.844,7.362q.741,3.727,1.114,7.506t.373,7.581q0,3.8-.373,7.58t-1.114,7.508q-.742,3.726-1.844,7.361t-2.557,7.146q-1.455,3.51-3.245,6.861t-3.9,6.51q-2.111,3.158-4.521,6.1t-5.1,5.623q-2.686,2.689-5.623,5.1t-6.1,4.521q-3.159,2.111-6.51,3.9t-6.861,3.244q-3.509,1.454-7.146,2.557t-7.362,1.844q-3.725.743-7.507,1.114t-7.58.373q-3.8,0-7.58-.373t-7.507-1.114q-3.725-.741-7.362-1.844t-7.146-2.557q-3.51-1.455-6.86-3.244t-6.51-3.9q-3.159-2.109-6.1-4.521t-5.624-5.1q-2.686-2.687-5.1-5.623t-4.521-6.1q-2.111-3.16-3.9-6.51t-3.244-6.861q-1.455-3.509-2.557-7.146t-1.844-7.361q-.741-3.727-1.113-7.508t-.372-7.58q0-3.8.372-7.581t1.113-7.506q.741-3.725,1.844-7.362t2.557-7.145q1.453-3.511,3.244-6.861t3.9-6.509q2.111-3.159,4.521-6.1t5.1-5.623q2.688-2.688,5.624-5.1t6.1-4.521q3.158-2.109,6.51-3.9t6.86-3.244q3.51-1.455,7.146-2.557t7.362-1.843q3.726-.743,7.507-1.114T2682.54,6466.171Z" transform="translate(-2280.207 -3326.496)" fill="#529ad9"/>
    <circle id="Elipse_1224" data-name="Elipse 1224" cx="72.641" cy="72.641" r="72.641" transform="translate(329.693 3144.368)" fill="#fff"/>
    <path id="shutterstock_1802230447" d="M66.08,0A66.08,66.08,0,1,1,0,66.08,66.08,66.08,0,0,1,66.08,0Z" transform="translate(336.254 3150.929)" fill="#dcebf8"/>
    <g id="Grupo_63539" data-name="Grupo 63539" transform="translate(219.58 3060.654)">
      <g id="Grupo_63489" data-name="Grupo 63489" transform="translate(162.559 139.415)">
        <path id="Trazado_141628" data-name="Trazado 141628" d="M172.672,166.777a17.249,17.249,0,1,1,17.249-17.249A17.268,17.268,0,0,1,172.672,166.777Zm0-31.237a13.988,13.988,0,1,0,13.988,13.988A14,14,0,0,0,172.672,135.54Z" transform="translate(-155.423 -132.279)" fill="#1f5e96"/>
      </g>
      <g id="Grupo_63494" data-name="Grupo 63494" transform="translate(174.009 114.279)">
        <g id="Grupo_63490" data-name="Grupo 63490" transform="translate(4.17 56.725)">
          <path id="Trazado_141629" data-name="Trazado 141629" d="M168.238,169.222a1.631,1.631,0,0,1-1.63-1.631v-11.06a1.63,1.63,0,1,1,3.261,0v11.06A1.631,1.631,0,0,1,168.238,169.222Z" transform="translate(-166.608 -154.9)" fill="#1f5e96"/>
        </g>
        <g id="Grupo_63491" data-name="Grupo 63491" transform="translate(4.17 13.726)">
          <path id="Trazado_141630" data-name="Trazado 141630" d="M168.238,138.437a1.631,1.631,0,0,1-1.63-1.631V125.738a1.63,1.63,0,0,1,3.261,0v11.068A1.631,1.631,0,0,1,168.238,138.437Z" transform="translate(-166.608 -124.108)" fill="#1f5e96"/>
        </g>
        <g id="Grupo_63492" data-name="Grupo 63492">
          <path id="Trazado_141631" data-name="Trazado 141631" d="M169.421,125.878a5.8,5.8,0,1,1,5.8-5.8A5.806,5.806,0,0,1,169.421,125.878Zm0-8.338a2.539,2.539,0,1,0,2.539,2.537A2.541,2.541,0,0,0,169.421,117.54Z" transform="translate(-163.622 -114.279)" fill="#1f5e96"/>
        </g>
        <g id="Grupo_63493" data-name="Grupo 63493" transform="translate(0 73.172)">
          <path id="Trazado_141632" data-name="Trazado 141632" d="M169.421,178.277a5.8,5.8,0,1,1,5.8-5.8A5.806,5.806,0,0,1,169.421,178.277Zm0-8.338a2.539,2.539,0,1,0,2.539,2.539A2.542,2.542,0,0,0,169.421,169.939Z" transform="translate(-163.622 -166.678)" fill="#1f5e96"/>
        </g>
      </g>
      <g id="Grupo_63508" data-name="Grupo 63508" transform="translate(141.341 118.19)">
        <g id="Grupo_63495" data-name="Grupo 63495" transform="translate(48.125 48.136)">
          <path id="Trazado_141633" data-name="Trazado 141633" d="M187.4,165.886a1.623,1.623,0,0,1-1.152-.478l-11.075-11.075a1.63,1.63,0,0,1,2.306-2.306L188.548,163.1a1.63,1.63,0,0,1-1.152,2.783Z" transform="translate(-174.691 -151.55)" fill="#1f5e96"/>
        </g>
        <g id="Grupo_63496" data-name="Grupo 63496" transform="translate(19.092 19.099)">
          <path id="Trazado_141634" data-name="Trazado 141634" d="M158.4,136.883a1.625,1.625,0,0,1-1.153-.476l-2.866-2.867a1.63,1.63,0,0,1,2.3-2.306l2.867,2.867a1.629,1.629,0,0,1-1.152,2.782Z" transform="translate(-153.9 -130.757)" fill="#1f5e96"/>
        </g>
        <g id="Grupo_63497" data-name="Grupo 63497" transform="translate(58.539 58.601)">
          <path id="Trazado_141635" data-name="Trazado 141635" d="M187.947,170.587a5.8,5.8,0,0,1-4.1-9.9,5.94,5.94,0,0,1,8.2,0,5.8,5.8,0,0,1-4.1,9.9Zm0-8.338a2.539,2.539,0,0,0-1.794,4.335,2.6,2.6,0,0,0,3.59,0,2.539,2.539,0,0,0-1.8-4.333Z" transform="translate(-182.149 -159.044)" fill="#1f5e96"/>
        </g>
        <g id="Grupo_63507" data-name="Grupo 63507">
          <g id="Grupo_63498" data-name="Grupo 63498">
            <path id="Trazado_141636" data-name="Trazado 141636" d="M152.825,142.286a12.6,12.6,0,1,1,8.912-3.691A12.519,12.519,0,0,1,152.825,142.286Zm0-21.945a9.343,9.343,0,1,0,6.607,2.737A9.276,9.276,0,0,0,152.825,120.341Z" transform="translate(-140.229 -117.08)" fill="#1f5e96"/>
          </g>
          <g id="Grupo_63506" data-name="Grupo 63506" transform="translate(6.705 1.167)">
            <g id="Grupo_63505" data-name="Grupo 63505">
              <g id="Grupo_63504" data-name="Grupo 63504">
                <g id="Grupo_63499" data-name="Grupo 63499" transform="translate(0 3.122)">
                  <path id="Trazado_141637" data-name="Trazado 141637" d="M150.954,136.775c-3.069,0-5.576-1.954-5.832-4.544a1.63,1.63,0,0,1,3.244-.32c.077.774,1.135,1.6,2.588,1.6,1.532,0,2.6-.9,2.6-1.706,0-.017-.113-1.7-2.624-1.7-4.068,0-5.9-2.916-5.9-4.987,0-2.743,2.627-4.974,5.854-4.974,3.092,0,5.6,1.97,5.841,4.582a1.631,1.631,0,1,1-3.248.3c-.07-.781-1.13-1.617-2.593-1.617-1.381,0-2.593.8-2.593,1.713,0,.344.469,1.726,2.638,1.726,4.287,0,5.885,3.04,5.885,4.956C156.813,134.547,154.185,136.775,150.954,136.775Z" transform="translate(-145.03 -120.152)" fill="#1f5e96"/>
                </g>
                <g id="Grupo_63500" data-name="Grupo 63500" transform="translate(4.256)">
                  <path id="Trazado_141638" data-name="Trazado 141638" d="M149.709,123.623a1.63,1.63,0,0,1-1.631-1.63v-2.448a1.63,1.63,0,0,1,3.261,0v2.448A1.63,1.63,0,0,1,149.709,123.623Z" transform="translate(-148.078 -117.916)" fill="#1f5e96"/>
                </g>
                <g id="Grupo_63501" data-name="Grupo 63501" transform="translate(4.256 17.158)">
                  <path id="Trazado_141639" data-name="Trazado 141639" d="M149.709,135.926a1.63,1.63,0,0,1-1.631-1.63v-2.463a1.63,1.63,0,0,1,3.261,0V134.3A1.63,1.63,0,0,1,149.709,135.926Z" transform="translate(-148.078 -130.203)" fill="#1f5e96"/>
                </g>
                <g id="Grupo_63502" data-name="Grupo 63502" transform="translate(4.256 4.484)">
                  <path id="Trazado_141640" data-name="Trazado 141640" d="M149.709,125.885a1.631,1.631,0,0,1-1.631-1.63v-1.5a1.63,1.63,0,1,1,3.261,0v1.5A1.631,1.631,0,0,1,149.709,125.885Z" transform="translate(-148.078 -121.127)" fill="#1f5e96"/>
                </g>
                <g id="Grupo_63503" data-name="Grupo 63503" transform="translate(4.256 13.607)">
                  <path id="Trazado_141641" data-name="Trazado 141641" d="M149.709,132.485a1.631,1.631,0,0,1-1.631-1.63v-1.564a1.63,1.63,0,1,1,3.261,0v1.564A1.631,1.631,0,0,1,149.709,132.485Z" transform="translate(-148.078 -127.66)" fill="#1f5e96"/>
                </g>
              </g>
            </g>
          </g>
        </g>
      </g>
      <g id="Grupo_63509" data-name="Grupo 63509" transform="translate(151.156 155.039)">
        <path id="Trazado_141642" data-name="Trazado 141642" d="M159.959,146.728H148.887a1.63,1.63,0,0,1,0-3.261h11.057a1.63,1.63,0,0,1,.015,3.261Z" transform="translate(-147.257 -143.467)" fill="#1f5e96"/>
      </g>
      <g id="Grupo_63510" data-name="Grupo 63510" transform="translate(199.242 155.039)">
        <path id="Trazado_141643" data-name="Trazado 141643" d="M187.364,146.728h-4.041a1.63,1.63,0,1,1,0-3.261h4.041a1.63,1.63,0,0,1,0,3.261Z" transform="translate(-181.692 -143.467)" fill="#1f5e96"/>
      </g>
      <g id="Grupo_63511" data-name="Grupo 63511" transform="translate(137.423 150.865)">
        <path id="Trazado_141644" data-name="Trazado 141644" d="M143.221,152.077a5.8,5.8,0,1,1,5.8-5.8A5.806,5.806,0,0,1,143.221,152.077Zm0-8.338a2.539,2.539,0,1,0,2.54,2.539A2.541,2.541,0,0,0,143.221,143.739Z" transform="translate(-137.423 -140.478)" fill="#1f5e96"/>
      </g>
      <g id="Grupo_63521" data-name="Grupo 63521" transform="translate(203.798 144.061)">
        <g id="Grupo_63512" data-name="Grupo 63512">
          <path id="Trazado_141645" data-name="Trazado 141645" d="M197.551,160.812a12.6,12.6,0,1,1,8.911-3.691A12.525,12.525,0,0,1,197.551,160.812Zm0-21.945a9.345,9.345,0,1,0,6.605,2.737A9.282,9.282,0,0,0,197.551,138.867Z" transform="translate(-184.954 -135.606)" fill="#1f5e96"/>
        </g>
        <g id="Grupo_63520" data-name="Grupo 63520" transform="translate(6.705 1.167)">
          <g id="Grupo_63519" data-name="Grupo 63519">
            <g id="Grupo_63518" data-name="Grupo 63518">
              <g id="Grupo_63513" data-name="Grupo 63513" transform="translate(0 3.122)">
                <path id="Trazado_141646" data-name="Trazado 141646" d="M195.68,155.3c-3.069,0-5.576-1.955-5.832-4.545a1.63,1.63,0,1,1,3.244-.321c.077.776,1.134,1.606,2.588,1.606,1.532,0,2.6-.9,2.6-1.708,0-.017-.113-1.7-2.625-1.7-4.068,0-5.9-2.916-5.9-4.987,0-2.743,2.625-4.974,5.853-4.974,3.092,0,5.6,1.969,5.843,4.582a1.631,1.631,0,1,1-3.248.3c-.071-.781-1.13-1.617-2.595-1.617-1.381,0-2.592.8-2.592,1.713,0,.342.469,1.726,2.637,1.726,4.287,0,5.886,3.04,5.886,4.956C201.539,153.073,198.91,155.3,195.68,155.3Z" transform="translate(-189.756 -138.678)" fill="#1f5e96"/>
              </g>
              <g id="Grupo_63514" data-name="Grupo 63514" transform="translate(4.256)">
                <path id="Trazado_141647" data-name="Trazado 141647" d="M194.434,142.151a1.631,1.631,0,0,1-1.63-1.631v-2.448a1.63,1.63,0,0,1,3.261,0v2.448A1.631,1.631,0,0,1,194.434,142.151Z" transform="translate(-192.804 -136.442)" fill="#1f5e96"/>
              </g>
              <g id="Grupo_63515" data-name="Grupo 63515" transform="translate(4.256 17.157)">
                <path id="Trazado_141648" data-name="Trazado 141648" d="M194.434,154.452a1.631,1.631,0,0,1-1.63-1.63v-2.463a1.63,1.63,0,1,1,3.261,0v2.463A1.631,1.631,0,0,1,194.434,154.452Z" transform="translate(-192.804 -148.728)" fill="#1f5e96"/>
              </g>
              <g id="Grupo_63516" data-name="Grupo 63516" transform="translate(4.256 4.484)">
                <path id="Trazado_141649" data-name="Trazado 141649" d="M194.434,144.411a1.63,1.63,0,0,1-1.63-1.63v-1.5a1.63,1.63,0,1,1,3.261,0v1.5A1.63,1.63,0,0,1,194.434,144.411Z" transform="translate(-192.804 -139.653)" fill="#1f5e96"/>
              </g>
              <g id="Grupo_63517" data-name="Grupo 63517" transform="translate(4.256 13.607)">
                <path id="Trazado_141650" data-name="Trazado 141650" d="M194.434,151.011a1.63,1.63,0,0,1-1.63-1.63v-1.565a1.63,1.63,0,0,1,3.261,0v1.565A1.63,1.63,0,0,1,194.434,151.011Z" transform="translate(-192.804 -146.186)" fill="#1f5e96"/>
              </g>
            </g>
          </g>
        </g>
      </g>
      <g id="Grupo_63522" data-name="Grupo 63522" transform="translate(189.466 132.511)">
        <path id="Trazado_141651" data-name="Trazado 141651" d="M176.321,141.836a1.631,1.631,0,0,1-1.152-2.785l11.255-11.239a1.63,1.63,0,1,1,2.3,2.307l-11.255,11.239A1.623,1.623,0,0,1,176.321,141.836Z" transform="translate(-174.691 -127.335)" fill="#1f5e96"/>
      </g>
      <g id="Grupo_63523" data-name="Grupo 63523" transform="translate(160.433 169.93)">
        <path id="Trazado_141652" data-name="Trazado 141652" d="M155.531,160.259a1.63,1.63,0,0,1-1.156-2.78l2.854-2.868a1.631,1.631,0,0,1,2.313,2.3l-2.854,2.87A1.626,1.626,0,0,1,155.531,160.259Z" transform="translate(-153.9 -154.131)" fill="#1f5e96"/>
      </g>
      <g id="Grupo_63524" data-name="Grupo 63524" transform="translate(199.881 125.051)">
        <path id="Trazado_141653" data-name="Trazado 141653" d="M187.947,133.535a5.8,5.8,0,0,1-4.1-9.9,5.944,5.944,0,0,1,8.2,0,5.8,5.8,0,0,1-4.1,9.9Zm0-8.338a2.539,2.539,0,0,0-1.794,4.335,2.6,2.6,0,0,0,3.59,0,2.539,2.539,0,0,0-1.8-4.335Z" transform="translate(-182.149 -121.993)" fill="#1f5e96"/>
      </g>
      <g id="Grupo_63534" data-name="Grupo 63534" transform="translate(141.341 169.933)">
        <g id="Grupo_63525" data-name="Grupo 63525">
          <path id="Trazado_141654" data-name="Trazado 141654" d="M152.825,179.337a12.6,12.6,0,1,1,8.912-3.691A12.519,12.519,0,0,1,152.825,179.337Zm0-21.945a9.343,9.343,0,1,0,6.607,2.737A9.276,9.276,0,0,0,152.825,157.392Z" transform="translate(-140.229 -154.133)" fill="#1f5e96"/>
        </g>
        <g id="Grupo_63533" data-name="Grupo 63533" transform="translate(6.705 1.166)">
          <g id="Grupo_63532" data-name="Grupo 63532">
            <g id="Grupo_63531" data-name="Grupo 63531">
              <g id="Grupo_63526" data-name="Grupo 63526" transform="translate(0 3.122)">
                <path id="Trazado_141655" data-name="Trazado 141655" d="M150.954,173.827c-3.069,0-5.576-1.954-5.832-4.544a1.63,1.63,0,0,1,3.244-.32c.077.774,1.135,1.6,2.588,1.6,1.532,0,2.6-.9,2.6-1.706,0-.017-.113-1.7-2.624-1.7-4.068,0-5.9-2.914-5.9-4.985,0-2.743,2.627-4.974,5.854-4.974,3.092,0,5.6,1.97,5.841,4.582a1.631,1.631,0,0,1-3.248.3c-.07-.781-1.13-1.617-2.593-1.617-1.381,0-2.593.8-2.593,1.713,0,.342.469,1.726,2.638,1.726,4.287,0,5.885,3.04,5.885,4.956C156.813,171.6,154.185,173.827,150.954,173.827Z" transform="translate(-145.03 -157.204)" fill="#1f5e96"/>
              </g>
              <g id="Grupo_63527" data-name="Grupo 63527" transform="translate(4.256)">
                <path id="Trazado_141656" data-name="Trazado 141656" d="M149.709,160.675a1.631,1.631,0,0,1-1.631-1.63V156.6a1.63,1.63,0,0,1,3.261,0v2.448A1.631,1.631,0,0,1,149.709,160.675Z" transform="translate(-148.078 -154.968)" fill="#1f5e96"/>
              </g>
              <g id="Grupo_63528" data-name="Grupo 63528" transform="translate(4.256 17.157)">
                <path id="Trazado_141657" data-name="Trazado 141657" d="M149.709,172.979a1.631,1.631,0,0,1-1.631-1.631v-2.463a1.63,1.63,0,1,1,3.261,0v2.463A1.631,1.631,0,0,1,149.709,172.979Z" transform="translate(-148.078 -167.254)" fill="#1f5e96"/>
              </g>
              <g id="Grupo_63529" data-name="Grupo 63529" transform="translate(4.256 4.484)">
                <path id="Trazado_141658" data-name="Trazado 141658" d="M149.709,162.937a1.631,1.631,0,0,1-1.631-1.63v-1.5a1.63,1.63,0,1,1,3.261,0v1.5A1.631,1.631,0,0,1,149.709,162.937Z" transform="translate(-148.078 -158.179)" fill="#1f5e96"/>
              </g>
              <g id="Grupo_63530" data-name="Grupo 63530" transform="translate(4.256 13.607)">
                <path id="Trazado_141659" data-name="Trazado 141659" d="M149.709,169.537a1.631,1.631,0,0,1-1.631-1.63v-1.565a1.63,1.63,0,0,1,3.261,0v1.565A1.631,1.631,0,0,1,149.709,169.537Z" transform="translate(-148.078 -164.712)" fill="#1f5e96"/>
              </g>
            </g>
          </g>
        </g>
      </g>
      <g id="Grupo_63536" data-name="Grupo 63536" transform="translate(169.921 146.777)">
        <g id="Grupo_63535" data-name="Grupo 63535">
          <path id="Trazado_141660" data-name="Trazado 141660" d="M170.582,157.326a9.888,9.888,0,1,1,9.888-9.888A9.9,9.9,0,0,1,170.582,157.326Zm0-16.516a6.628,6.628,0,1,0,6.628,6.628A6.635,6.635,0,0,0,170.582,140.81Z" transform="translate(-160.695 -137.551)" fill="#1f5e96"/>
        </g>
      </g>
      <g id="Grupo_63538" data-name="Grupo 63538" transform="translate(177.69 154.546)">
        <g id="Grupo_63537" data-name="Grupo 63537">
          <path id="Trazado_141661" data-name="Trazado 141661" d="M168.376,147.352a2.119,2.119,0,1,1,2.12-2.12A2.122,2.122,0,0,1,168.376,147.352Z" transform="translate(-166.258 -143.114)" fill="#1f5e96"/>
        </g>
      </g>
    </g>
  </g>
</svg>
