<svg id="Grupo_63086" data-name="Grupo 63086" xmlns="http://www.w3.org/2000/svg" width="202.172" height="202.646" viewBox="0 0 202.172 202.646">
  <rect id="Rectángulo_19006" data-name="Rectángulo 19006" width="196" height="150" transform="translate(0 51.608)" fill="#fff"/>
  <g id="Grupo_63074" data-name="Grupo 63074" transform="translate(0 0)">
    <path id="Trazado_140114" data-name="Trazado 140114" d="M-381.682,4623.852c0-5.847-.019-5.869-5.943-5.869q-95.129,0-190.259,0c-5.96,0-5.967.014-5.967,5.831q0,47.829,0,95.661,0,48.184,0,96.37c0,4.625.133,4.752,4.786,4.766,6.968.018,13.936.006,20.9,0,5.432,0,10.866.048,16.3-.034,3.047-.045,3.428-.6,3.217-3.637-.386-5.532-.736-11.067-1.115-16.6-.354-5.16-.362-5.153,4.737-5.257,6.015-.122,11.358-1.871,15.66-6.307,3.091-3.187,3.043-3.049,6.209-.021a6.306,6.306,0,0,1,2.074,5.971c-.567,4.322-.744,8.7-1.067,13.049-.245,3.294-.56,6.587-.661,9.886-.07,2.289.411,2.685,2.6,2.91a17.379,17.379,0,0,0,1.77.039q18.423,0,36.847,0a18.53,18.53,0,0,0,2.123-.056c2.019-.231,2.419-.678,2.365-2.709-.04-1.533-.161-3.064-.251-4.6-.1-1.635.664-2.513,2.194-3.177,6.637-2.879,8.05-7.41,4.377-13.575-1.146-1.923-1.146-1.923,1.044-2.931a21.912,21.912,0,0,0,8.022-5.672c2.008-2.412,2.088-2.445,4.1-.169,4.439,5.013,10.1,7.187,16.654,7.359,1.181.031,2.361.029,3.542.057a2.126,2.126,0,0,1,2.375,2.426q-.089,2.653-.284,5.3c-.349,4.825-.809,9.644-1.054,14.473-.135,2.667.375,3.069,3.006,3.245.823.056,1.653.026,2.479.026q16.829,0,33.658,0c5.539,0,5.549-.009,5.549-5.44Q-381.679,4719.512-381.682,4623.852Zm-48.809,81.25c0,8.889-8.062,16.728-16.2,16.2a16.167,16.167,0,0,1-16.37-16.082c-.086-9.146,7.185-16.213,16.426-16.433C-438.433,4688.59-430.486,4696.185-430.491,4705.1Zm-62,47.622a1.58,1.58,0,0,1-2.514,1.33,19.774,19.774,0,0,1-5.3-6.89,1.5,1.5,0,0,1,1.612-2.065C-497.075,4745.236-492.375,4751.016-492.487,4752.723Zm-33.5-9.237c4.648.36,9.251.453,13.746,1.5a7.89,7.89,0,0,1,5.623,9.223,3.17,3.17,0,0,1-1.781,2.057,18.941,18.941,0,0,0-6.427,5.419c-.944,1.329-1.852,1.069-2.83-.074a20.1,20.1,0,0,0-4.669-4.28,21.161,21.161,0,0,0-12.015-3.541c-2.587.1-5.185.076-7.771-.036-2.161-.1-2.673-.79-2.391-2.927a6.2,6.2,0,0,1,4.926-5.743C-535.084,4743.939-530.485,4743.9-525.982,4743.486ZM-538.33,4726.6c-.03-7.351,5.4-12.947,12.548-12.926a12.6,12.6,0,0,1,12.851,12.714,12.556,12.556,0,0,1-12.818,12.687A12.312,12.312,0,0,1-538.33,4726.6Zm45.31,70.928c-1.3,1.8-2.616,3.6-4,5.336a1.728,1.728,0,0,1-2.461.608,1.829,1.829,0,0,1-.467-2.763,29.38,29.38,0,0,1,4.3-5.536,1.809,1.809,0,0,1,2.251-.387,1.671,1.671,0,0,1,.836,1.663A4.341,4.341,0,0,1-493.02,4797.529Zm-1.484-9.033c-1.3.038-2.6.032-3.894-.011a14.324,14.324,0,0,1-12.844-8.011,6.024,6.024,0,0,0-7.646-2.964,3.087,3.087,0,0,0-1.858,1.988c-2.713,6.55-8,8.924-14.672,9-2.832.032-5.671.106-8.5-.037-5.873-.3-10.492-2.823-12.977-8.3a4.211,4.211,0,0,0-4.649-2.855,26.012,26.012,0,0,1-3.538-.032c-2.415-.17-3.6-1.205-3.582-3.035.013-1.769,1.229-2.823,3.662-3,1.527-.114,3.068-.1,4.6-.064a3.173,3.173,0,0,0,3.286-2.122c2.8-6.209,7.751-8.915,14.46-8.655,1.178.046,2.36.007,3.54.007v.006c1.77,0,3.541-.036,5.311.007a13.6,13.6,0,0,1,12.372,7.464,6.31,6.31,0,0,0,7.909,3.133,3.216,3.216,0,0,0,1.824-2.024c3.072-6.706,8.532-9.076,15.57-8.558a4.085,4.085,0,0,1,3.37,5.07c-.285.8-.993.95-1.721.973-1.533.05-3.068.046-4.6.1a7.17,7.17,0,0,0-5.28,2.515c-.719.813-1.1,1.632.368,2.11a5.734,5.734,0,0,1,1.294.552,3.069,3.069,0,0,1,1.667,2.911,2.967,2.967,0,0,1-2.174,2.51c-2.325.992-2.4,1.577-.576,3.2a8.243,8.243,0,0,0,5.2,1.966c1.295.076,2.6.083,3.893.08a2.731,2.731,0,0,1,2.962,2.423C-491.044,4787.771-491.47,4788.409-494.5,4788.5Zm13.362,15.1a1.691,1.691,0,0,1-1.5,1.713,1.8,1.8,0,0,1-2.04-1.575,20.766,20.766,0,0,1,.04-7.726,1.647,1.647,0,0,1,1.8-1.382,1.647,1.647,0,0,1,1.646,1.558c.152,1.4.167,2.82.229,4.014C-481.027,4801.479-481.041,4802.542-481.143,4803.6Zm-.041-50.84a1.6,1.6,0,0,1-1.3,1.485,1.587,1.587,0,0,1-1.925-1.161,15.747,15.747,0,0,1-.141-8.33,1.537,1.537,0,0,1,1.591-1.157,1.622,1.622,0,0,1,1.736,1.434c.194,1.271.2,2.571.276,3.776C-481.024,4750.181-481.049,4751.474-481.184,4752.756Zm6.842-16.5c.507-3.8,1.8-6.569,5.655-7.75a53.878,53.878,0,0,1,9.345-1.905,102.594,102.594,0,0,1,29.243.578c8.622,1.425,10.155,3.026,11.583,11.619a66.923,66.923,0,0,1,.535,12c-.038,2.676-.413,2.967-3.162,3.021-2.123.043-4.246.009-6.37.009-1.533,0-3.067-.015-4.6.005a20.46,20.46,0,0,0-15.552,7.215c-1.855,2.075-1.917,2.136-3.712.109a21.722,21.722,0,0,0-8.932-6.156c-1.349-.492-1.629-1.2-.748-2.36a14.272,14.272,0,0,0,.977-1.475,8.478,8.478,0,0,0-.506-9.628,8.308,8.308,0,0,0-9.209-2.7c-.339.1-.658.272-1,.357C-472.988,4739.745-474.644,4738.514-474.342,4736.255Zm8.8,10.57a2.546,2.546,0,0,1-.177.9,33.706,33.706,0,0,1-4.624,6.137,1.643,1.643,0,0,1-2.241.232,1.586,1.586,0,0,1-.637-2.147,23.445,23.445,0,0,1,4.859-6.372A1.646,1.646,0,0,1-465.546,4746.825Zm-.687,56.542a1.538,1.538,0,0,1-1.969-.037,23.5,23.5,0,0,1-5.046-6.708,1.34,1.34,0,0,1,.322-1.617,1.845,1.845,0,0,1,1.97-.354c1.269.4,5.326,5.835,5.4,7.181A1.657,1.657,0,0,1-466.233,4803.367Zm69.3-28.848c-.1,1.493-1.249,2.569-3.171,2.719-1.761.138-3.537.09-5.307.1a3.008,3.008,0,0,0-3.072,1.918c-2.995,7.088-8.736,9.461-15.969,9.251-.826-.024-1.652,0-2.478,0v-.02c-1.652,0-3.306.055-4.956-.01a14.279,14.279,0,0,1-12.613-7.8c-1.762-3.155-4.1-4.144-7.528-3.225a3.182,3.182,0,0,0-2.128,2.161c-2.766,6.524-8.068,8.873-14.745,8.878-2.947,0-3.819-.883-4.006-3.678-.1-1.438.43-2.286,1.919-2.365,1.3-.069,2.6-.035,3.89-.139a7.924,7.924,0,0,0,5.619-2.635c.876-1.009,1.046-1.913-.51-2.356-1.508-.431-2.553-1.194-2.566-2.914-.013-1.68,1.017-2.455,2.406-3.124,1.582-.762,1.646-1.386.513-2.573a6.761,6.761,0,0,0-4.729-2.115c-1.532-.07-3.067-.106-4.6-.1a2.76,2.76,0,0,1-2.983-2.4c-.739-2.839-.255-3.66,2.76-3.666,2.928,0,5.9-.426,8.757.706a13.625,13.625,0,0,1,7.9,7.219c1.06,2.456,2.743,2.839,5.044,2.854,2.2.015,3.684-.468,4.754-2.7,2.644-5.521,7.2-8.211,13.374-8.119,3.186.049,6.373.02,9.559.011a13.379,13.379,0,0,1,12.566,7.705c1.249,2.4,2.716,3.268,5.234,3.093a16.972,16.972,0,0,1,4.228.21A3.145,3.145,0,0,1-396.938,4774.519Z" transform="translate(583.852 -4617.98)" fill="#004d68"/>
    <path id="Trazado_140120" data-name="Trazado 140120" d="M-478.066,5037.312c1.768,0,3.535-.017,5.3,0a7.372,7.372,0,0,1,4.31,1.372c2.107,1.512,2.1,2.351-.13,3.568-1.219.665-2.223,1.485-2.2,2.932.02,1.632,1.1,2.39,2.607,2.9,1.7.577,1.788,1.2.661,2.455a7.615,7.615,0,0,1-5.658,2.521q-5.121.14-10.248,0a7.542,7.542,0,0,1-5.879-2.8c-.732-.9-.849-1.7.5-2.135a6.917,6.917,0,0,0,1.651-.588,2.726,2.726,0,0,0,.107-4.7,10.78,10.78,0,0,0-1.9-.924c-1.07-.5-.958-1.266-.352-2a6.821,6.821,0,0,1,5.223-2.577c2-.056,4-.012,6.008-.012Z" transform="translate(523.15 -4888.739)" fill="#004f6a"/>
    <path id="Trazado_140121" data-name="Trazado 140121" d="M-161.965,5037.342c1.886,0,3.773-.028,5.659.008a6.926,6.926,0,0,1,4.257,1.518c1.829,1.446,1.759,2.125-.327,3.405-2.725,1.673-2.654,4.02.172,5.647,2.021,1.163,2.092,2,.224,3.458a7.581,7.581,0,0,1-4.568,1.706c-3.536.064-7.075.087-10.609.005a8.118,8.118,0,0,1-5.683-2.529c-1.23-1.241-1.134-1.9.529-2.454,1.456-.482,2.667-1.052,2.765-2.756.107-1.87-1.138-2.623-2.672-3.263-1.666-.7-1.692-1.164-.431-2.467a7.067,7.067,0,0,1,5.028-2.268C-165.739,5037.305-163.851,5037.343-161.965,5037.342Z" transform="translate(319.001 -4888.754)" fill="#004f6a"/>
    <g id="Grupo_63034" data-name="Grupo 63034" transform="translate(8.306 23.39)">
      <g id="Grupo_63033" data-name="Grupo 63033" transform="translate(0 0)">
        <path id="Trazado_140170" data-name="Trazado 140170" d="M-539.432,4691.085h-10.72l-.938,7.252a12.373,12.373,0,0,1,1.238-.041,12.874,12.874,0,0,1,7.618,3.05c2.263,2.165,3.508,5.236,3.508,9.309,0,7.856-5.224,14.289-14.084,14.289a17.626,17.626,0,0,1-7.6-1.622l1.241-6.448a13.6,13.6,0,0,0,5.784,1.387c4.022,0,6.621-2.553,6.621-6.854,0-5.449-4.091-7.261-8.759-7.261a20.315,20.315,0,0,0-2.919.151l2.261-20.3h16.749Z" transform="translate(560.41 -4683.997)" fill="#fff"/>
      </g>
    </g>
    <g id="Grupo_63036" data-name="Grupo 63036" transform="translate(34.822 22.577)">
      <g id="Grupo_63035" data-name="Grupo 63035">
        <path id="Trazado_140171" data-name="Trazado 140171" d="M-485.568,4696.387V4682.18h2.279l1.964,5.573c.386,1.094,1.008,2.912,1.367,4.142h.038c-.088-1.485-.252-3.965-.252-6.576v-3.139h2.181v14.207h-2.279l-1.936-5.4a43.012,43.012,0,0,1-1.3-4.267h-.038c.073,1.429.163,3.619.163,6.478v3.193Z" transform="translate(485.568 -4682.011)" fill="#fff"/>
        <path id="Trazado_140172" data-name="Trazado 140172" d="M-451.586,4688.727c0,5.357-1.711,7.521-4.131,7.521-2.888,0-4.031-3.405-4.031-7.3,0-3.881,1.386-7.239,4.214-7.239C-452.456,4681.7-451.586,4685.472-451.586,4688.727Zm-5.576.25c0,3.222.537,4.87,1.544,4.87,1.052,0,1.447-2.113,1.447-4.987,0-2.507-.343-4.754-1.466-4.754C-456.625,4684.1-457.162,4685.928-457.162,4688.977Z" transform="translate(468.896 -4681.704)" fill="#fff"/>
        <path id="Trazado_140173" data-name="Trazado 140173" d="M-423.47,4693.142l-.56,3.245h-2.409l2.773-14.207h2.973l2.482,14.207h-2.417l-.545-3.245Zm2.078-2.143-.426-2.974c-.123-.863-.293-2.291-.419-3.229h-.046c-.137.943-.326,2.413-.46,3.233l-.467,2.97Z" transform="translate(447.388 -4682.011)" fill="#fff"/>
        <path id="Trazado_140174" data-name="Trazado 140174" d="M-399.27,4682.18h2.488v11.864h3.266v2.342h-5.754Z" transform="translate(429.845 -4682.011)" fill="#fff"/>
        <path id="Trazado_140175" data-name="Trazado 140175" d="M-371.264,4684.738h-2.253v-2.558h7.008v2.558h-2.268v11.648h-2.487Z" transform="translate(413.217 -4682.011)" fill="#fff"/>
        <path id="Trazado_140176" data-name="Trazado 140176" d="M-350.024,4682.275a12.793,12.793,0,0,1,2.71-.274,4.589,4.589,0,0,1,3.4,1.058,3.887,3.887,0,0,1,1.013,2.955,3.834,3.834,0,0,1-1.968,3.548v.042c.865.391,1.306,1.282,1.549,2.816a25.077,25.077,0,0,0,.816,3.852h-2.592a20.3,20.3,0,0,1-.641-3.4c-.217-1.767-.622-2.266-1.447-2.266h-.372v5.666h-2.473Zm2.473,6.2h.451c1.079,0,1.693-.977,1.693-2.211,0-1.216-.432-2.071-1.541-2.1a1.658,1.658,0,0,0-.6.084Z" transform="translate(398.047 -4681.895)" fill="#fff"/>
        <path id="Trazado_140177" data-name="Trazado 140177" d="M-324.5,4693.142l-.56,3.245h-2.409l2.773-14.207h2.973l2.482,14.207h-2.417l-.545-3.245Zm2.078-2.143-.426-2.974c-.123-.863-.293-2.291-.419-3.229h-.046c-.137.943-.326,2.413-.46,3.233l-.467,2.97Z" transform="translate(383.483 -4682.011)" fill="#fff"/>
        <path id="Trazado_140178" data-name="Trazado 140178" d="M-300.3,4682.275a12.379,12.379,0,0,1,2.826-.274,4.473,4.473,0,0,1,3.229,1,3.478,3.478,0,0,1,.967,2.588,3.342,3.342,0,0,1-1.848,3.1v.075a3.361,3.361,0,0,1,2.26,3.391,4.152,4.152,0,0,1-.935,2.792c-.76.922-2.057,1.434-4.194,1.434a14.3,14.3,0,0,1-2.305-.16Zm2.473,5.628h.534c.9,0,1.579-.839,1.579-1.993,0-1.043-.442-1.85-1.455-1.85a1.914,1.914,0,0,0-.658.088Zm0,6.3a2.217,2.217,0,0,0,.553.051c1.012,0,1.838-.694,1.838-2.133a1.923,1.923,0,0,0-1.855-2.171h-.536Z" transform="translate(365.94 -4681.895)" fill="#fff"/>
        <path id="Trazado_140179" data-name="Trazado 140179" d="M-274.132,4693.142l-.56,3.245H-277.1l2.773-14.207h2.973l2.482,14.207h-2.417l-.545-3.245Zm2.078-2.143-.426-2.974c-.123-.863-.293-2.291-.419-3.229h-.046c-.136.943-.326,2.413-.46,3.233l-.467,2.97Z" transform="translate(350.961 -4682.011)" fill="#fff"/>
        <path id="Trazado_140180" data-name="Trazado 140180" d="M-249.069,4682.18h2.488v9.675c0,4.094-1.778,4.7-3.585,4.7a3.456,3.456,0,0,1-1.251-.2l.21-2.326a2.532,2.532,0,0,0,.8.114c.723,0,1.333-.333,1.333-2.159Z" transform="translate(334.376 -4682.011)" fill="#fff"/>
        <path id="Trazado_140181" data-name="Trazado 140181" d="M-225.628,4688.727c0,5.357-1.711,7.521-4.131,7.521-2.888,0-4.031-3.405-4.031-7.3,0-3.881,1.386-7.239,4.214-7.239C-226.5,4681.7-225.628,4685.472-225.628,4688.727Zm-5.577.25c0,3.222.537,4.87,1.544,4.87,1.052,0,1.447-2.113,1.447-4.987,0-2.507-.343-4.754-1.466-4.754C-230.667,4684.1-231.2,4685.928-231.2,4688.977Z" transform="translate(322.995 -4681.704)" fill="#fff"/>
        <path id="Trazado_140182" data-name="Trazado 140182" d="M-195.313,4682.18v14.207H-197.8V4682.18Z" transform="translate(299.757 -4682.011)" fill="#fff"/>
        <path id="Trazado_140183" data-name="Trazado 140183" d="M-184.541,4696.387V4682.18h2.278l1.964,5.573c.386,1.094,1.008,2.912,1.367,4.142h.038c-.087-1.485-.252-3.965-.252-6.576v-3.139h2.181v14.207h-2.279l-1.936-5.4a42.983,42.983,0,0,1-1.3-4.267h-.038c.073,1.429.163,3.619.163,6.478v3.193Z" transform="translate(291.195 -4682.011)" fill="#fff"/>
        <path id="Trazado_140184" data-name="Trazado 140184" d="M-156.951,4682.18h5.553v2.4h-3.066v3.653h2.879v2.3h-2.879v5.861h-2.488Z" transform="translate(273.38 -4682.011)" fill="#fff"/>
        <path id="Trazado_140185" data-name="Trazado 140185" d="M-137.574,4693.142l-.56,3.245h-2.409l2.773-14.207h2.973l2.482,14.207h-2.417l-.545-3.245ZM-135.5,4691l-.426-2.974c-.123-.863-.293-2.291-.419-3.229h-.046c-.137.943-.326,2.413-.46,3.233l-.467,2.97Z" transform="translate(262.785 -4682.011)" fill="#fff"/>
        <path id="Trazado_140186" data-name="Trazado 140186" d="M-113.374,4696.387V4682.18h2.279l1.964,5.573c.386,1.094,1.008,2.912,1.366,4.142h.038c-.088-1.485-.252-3.965-.252-6.576v-3.139h2.181v14.207h-2.278l-1.936-5.4a42.978,42.978,0,0,1-1.3-4.267h-.038c.073,1.429.162,3.619.162,6.478v3.193Z" transform="translate(245.242 -4682.011)" fill="#fff"/>
        <path id="Trazado_140187" data-name="Trazado 140187" d="M-86.01,4684.738h-2.253v-2.558h7.008v2.558h-2.268v11.648H-86.01Z" transform="translate(229.028 -4682.011)" fill="#fff"/>
        <path id="Trazado_140188" data-name="Trazado 140188" d="M-62.283,4682.18v14.207h-2.488V4682.18Z" transform="translate(213.859 -4682.011)" fill="#fff"/>
        <path id="Trazado_140189" data-name="Trazado 140189" d="M-51.511,4682.18h2.488v11.864h3.266v2.342h-5.754Z" transform="translate(205.297 -4682.011)" fill="#fff"/>
        <path id="Trazado_140190" data-name="Trazado 140190" d="M-33.753,4719.109a36.644,36.644,0,0,0,1.269-5.616l2.522-.211a31.018,31.018,0,0,1-2.206,5.637Z" transform="translate(193.831 -4702.094)" fill="#fff"/>
        <path id="Trazado_140191" data-name="Trazado 140191" d="M-485.568,4755.881v-14.207h2.279l1.964,5.573c.386,1.093,1.008,2.912,1.367,4.142h.038c-.088-1.485-.252-3.966-.252-6.575v-3.14h2.181v14.207h-2.279l-1.936-5.4a43.07,43.07,0,0,1-1.3-4.268h-.038c.073,1.428.163,3.619.163,6.479v3.192Z" transform="translate(485.568 -4720.427)" fill="#fff"/>
        <path id="Trazado_140192" data-name="Trazado 140192" d="M-451.586,4748.22c0,5.358-1.711,7.522-4.131,7.522-2.888,0-4.031-3.407-4.031-7.306,0-3.882,1.386-7.239,4.214-7.239C-452.456,4741.2-451.586,4744.965-451.586,4748.22Zm-5.576.249c0,3.222.537,4.871,1.544,4.871,1.052,0,1.447-2.114,1.447-4.987,0-2.508-.343-4.754-1.466-4.754C-456.625,4743.6-457.162,4745.421-457.162,4748.469Z" transform="translate(468.896 -4720.119)" fill="#fff"/>
        <path id="Trazado_140193" data-name="Trazado 140193" d="M-423.47,4752.637l-.56,3.244h-2.409l2.773-14.207h2.973l2.482,14.207h-2.417l-.545-3.244Zm2.078-2.143-.426-2.974c-.123-.865-.293-2.292-.419-3.229h-.046c-.137.943-.326,2.413-.46,3.233l-.467,2.97Z" transform="translate(447.388 -4720.427)" fill="#fff"/>
        <path id="Trazado_140194" data-name="Trazado 140194" d="M-399.27,4741.674h2.488v11.865h3.266v2.342h-5.754Z" transform="translate(429.845 -4720.427)" fill="#fff"/>
        <path id="Trazado_140195" data-name="Trazado 140195" d="M-371.264,4744.233h-2.253v-2.559h7.008v2.559h-2.268v11.648h-2.487Z" transform="translate(413.217 -4720.427)" fill="#fff"/>
        <path id="Trazado_140196" data-name="Trazado 140196" d="M-350.024,4741.77a12.792,12.792,0,0,1,2.71-.275,4.593,4.593,0,0,1,3.4,1.058,3.887,3.887,0,0,1,1.013,2.954,3.834,3.834,0,0,1-1.968,3.549v.042c.865.39,1.306,1.282,1.549,2.815a25.091,25.091,0,0,0,.816,3.852h-2.592a20.3,20.3,0,0,1-.641-3.4c-.217-1.767-.622-2.266-1.447-2.266h-.372v5.666h-2.473Zm2.473,6.2h.451c1.079,0,1.693-.977,1.693-2.211,0-1.215-.432-2.07-1.541-2.1a1.656,1.656,0,0,0-.6.085Z" transform="translate(398.047 -4720.311)" fill="#fff"/>
        <path id="Trazado_140197" data-name="Trazado 140197" d="M-324.5,4752.637l-.56,3.244h-2.409l2.773-14.207h2.973l2.482,14.207h-2.417l-.545-3.244Zm2.078-2.143-.426-2.974c-.123-.865-.293-2.292-.419-3.229h-.046c-.137.943-.326,2.413-.46,3.233l-.467,2.97Z" transform="translate(383.483 -4720.427)" fill="#fff"/>
        <path id="Trazado_140198" data-name="Trazado 140198" d="M-300.3,4741.77a12.349,12.349,0,0,1,2.826-.275,4.475,4.475,0,0,1,3.229,1,3.478,3.478,0,0,1,.967,2.588,3.341,3.341,0,0,1-1.848,3.1v.076a3.362,3.362,0,0,1,2.26,3.392,4.151,4.151,0,0,1-.935,2.792c-.76.923-2.057,1.433-4.194,1.433a14.373,14.373,0,0,1-2.305-.159Zm2.473,5.627h.534c.9,0,1.579-.838,1.579-1.993,0-1.043-.442-1.848-1.455-1.848a1.879,1.879,0,0,0-.658.088Zm0,6.3a2.244,2.244,0,0,0,.553.05c1.012,0,1.838-.693,1.838-2.132a1.924,1.924,0,0,0-1.855-2.171h-.536Z" transform="translate(365.94 -4720.311)" fill="#fff"/>
        <path id="Trazado_140199" data-name="Trazado 140199" d="M-274.132,4752.637l-.56,3.244H-277.1l2.773-14.207h2.973l2.482,14.207h-2.417l-.545-3.244Zm2.078-2.143-.426-2.974c-.123-.865-.293-2.292-.419-3.229h-.046c-.136.943-.326,2.413-.46,3.233l-.467,2.97Z" transform="translate(350.961 -4720.427)" fill="#fff"/>
        <path id="Trazado_140200" data-name="Trazado 140200" d="M-249.069,4741.674h2.488v9.674c0,4.094-1.778,4.7-3.585,4.7a3.444,3.444,0,0,1-1.251-.205l.21-2.326a2.533,2.533,0,0,0,.8.113c.723,0,1.333-.332,1.333-2.158Z" transform="translate(334.376 -4720.427)" fill="#fff"/>
        <path id="Trazado_140201" data-name="Trazado 140201" d="M-225.628,4748.22c0,5.358-1.711,7.522-4.131,7.522-2.888,0-4.031-3.407-4.031-7.306,0-3.882,1.386-7.239,4.214-7.239C-226.5,4741.2-225.628,4744.965-225.628,4748.22Zm-5.577.249c0,3.222.537,4.871,1.544,4.871,1.052,0,1.447-2.114,1.447-4.987,0-2.508-.343-4.754-1.466-4.754C-230.667,4743.6-231.2,4745.421-231.2,4748.469Z" transform="translate(322.995 -4720.119)" fill="#fff"/>
        <path id="Trazado_140202" data-name="Trazado 140202" d="M-197.8,4741.674h5.553v2.4h-3.065v3.652h2.879v2.3h-2.879v5.86H-197.8Z" transform="translate(299.757 -4720.427)" fill="#fff"/>
        <path id="Trazado_140203" data-name="Trazado 140203" d="M-170.448,4748.22c0,5.358-1.711,7.522-4.131,7.522-2.888,0-4.031-3.407-4.031-7.306,0-3.882,1.386-7.239,4.213-7.239C-171.318,4741.2-170.448,4744.965-170.448,4748.22Zm-5.576.249c0,3.222.537,4.871,1.544,4.871,1.052,0,1.447-2.114,1.447-4.987,0-2.508-.343-4.754-1.466-4.754C-175.487,4743.6-176.025,4745.421-176.025,4748.469Z" transform="translate(287.365 -4720.119)" fill="#fff"/>
        <path id="Trazado_140204" data-name="Trazado 140204" d="M-151.123,4741.77a12.8,12.8,0,0,1,2.71-.275,4.594,4.594,0,0,1,3.4,1.058,3.887,3.887,0,0,1,1.013,2.954,3.834,3.834,0,0,1-1.968,3.549v.042c.866.39,1.306,1.282,1.55,2.815a25.091,25.091,0,0,0,.816,3.852h-2.592a20.308,20.308,0,0,1-.641-3.4c-.218-1.767-.622-2.266-1.447-2.266h-.372v5.666h-2.473Zm2.473,6.2h.451c1.079,0,1.693-.977,1.693-2.211,0-1.215-.432-2.07-1.541-2.1a1.656,1.656,0,0,0-.6.085Z" transform="translate(269.617 -4720.311)" fill="#fff"/>
        <path id="Trazado_140205" data-name="Trazado 140205" d="M-128.519,4754.265l4.046-10.123v-.059h-3.672v-2.409h6.467v2.041l-3.867,9.694v.063h3.848v2.408h-6.823Z" transform="translate(255.021 -4720.427)" fill="#fff"/>
        <path id="Trazado_140206" data-name="Trazado 140206" d="M-99.174,4748.22c0,5.358-1.711,7.522-4.131,7.522-2.888,0-4.031-3.407-4.031-7.306,0-3.882,1.386-7.239,4.213-7.239C-100.044,4741.2-99.174,4744.965-99.174,4748.22Zm-5.576.249c0,3.222.537,4.871,1.544,4.871,1.052,0,1.447-2.114,1.447-4.987,0-2.508-.343-4.754-1.466-4.754C-104.213,4743.6-104.751,4745.421-104.751,4748.469Z" transform="translate(241.343 -4720.119)" fill="#fff"/>
        <path id="Trazado_140207" data-name="Trazado 140207" d="M-81.316,4752.818a4.355,4.355,0,0,0,2.1.557,1.552,1.552,0,0,0,1.756-1.612c0-1.015-.579-1.536-1.66-2.3a4.874,4.874,0,0,1-2.406-3.97,3.856,3.856,0,0,1,4.035-4.172,3.98,3.98,0,0,1,2.006.51l-.4,2.376a2.813,2.813,0,0,0-1.623-.484,1.443,1.443,0,0,0-1.575,1.467c0,.852.385,1.3,1.757,2.221a4.691,4.691,0,0,1,2.309,4.06,4.035,4.035,0,0,1-4.213,4.31,5.064,5.064,0,0,1-2.448-.57Z" transform="translate(224.774 -4720.195)" fill="#fff"/>
        <path id="Trazado_140208" data-name="Trazado 140208" d="M-52.389,4748.22c0,5.358-1.711,7.522-4.131,7.522-2.888,0-4.031-3.407-4.031-7.306,0-3.882,1.386-7.239,4.213-7.239C-53.259,4741.2-52.389,4744.965-52.389,4748.22Zm-5.576.249c0,3.222.537,4.871,1.544,4.871,1.052,0,1.447-2.114,1.447-4.987,0-2.508-.343-4.754-1.466-4.754C-57.428,4743.6-57.966,4745.421-57.966,4748.469Z" transform="translate(211.134 -4720.119)" fill="#fff"/>
      </g>
    </g>
  </g>
</svg>
