<svg xmlns="http://www.w3.org/2000/svg" width="202.165" height="202.174" viewBox="0 0 202.165 202.174">
  <g id="Grupo_63082" data-name="Grupo 63082" transform="translate(0)">
    <rect id="Rectángulo_18998" data-name="Rectángulo 18998" width="195" height="93" transform="translate(0 88.994)" fill="#fff"/>
    <g id="Grupo_63073" data-name="Grupo 63073" transform="translate(0)">
      <path id="Trazado_140119" data-name="Trazado 140119" d="M-218.53,4352.76c-12.748-.605-22.256-9.276-22.3-22.3-.043-12.554,9.118-21.961,21.965-22.15a21.646,21.646,0,0,1,22.323,22.173C-196.6,4343.134-205.759,4351.985-218.53,4352.76Z" transform="translate(362.361 -4196.84)" fill="#66363a"/>
      <path id="Trazado_140124" data-name="Trazado 140124" d="M-387.3,3993.7q-95.46,0-190.922,0c-5.613,0-5.618.01-5.619,5.711q0,47.464,0,94.929,0,47.82,0,95.638c0,5.887.005,5.893,5.782,5.893q95.284,0,190.567,0c5.806,0,5.812-.006,5.813-5.887q0-95.283,0-190.567C-381.682,3993.706-381.686,3993.7-387.3,3993.7Zm-45.075,171.024a38.07,38.07,0,0,1-43.79-24.635c-.241-.666-.5-1.329-.686-2.01a3.173,3.173,0,0,0-3.358-2.553c-7.79-.006-15.58-.061-23.37.017-2.411.024-2.846.57-2.935,3-.095,2.594-.06,5.193-.062,7.789a2.112,2.112,0,0,1-2.353,2.426c-.59,0-1.18.032-1.77.033-3.848,0-3.961-.118-4.162-3.89-.073-1.366.342-3.165-1.421-3.623a9.11,9.11,0,0,0-6.231.245c-.65.3-.769,1.156-.814,1.874-.066,1.06-.084,2.123-.14,3.183a2.069,2.069,0,0,1-2.267,2.167c-.708.02-1.417.058-2.123.037-2.794-.086-3.247-.335-3.169-3,.138-4.741-.5-4.922-5.5-4.755-2.36.078-2.813.594-3.08,2.961-.079.7-.018,1.418-.093,2.121-.231,2.183-.6,2.506-2.9,2.672-4.395.316-4.905-.152-4.946-4.544-.019-2.006-.019-4.013-.061-6.019a2.451,2.451,0,0,0-2.637-2.672c-.825-.034-1.654-.032-2.476-.1a7.921,7.921,0,0,1-7.422-7.99,7.95,7.95,0,0,1,6.879-8.148,27.04,27.04,0,0,1,3.886-.152q16.466-.015,32.932-.006h32.223c.944,0,1.889.017,2.833-.008,3.455-.091,3.751-.241,4.828-3.48a37.44,37.44,0,0,1,7.169-12.924c7.056-8.122,15.868-12.769,26.747-13.382a37.441,37.441,0,0,1,25.284,7.336,37.642,37.642,0,0,1,14.651,23.084A38.066,38.066,0,0,1-432.38,4164.721Z" transform="translate(583.846 -3993.696)" fill="#66363b"/>
      <g id="Grupo_63030" data-name="Grupo 63030" transform="translate(15.114 20.747)">
        <g id="Grupo_63029" data-name="Grupo 63029" transform="translate(0)">
          <path id="Trazado_140127" data-name="Trazado 140127" d="M-532.836,4059.93h-.125l-6.855,3.519-1.371-6.386,9.268-4.808h7.144V4092.7h-8.061Z" transform="translate(541.187 -4052.255)" fill="#fff"/>
        </g>
      </g>
      <g id="Grupo_63032" data-name="Grupo 63032" transform="translate(40.007 19.935)">
        <g id="Grupo_63031" data-name="Grupo 63031" transform="translate(0)">
          <path id="Trazado_140128" data-name="Trazado 140128" d="M-461.847,4056.986c0,5.357-1.9,7.521-4.6,7.521-3.214,0-4.485-3.406-4.485-7.305,0-3.881,1.543-7.239,4.689-7.239C-462.815,4049.962-461.847,4053.731-461.847,4056.986Zm-6.205.249c0,3.222.6,4.871,1.719,4.871,1.17,0,1.61-2.114,1.61-4.987,0-2.507-.382-4.754-1.631-4.754C-467.454,4052.364-468.052,4054.187-468.052,4057.234Z" transform="translate(470.929 -4049.962)" fill="#fff"/>
          <path id="Trazado_140129" data-name="Trazado 140129" d="M-440.344,4050.534a14.435,14.435,0,0,1,2.888-.273,5.439,5.439,0,0,1,3.862,1.094,4.109,4.109,0,0,1,1.215,3.112,4.771,4.771,0,0,1-1.2,3.419,4.92,4.92,0,0,1-3.454,1.362c-.188,0-.37,0-.556-.008v5.291h-2.751Zm2.751,6.459a2.665,2.665,0,0,0,.46.03c1.391,0,2.009-.992,2.009-2.319,0-1.236-.5-2.217-1.785-2.217a2.1,2.1,0,0,0-.684.1Z" transform="translate(451.18 -4050.155)" fill="#fff"/>
          <path id="Trazado_140130" data-name="Trazado 140130" d="M-406.043,4056.986c0,5.357-1.9,7.521-4.6,7.521-3.213,0-4.485-3.406-4.485-7.305,0-3.881,1.543-7.239,4.688-7.239C-407.011,4049.962-406.043,4053.731-406.043,4056.986Zm-6.205.249c0,3.222.6,4.871,1.718,4.871,1.171,0,1.61-2.114,1.61-4.987,0-2.507-.382-4.754-1.631-4.754C-411.65,4052.364-412.248,4054.187-412.248,4057.234Z" transform="translate(434.896 -4049.962)" fill="#fff"/>
          <path id="Trazado_140131" data-name="Trazado 140131" d="M-384.54,4050.534a15.829,15.829,0,0,1,3.015-.273,5.5,5.5,0,0,1,3.789,1.057,3.658,3.658,0,0,1,1.127,2.956,3.771,3.771,0,0,1-2.19,3.548v.042c.963.39,1.453,1.283,1.724,2.816a22.907,22.907,0,0,0,.909,3.852h-2.885a18.531,18.531,0,0,1-.714-3.4c-.242-1.767-.693-2.265-1.609-2.265h-.414v5.666h-2.752Zm2.752,6.2h.5a1.96,1.96,0,0,0,1.884-2.21c0-1.216-.481-2.072-1.715-2.1a2.047,2.047,0,0,0-.67.084Z" transform="translate(415.148 -4050.155)" fill="#fff"/>
          <path id="Trazado_140132" data-name="Trazado 140132" d="M-357.009,4053h-2.506v-2.559h7.8V4053h-2.523v11.648h-2.768Z" transform="translate(398.989 -4050.27)" fill="#fff"/>
          <path id="Trazado_140133" data-name="Trazado 140133" d="M-330.842,4050.438v9.23c0,2.086.613,2.727,1.35,2.727.789,0,1.363-.573,1.363-2.727v-9.23h2.768v8.743c0,3.66-1.386,5.633-4.124,5.633-2.969,0-4.126-2.055-4.126-5.6v-8.772Z" transform="translate(382.262 -4050.27)" fill="#fff"/>
          <path id="Trazado_140134" data-name="Trazado 140134" d="M-303.628,4064.646v-14.207h2.535l2.185,5.574c.43,1.093,1.122,2.912,1.521,4.141h.042c-.1-1.484-.28-3.965-.28-6.574v-3.14h2.427v14.207h-2.535l-2.154-5.4a39.84,39.84,0,0,1-1.452-4.267h-.042c.081,1.428.181,3.619.181,6.478v3.194Z" transform="translate(362.903 -4050.27)" fill="#fff"/>
          <path id="Trazado_140135" data-name="Trazado 140135" d="M-270.162,4050.438v14.207h-2.768v-14.207Z" transform="translate(343.081 -4050.27)" fill="#fff"/>
          <path id="Trazado_140136" data-name="Trazado 140136" d="M-258.176,4050.534a13.141,13.141,0,0,1,2.806-.273,5.494,5.494,0,0,1,3.948,1.264c1.216,1.1,1.844,2.976,1.844,5.726,0,2.879-.739,4.914-1.971,6.02a6.024,6.024,0,0,1-4.344,1.374,18.022,18.022,0,0,1-2.282-.16Zm2.751,11.8a1.952,1.952,0,0,0,.5.042c1.334,0,2.49-1.3,2.49-5.219,0-2.921-.759-4.691-2.434-4.691a1.711,1.711,0,0,0-.553.067Z" transform="translate(333.554 -4050.155)" fill="#fff"/>
          <path id="Trazado_140137" data-name="Trazado 140137" d="M-229.6,4061.4l-.623,3.245H-232.9l3.086-14.207h3.308l2.762,14.207h-2.689l-.607-3.245Zm2.312-2.143-.474-2.974c-.136-.864-.326-2.291-.466-3.23h-.051c-.152.943-.363,2.413-.512,3.234l-.519,2.97Z" transform="translate(317.233 -4050.27)" fill="#fff"/>
          <path id="Trazado_140138" data-name="Trazado 140138" d="M-202.668,4050.534a13.14,13.14,0,0,1,2.805-.273,5.494,5.494,0,0,1,3.949,1.264c1.216,1.1,1.844,2.976,1.844,5.726,0,2.879-.739,4.914-1.971,6.02a6.025,6.025,0,0,1-4.345,1.374,18.021,18.021,0,0,1-2.282-.16Zm2.751,11.8a1.951,1.951,0,0,0,.5.042c1.334,0,2.49-1.3,2.49-5.219,0-2.921-.758-4.691-2.433-4.691a1.71,1.71,0,0,0-.553.067Z" transform="translate(297.713 -4050.155)" fill="#fff"/>
          <path id="Trazado_140139" data-name="Trazado 140139" d="M-167.452,4058.4h-3.237v3.85h3.652v2.4h-6.42v-14.207h6.179v2.4h-3.411v3.266h3.237Z" transform="translate(278.851 -4050.27)" fill="#fff"/>
          <path id="Trazado_140140" data-name="Trazado 140140" d="M-151.65,4061.584a5.277,5.277,0,0,0,2.337.556c1.3,0,1.953-.677,1.953-1.612,0-1.014-.643-1.535-1.847-2.3-1.941-1.192-2.677-2.68-2.677-3.971,0-2.281,1.513-4.171,4.49-4.171a4.812,4.812,0,0,1,2.233.51l-.441,2.376a3.38,3.38,0,0,0-1.806-.486c-1.185,0-1.752.717-1.752,1.468,0,.852.429,1.3,1.955,2.221a4.6,4.6,0,0,1,2.569,4.06c0,2.611-1.918,4.31-4.688,4.31a6.149,6.149,0,0,1-2.724-.571Z" transform="translate(265.028 -4050.04)" fill="#fff"/>
          <path id="Trazado_140141" data-name="Trazado 140141" d="M-468.959,4110.028a14.425,14.425,0,0,1,2.888-.274,5.441,5.441,0,0,1,3.862,1.1A4.107,4.107,0,0,1-461,4113.96a4.772,4.772,0,0,1-1.2,3.419,4.919,4.919,0,0,1-3.454,1.363c-.187,0-.37,0-.556-.009v5.29h-2.752Zm2.752,6.459a2.564,2.564,0,0,0,.459.03c1.391,0,2.009-.992,2.009-2.319,0-1.236-.5-2.217-1.785-2.217a2.072,2.072,0,0,0-.683.1Z" transform="translate(469.657 -4088.57)" fill="#fff"/>
          <path id="Trazado_140142" data-name="Trazado 140142" d="M-443.95,4120.9l-.623,3.244h-2.681l3.086-14.206h3.308l2.762,14.206h-2.689l-.607-3.244Zm2.312-2.143-.474-2.974c-.136-.863-.326-2.291-.466-3.229h-.051c-.152.943-.363,2.412-.512,3.233l-.519,2.97Z" transform="translate(455.641 -4088.686)" fill="#fff"/>
          <path id="Trazado_140143" data-name="Trazado 140143" d="M-417.022,4110.028a15.868,15.868,0,0,1,3.015-.274,5.5,5.5,0,0,1,3.789,1.057,3.658,3.658,0,0,1,1.127,2.956,3.769,3.769,0,0,1-2.19,3.548v.043c.963.391,1.454,1.282,1.724,2.816a22.883,22.883,0,0,0,.908,3.851h-2.884a18.519,18.519,0,0,1-.714-3.4c-.242-1.768-.693-2.266-1.61-2.266h-.414v5.665h-2.752Zm2.752,6.2h.5a1.96,1.96,0,0,0,1.884-2.21c0-1.216-.481-2.071-1.715-2.1a2.038,2.038,0,0,0-.67.084Z" transform="translate(436.121 -4088.57)" fill="#fff"/>
          <path id="Trazado_140144" data-name="Trazado 140144" d="M-388.621,4120.9l-.623,3.244h-2.681l3.086-14.206h3.308l2.762,14.206h-2.69l-.606-3.244Zm2.312-2.143-.474-2.974c-.137-.863-.326-2.291-.466-3.229h-.051c-.152.943-.363,2.412-.512,3.233l-.519,2.97Z" transform="translate(419.915 -4088.686)" fill="#fff"/>
          <path id="Trazado_140145" data-name="Trazado 140145" d="M-352.234,4110.028a14.429,14.429,0,0,1,2.888-.274,5.44,5.44,0,0,1,3.862,1.1,4.107,4.107,0,0,1,1.215,3.111,4.773,4.773,0,0,1-1.2,3.419,4.92,4.92,0,0,1-3.455,1.363c-.187,0-.37,0-.556-.009v5.29h-2.752Zm2.752,6.459a2.564,2.564,0,0,0,.46.03c1.391,0,2.009-.992,2.009-2.319,0-1.236-.5-2.217-1.785-2.217a2.074,2.074,0,0,0-.683.1Z" transform="translate(394.288 -4088.57)" fill="#fff"/>
          <path id="Trazado_140146" data-name="Trazado 140146" d="M-325.046,4110.028a15.864,15.864,0,0,1,3.015-.274,5.5,5.5,0,0,1,3.789,1.057,3.66,3.66,0,0,1,1.127,2.956,3.769,3.769,0,0,1-2.19,3.548v.043c.963.391,1.453,1.282,1.724,2.816a22.876,22.876,0,0,0,.909,3.851h-2.885a18.492,18.492,0,0,1-.713-3.4c-.242-1.768-.693-2.266-1.61-2.266h-.414v5.665h-2.752Zm2.752,6.2h.5a1.96,1.96,0,0,0,1.884-2.21c0-1.216-.481-2.071-1.715-2.1a2.036,2.036,0,0,0-.67.084Z" transform="translate(376.732 -4088.57)" fill="#fff"/>
          <path id="Trazado_140147" data-name="Trazado 140147" d="M-289.972,4116.479c0,5.357-1.9,7.522-4.6,7.522-3.214,0-4.485-3.406-4.485-7.305,0-3.882,1.542-7.239,4.688-7.239C-290.94,4109.456-289.972,4113.224-289.972,4116.479Zm-6.206.25c0,3.223.6,4.871,1.719,4.871,1.171,0,1.61-2.113,1.61-4.987,0-2.508-.382-4.755-1.631-4.755C-295.579,4111.857-296.177,4113.68-296.177,4116.728Z" transform="translate(359.949 -4088.377)" fill="#fff"/>
          <path id="Trazado_140148" data-name="Trazado 140148" d="M-268.469,4110.028a13.17,13.17,0,0,1,2.806-.274,5.5,5.5,0,0,1,3.948,1.264c1.216,1.1,1.844,2.978,1.844,5.727,0,2.88-.739,4.914-1.971,6.02a6.026,6.026,0,0,1-4.344,1.374,17.829,17.829,0,0,1-2.282-.161Zm2.751,11.8a1.975,1.975,0,0,0,.5.042c1.334,0,2.49-1.3,2.49-5.219,0-2.92-.759-4.691-2.434-4.691a1.711,1.711,0,0,0-.553.068Z" transform="translate(340.2 -4088.57)" fill="#fff"/>
          <path id="Trazado_140149" data-name="Trazado 140149" d="M-236.725,4109.934v9.229c0,2.087.613,2.729,1.35,2.729.789,0,1.363-.574,1.363-2.729v-9.229h2.768v8.742c0,3.66-1.386,5.633-4.124,5.633-2.97,0-4.126-2.055-4.126-5.6v-8.771Z" transform="translate(321.491 -4088.686)" fill="#fff"/>
          <path id="Trazado_140150" data-name="Trazado 140150" d="M-203.984,4123.7a5.556,5.556,0,0,1-2.131.335c-3.63,0-5.365-2.985-5.365-7.017,0-5.354,2.972-7.444,5.725-7.444a4.062,4.062,0,0,1,1.931.371l-.461,2.331a2.753,2.753,0,0,0-1.285-.283c-1.575,0-2.984,1.36-2.984,4.875,0,3.391,1.293,4.716,2.968,4.716a4.829,4.829,0,0,0,1.331-.208Z" transform="translate(303.403 -4088.454)" fill="#fff"/>
          <path id="Trazado_140151" data-name="Trazado 140151" d="M-184.837,4112.492h-2.506v-2.558h7.8v2.558h-2.523v11.647h-2.768Z" transform="translate(287.817 -4088.686)" fill="#fff"/>
          <path id="Trazado_140152" data-name="Trazado 140152" d="M-154.863,4116.479c0,5.357-1.9,7.522-4.6,7.522-3.214,0-4.485-3.406-4.485-7.305,0-3.882,1.543-7.239,4.689-7.239C-155.831,4109.456-154.863,4113.224-154.863,4116.479Zm-6.205.25c0,3.223.6,4.871,1.718,4.871,1.171,0,1.61-2.113,1.61-4.987,0-2.508-.382-4.755-1.631-4.755C-160.47,4111.857-161.068,4113.68-161.068,4116.728Z" transform="translate(272.709 -4088.377)" fill="#fff"/>
          <path id="Trazado_140153" data-name="Trazado 140153" d="M-133.36,4110.028a15.867,15.867,0,0,1,3.015-.274,5.5,5.5,0,0,1,3.789,1.057,3.659,3.659,0,0,1,1.127,2.956,3.769,3.769,0,0,1-2.19,3.548v.043c.963.391,1.454,1.282,1.724,2.816a22.886,22.886,0,0,0,.908,3.851h-2.884a18.518,18.518,0,0,1-.714-3.4c-.242-1.768-.693-2.266-1.61-2.266h-.414v5.665h-2.751Zm2.751,6.2h.5a1.96,1.96,0,0,0,1.884-2.21c0-1.216-.481-2.071-1.716-2.1a2.038,2.038,0,0,0-.67.084Z" transform="translate(252.96 -4088.57)" fill="#fff"/>
          <path id="Trazado_140154" data-name="Trazado 140154" d="M-99.393,4117.894h-3.237v3.85h3.652v2.4h-6.42v-14.206h6.179v2.4h-3.411v3.267h3.237Z" transform="translate(234.905 -4088.686)" fill="#fff"/>
          <path id="Trazado_140155" data-name="Trazado 140155" d="M-83.591,4121.078a5.266,5.266,0,0,0,2.337.556c1.3,0,1.953-.677,1.953-1.611,0-1.016-.644-1.536-1.847-2.3-1.941-1.192-2.677-2.68-2.677-3.971,0-2.282,1.513-4.172,4.489-4.172a4.8,4.8,0,0,1,2.233.511l-.441,2.376a3.39,3.39,0,0,0-1.806-.485c-1.185,0-1.752.716-1.752,1.468,0,.852.429,1.3,1.955,2.221a4.6,4.6,0,0,1,2.569,4.061c0,2.61-1.918,4.31-4.688,4.31a6.142,6.142,0,0,1-2.724-.571Z" transform="translate(221.082 -4088.454)" fill="#fff"/>
          <path id="Trazado_140156" data-name="Trazado 140156" d="M-468.959,4169.522a13.1,13.1,0,0,1,2.805-.274,5.5,5.5,0,0,1,3.949,1.264c1.216,1.1,1.844,2.977,1.844,5.727,0,2.879-.739,4.913-1.971,6.02a6.022,6.022,0,0,1-4.345,1.374,17.84,17.84,0,0,1-2.282-.16Zm2.752,11.8a1.95,1.95,0,0,0,.5.042c1.334,0,2.49-1.3,2.49-5.219,0-2.92-.758-4.691-2.433-4.691a1.7,1.7,0,0,0-.553.068Z" transform="translate(469.657 -4126.985)" fill="#fff"/>
          <path id="Trazado_140157" data-name="Trazado 140157" d="M-433.743,4177.387h-3.237v3.85h3.652v2.4h-6.42v-14.207h6.179v2.4h-3.411v3.265h3.237Z" transform="translate(450.795 -4127.101)" fill="#fff"/>
          <path id="Trazado_140158" data-name="Trazado 140158" d="M-417.941,4180.571a5.274,5.274,0,0,0,2.337.557c1.3,0,1.953-.678,1.953-1.612,0-1.015-.643-1.535-1.847-2.3-1.941-1.192-2.677-2.681-2.677-3.971,0-2.282,1.513-4.172,4.49-4.172a4.808,4.808,0,0,1,2.233.511l-.442,2.375a3.385,3.385,0,0,0-1.806-.484c-1.185,0-1.752.715-1.752,1.467,0,.852.429,1.3,1.955,2.221a4.6,4.6,0,0,1,2.569,4.06c0,2.61-1.918,4.31-4.688,4.31a6.148,6.148,0,0,1-2.724-.571Z" transform="translate(436.972 -4126.87)" fill="#fff"/>
          <path id="Trazado_140159" data-name="Trazado 140159" d="M-392.867,4169.427h6.179v2.4H-390.1v3.652h3.2v2.3h-3.2v5.861h-2.768Z" transform="translate(420.524 -4127.101)" fill="#fff"/>
          <path id="Trazado_140160" data-name="Trazado 140160" d="M-371.307,4180.39l-.623,3.244h-2.681l3.086-14.207h3.308l2.762,14.207h-2.689l-.607-3.244Zm2.312-2.143-.474-2.975c-.136-.864-.326-2.291-.466-3.229h-.051c-.152.943-.363,2.413-.511,3.234l-.52,2.97Z" transform="translate(408.736 -4127.101)" fill="#fff"/>
          <path id="Trazado_140161" data-name="Trazado 140161" d="M-345.831,4183.634-349,4169.427h3.055l1.008,6.133c.246,1.528.536,3.264.727,4.929h.051c.182-1.686.417-3.387.668-4.986l.97-6.076h3.034l-3.247,14.207Z" transform="translate(392.201 -4127.101)" fill="#fff"/>
          <path id="Trazado_140162" data-name="Trazado 140162" d="M-311.743,4175.973c0,5.357-1.9,7.521-4.6,7.521-3.213,0-4.485-3.406-4.485-7.305,0-3.881,1.542-7.239,4.688-7.239C-312.711,4168.95-311.743,4172.718-311.743,4175.973Zm-6.206.25c0,3.222.6,4.871,1.719,4.871,1.171,0,1.61-2.114,1.61-4.988,0-2.506-.382-4.753-1.631-4.753C-317.35,4171.352-317.948,4173.174-317.948,4176.223Z" transform="translate(374.007 -4126.792)" fill="#fff"/>
          <path id="Trazado_140163" data-name="Trazado 140163" d="M-290.24,4169.522a15.825,15.825,0,0,1,3.015-.274,5.5,5.5,0,0,1,3.789,1.057,3.657,3.657,0,0,1,1.127,2.956,3.772,3.772,0,0,1-2.19,3.548v.042c.963.39,1.453,1.282,1.724,2.816a22.844,22.844,0,0,0,.908,3.851h-2.885a18.508,18.508,0,0,1-.713-3.4c-.242-1.767-.693-2.265-1.61-2.265h-.414v5.665h-2.752Zm2.752,6.2h.5a1.959,1.959,0,0,0,1.884-2.21c0-1.215-.481-2.071-1.715-2.1a2.036,2.036,0,0,0-.67.084Z" transform="translate(354.258 -4126.985)" fill="#fff"/>
          <path id="Trazado_140164" data-name="Trazado 140164" d="M-256.274,4177.387h-3.237v3.85h3.652v2.4h-6.42v-14.207h6.179v2.4h-3.411v3.265h3.237Z" transform="translate(336.204 -4127.101)" fill="#fff"/>
          <path id="Trazado_140165" data-name="Trazado 140165" d="M-233.312,4183.2a5.578,5.578,0,0,1-2.131.334c-3.63,0-5.365-2.984-5.365-7.017,0-5.355,2.972-7.444,5.726-7.444a4.058,4.058,0,0,1,1.931.371l-.461,2.329a2.767,2.767,0,0,0-1.285-.282c-1.576,0-2.984,1.36-2.984,4.874,0,3.391,1.293,4.717,2.968,4.717a4.848,4.848,0,0,0,1.331-.208Z" transform="translate(322.34 -4126.87)" fill="#fff"/>
          <path id="Trazado_140166" data-name="Trazado 140166" d="M-212.571,4169.427v14.207h-2.768v-14.207Z" transform="translate(305.894 -4127.101)" fill="#fff"/>
          <path id="Trazado_140167" data-name="Trazado 140167" d="M-200.585,4169.522a13.108,13.108,0,0,1,2.806-.274,5.5,5.5,0,0,1,3.948,1.264c1.216,1.1,1.844,2.977,1.844,5.727,0,2.879-.739,4.913-1.971,6.02a6.022,6.022,0,0,1-4.345,1.374,17.842,17.842,0,0,1-2.282-.16Zm2.751,11.8a1.954,1.954,0,0,0,.5.042c1.334,0,2.49-1.3,2.49-5.219,0-2.92-.758-4.691-2.433-4.691a1.7,1.7,0,0,0-.553.068Z" transform="translate(296.368 -4126.985)" fill="#fff"/>
          <path id="Trazado_140168" data-name="Trazado 140168" d="M-164.261,4175.973c0,5.357-1.9,7.521-4.6,7.521-3.213,0-4.485-3.406-4.485-7.305,0-3.881,1.543-7.239,4.689-7.239C-165.229,4168.95-164.261,4172.718-164.261,4175.973Zm-6.205.25c0,3.222.6,4.871,1.718,4.871,1.171,0,1.61-2.114,1.61-4.988,0-2.506-.382-4.753-1.631-4.753C-169.868,4171.352-170.466,4173.174-170.466,4176.223Z" transform="translate(278.777 -4126.792)" fill="#fff"/>
          <path id="Trazado_140169" data-name="Trazado 140169" d="M-144.391,4180.571a5.275,5.275,0,0,0,2.337.557c1.3,0,1.953-.678,1.953-1.612,0-1.015-.644-1.535-1.847-2.3-1.941-1.192-2.677-2.681-2.677-3.971,0-2.282,1.513-4.172,4.49-4.172a4.807,4.807,0,0,1,2.233.511l-.441,2.375a3.383,3.383,0,0,0-1.806-.484c-1.185,0-1.752.715-1.752,1.467,0,.852.429,1.3,1.955,2.221a4.6,4.6,0,0,1,2.569,4.06c0,2.61-1.918,4.31-4.688,4.31a6.15,6.15,0,0,1-2.724-.571Z" transform="translate(260.341 -4126.87)" fill="#fff"/>
        </g>
      </g>
    </g>
  </g>
</svg>
