<svg xmlns="http://www.w3.org/2000/svg" width="154.667" height="154.667" viewBox="0 0 154.667 154.667">
  <g id="Grupo_63831" data-name="Grupo 63831" transform="translate(-325 -2963.675)">
    <path id="Trazado_105094" data-name="Trazado 105094" d="M2682.54,6466.171q3.8,0,7.58.373t7.507,1.114q3.727.739,7.362,1.843t7.146,2.557q3.51,1.453,6.861,3.244t6.51,3.9q3.158,2.111,6.1,4.521t5.623,5.1q2.687,2.687,5.1,5.623t4.521,6.1q2.111,3.157,3.9,6.509t3.245,6.861q1.454,3.509,2.557,7.145t1.844,7.362q.741,3.727,1.114,7.506t.373,7.581q0,3.8-.373,7.58t-1.114,7.508q-.742,3.726-1.844,7.361t-2.557,7.146q-1.455,3.51-3.245,6.861t-3.9,6.51q-2.111,3.158-4.521,6.1t-5.1,5.623q-2.686,2.689-5.623,5.1t-6.1,4.521q-3.159,2.111-6.51,3.9t-6.861,3.244q-3.509,1.454-7.146,2.557t-7.362,1.844q-3.725.743-7.507,1.114t-7.58.373q-3.8,0-7.58-.373t-7.507-1.114q-3.725-.741-7.362-1.844t-7.146-2.557q-3.51-1.455-6.86-3.244t-6.51-3.9q-3.159-2.109-6.1-4.521t-5.624-5.1q-2.686-2.687-5.1-5.623t-4.521-6.1q-2.111-3.16-3.9-6.51t-3.244-6.861q-1.455-3.509-2.557-7.146t-1.844-7.361q-.741-3.727-1.113-7.508t-.372-7.58q0-3.8.372-7.581t1.113-7.506q.741-3.725,1.844-7.362t2.557-7.145q1.453-3.511,3.244-6.861t3.9-6.509q2.111-3.159,4.521-6.1t5.1-5.623q2.688-2.688,5.624-5.1t6.1-4.521q3.158-2.109,6.51-3.9t6.86-3.244q3.51-1.455,7.146-2.557t7.362-1.843q3.726-.743,7.507-1.114T2682.54,6466.171Z" transform="translate(-2280.207 -3502.496)" fill="#529ad9"/>
    <circle id="Elipse_1224" data-name="Elipse 1224" cx="72.641" cy="72.641" r="72.641" transform="translate(329.693 2968.368)" fill="#fff"/>
    <path id="shutterstock_1802230447" d="M66.08,0A66.08,66.08,0,1,1,0,66.08,66.08,66.08,0,0,1,66.08,0Z" transform="translate(336.254 2974.929)" fill="#dcebf8"/>
    <g id="Grupo_63488" data-name="Grupo 63488" transform="translate(318.784 2951.447)">
      <g id="Grupo_63487" data-name="Grupo 63487" transform="translate(47.15 51.005)">
        <g id="Grupo_63486" data-name="Grupo 63486">
          <g id="Grupo_63485" data-name="Grupo 63485">
            <g id="Grupo_63468" data-name="Grupo 63468" transform="translate(12.863 13.094)">
              <g id="Grupo_63467" data-name="Grupo 63467">
                <path id="Trazado_141612" data-name="Trazado 141612" d="M64.763,100.617a1.531,1.531,0,0,1-.832-.244A23.513,23.513,0,0,1,77.875,57.1a23.72,23.72,0,0,1,22.249,23.76A23.458,23.458,0,0,1,89.3,100.369a1.541,1.541,0,0,1-1.667-2.592,20.38,20.38,0,0,0,9.406-16.953A20.606,20.606,0,0,0,77.715,60.179,20.43,20.43,0,0,0,65.6,97.782a1.54,1.54,0,0,1-.834,2.836Z" transform="translate(-53.106 -57.068)" fill="#1f5e96"/>
              </g>
            </g>
            <g id="Grupo_63480" data-name="Grupo 63480">
              <g id="Grupo_63469" data-name="Grupo 63469" transform="translate(34.801)">
                <path id="Trazado_141613" data-name="Trazado 141613" d="M64.8,59.212a1.541,1.541,0,0,1-1.54-1.542V52.545a1.541,1.541,0,0,1,3.082,0V57.67A1.543,1.543,0,0,1,64.8,59.212Z" transform="translate(-63.263 -51.005)" fill="#1f5e96"/>
              </g>
              <g id="Grupo_63470" data-name="Grupo 63470" transform="translate(20.389 3.078)">
                <path id="Trazado_141614" data-name="Trazado 141614" d="M60.212,60.2a1.54,1.54,0,0,1-1.408-.916L56.724,54.6a1.541,1.541,0,0,1,2.816-1.251l2.08,4.685a1.542,1.542,0,0,1-.784,2.032A1.525,1.525,0,0,1,60.212,60.2Z" transform="translate(-56.59 -52.43)" fill="#1f5e96"/>
              </g>
              <g id="Grupo_63471" data-name="Grupo 63471" transform="translate(8.564 11.857)">
                <path id="Trazado_141615" data-name="Trazado 141615" d="M56.359,62.9a1.543,1.543,0,0,1-1.03-.393l-3.7-3.324a1.542,1.542,0,0,1,2.06-2.294l3.7,3.324a1.54,1.54,0,0,1-1.03,2.687Z" transform="translate(-51.115 -56.495)" fill="#1f5e96"/>
              </g>
              <g id="Grupo_63472" data-name="Grupo 63472" transform="translate(1.375 24.631)">
                <path id="Trazado_141616" data-name="Trazado 141616" d="M53.915,66.981a1.533,1.533,0,0,1-.477-.078l-4.585-1.488a1.541,1.541,0,1,1,.952-2.931l4.585,1.49a1.541,1.541,0,0,1-.475,3.007Z" transform="translate(-47.787 -62.409)" fill="#1f5e96"/>
              </g>
              <g id="Grupo_63473" data-name="Grupo 63473" transform="translate(0 38.663)">
                <path id="Trazado_141617" data-name="Trazado 141617" d="M48.69,72.466a1.541,1.541,0,0,1-.156-3.073l4.667-.475a1.521,1.521,0,0,1,1.689,1.376,1.54,1.54,0,0,1-1.376,1.689l-4.667.475A1.312,1.312,0,0,1,48.69,72.466Z" transform="translate(-47.15 -68.906)" fill="#1f5e96"/>
              </g>
              <g id="Grupo_63474" data-name="Grupo 63474" transform="translate(4.65 50.653)">
                <path id="Trazado_141618" data-name="Trazado 141618" d="M50.847,79.8a1.54,1.54,0,0,1-.773-2.875l3.914-2.259a1.541,1.541,0,0,1,1.542,2.67l-3.914,2.259A1.533,1.533,0,0,1,50.847,79.8Z" transform="translate(-49.303 -74.457)" fill="#1f5e96"/>
              </g>
              <g id="Grupo_63475" data-name="Grupo 63475" transform="translate(61.119 50.605)">
                <path id="Trazado_141619" data-name="Trazado 141619" d="M80.9,79.791a1.545,1.545,0,0,1-.773-.207l-3.914-2.276a1.54,1.54,0,1,1,1.549-2.663l3.914,2.276a1.539,1.539,0,0,1-.775,2.87Z" transform="translate(-75.448 -74.435)" fill="#1f5e96"/>
              </g>
              <g id="Grupo_63476" data-name="Grupo 63476" transform="translate(65 38.614)">
                <path id="Trazado_141620" data-name="Trazado 141620" d="M83.454,72.442a1.311,1.311,0,0,1-.158-.009l-4.667-.475a1.54,1.54,0,0,1,.313-3.065l4.665.475a1.541,1.541,0,0,1-.153,3.073Z" transform="translate(-77.245 -68.883)" fill="#1f5e96"/>
              </g>
              <g id="Grupo_63477" data-name="Grupo 63477" transform="translate(63.673 24.581)">
                <path id="Trazado_141621" data-name="Trazado 141621" d="M78.171,66.958a1.541,1.541,0,0,1-.477-3.006l4.57-1.49a1.541,1.541,0,0,1,.955,2.931l-4.57,1.488A1.473,1.473,0,0,1,78.171,66.958Z" transform="translate(-76.631 -62.386)" fill="#1f5e96"/>
              </g>
              <g id="Grupo_63478" data-name="Grupo 63478" transform="translate(57.352 11.89)">
                <path id="Trazado_141622" data-name="Trazado 141622" d="M75.246,62.849a1.54,1.54,0,0,1-1.032-2.685l3.62-3.259a1.54,1.54,0,1,1,2.06,2.289l-3.62,3.259A1.536,1.536,0,0,1,75.246,62.849Z" transform="translate(-73.704 -56.51)" fill="#1f5e96"/>
              </g>
              <g id="Grupo_63479" data-name="Grupo 63479" transform="translate(47.149 3.142)">
                <path id="Trazado_141623" data-name="Trazado 141623" d="M70.52,60.145a1.542,1.542,0,0,1-1.406-2.166l2.048-4.6a1.54,1.54,0,1,1,2.814,1.253l-2.048,4.6A1.54,1.54,0,0,1,70.52,60.145Z" transform="translate(-68.98 -52.46)" fill="#1f5e96"/>
              </g>
            </g>
            <g id="Grupo_63481" data-name="Grupo 63481" transform="translate(23.686 53.732)">
              <path id="Trazado_141624" data-name="Trazado 141624" d="M81.955,78.965h-22.3a1.541,1.541,0,1,1,0-3.082h22.3a1.541,1.541,0,0,1,0,3.082Z" transform="translate(-58.117 -75.883)" fill="#1f5e96"/>
            </g>
            <g id="Grupo_63482" data-name="Grupo 63482" transform="translate(24.129 60.152)">
              <path id="Trazado_141625" data-name="Trazado 141625" d="M81.277,81.937H59.862a1.541,1.541,0,0,1,0-3.082H81.277a1.541,1.541,0,1,1,0,3.082Z" transform="translate(-58.322 -78.855)" fill="#1f5e96"/>
            </g>
            <g id="Grupo_63483" data-name="Grupo 63483" transform="translate(25.54 67.288)">
              <path id="Trazado_141626" data-name="Trazado 141626" d="M79.109,85.241H60.515a1.541,1.541,0,0,1,0-3.082H79.109a1.541,1.541,0,1,1,0,3.082Z" transform="translate(-58.975 -82.159)" fill="#1f5e96"/>
            </g>
            <g id="Grupo_63484" data-name="Grupo 63484" transform="translate(23.684 53.732)">
              <path id="Trazado_141627" data-name="Trazado 141627" d="M70.8,99.52A10.774,10.774,0,0,1,62.9,96.056l-3.076-3.337a6.439,6.439,0,0,1-1.706-4.374V77.423a1.539,1.539,0,0,1,1.54-1.54h22.3a1.539,1.539,0,0,1,1.54,1.54V88.345a6.439,6.439,0,0,1-1.706,4.374L78.71,96.056A10.775,10.775,0,0,1,70.8,99.52ZM61.2,78.965v9.38a3.367,3.367,0,0,0,.892,2.285l3.076,3.337a7.669,7.669,0,0,0,11.281,0L79.52,90.63a3.367,3.367,0,0,0,.892-2.285v-9.38Z" transform="translate(-58.116 -75.883)" fill="#1f5e96"/>
            </g>
          </g>
        </g>
      </g>
    </g>
  </g>
</svg>
